<svg width="182" height="182" viewBox="0 0 182 182" fill="none" xmlns="http://www.w3.org/2000/svg">
<rect x="0.5" y="0.5" width="181" height="181" rx="90.5" fill="#F9F9FF"/>
<rect x="0.5" y="0.5" width="181" height="181" rx="90.5" stroke="#E6EBF6"/>
<path d="M41 95.4004V86.6004C41 81.4004 45.25 77.1004 50.5 77.1004C59.55 77.1004 63.25 70.7004 58.7 62.8504C56.1 58.3504 57.65 52.5004 62.2 49.9004L70.85 44.9504C74.8 42.6004 79.9 44.0004 82.25 47.9504L82.8 48.9004C87.3 56.7504 94.7 56.7504 99.25 48.9004L99.8 47.9504C102.15 44.0004 107.25 42.6004 111.2 44.9504L119.85 49.9004C124.4 52.5004 125.95 58.3504 123.35 62.8504C118.8 70.7004 122.5 77.1004 131.55 77.1004C136.75 77.1004 141.05 81.3504 141.05 86.6004V95.4004C141.05 100.6 136.8 104.9 131.55 104.9C122.5 104.9 118.8 111.3 123.35 119.15C125.95 123.7 124.4 129.5 119.85 132.1L111.2 137.05C107.25 139.4 102.15 138 99.8 134.05L99.25 133.1C94.75 125.25 87.35 125.25 82.8 133.1L82.25 134.05C79.9 138 74.8 139.4 70.85 137.05L62.2 132.1C57.65 129.5 56.1 123.65 58.7 119.15C63.25 111.3 59.55 104.9 50.5 104.9C45.25 104.9 41 100.6 41 95.4004Z" fill="#01B5CF" stroke="#02295A" stroke-width="4" stroke-linecap="round"/>
<path d="M91 106C99.2843 106 106 99.2844 106 91.0001C106 82.7159 99.2843 76.0001 91 76.0001C82.7157 76.0001 76 82.7159 76 91.0001C76 99.2844 82.7157 106 91 106Z" fill="#F9F9FF" stroke="#02295A" stroke-width="4" stroke-linecap="round"/>
<rect x="111" y="112.195" width="26" height="26" rx="13" fill="#F9F9FF"/>
<path d="M124 112.195C120.945 112.195 118.117 113.267 115.875 115.055C112.885 117.427 111 121.1 111 125.195C111 127.632 111.683 129.94 112.885 131.89C115.128 135.66 119.255 138.195 124 138.195C127.282 138.195 130.273 136.992 132.548 134.945C133.555 134.1 134.432 133.06 135.115 131.89C136.317 129.94 137 127.632 137 125.195C137 118.012 131.183 112.195 124 112.195ZM118.865 123.44C117.922 122.498 117.922 120.938 118.865 119.995C119.84 119.053 121.368 119.053 122.343 119.995L124.032 121.717L125.657 120.06C126.632 119.117 128.16 119.117 129.135 120.06C130.078 121.035 130.078 122.562 129.135 123.537L127.477 125.162L129.2 126.852C130.142 127.827 130.142 129.355 129.2 130.33C128.712 130.785 128.095 131.012 127.477 131.012C126.86 131.012 126.243 130.785 125.755 130.33L124.032 128.607L122.245 130.395C121.757 130.882 121.14 131.11 120.523 131.11C119.905 131.11 119.288 130.882 118.8 130.395C117.858 129.452 117.858 127.892 118.8 126.95L120.588 125.162L118.865 123.44Z" fill="#02295A"/>
</svg>
