<svg width="92" height="56" viewBox="0 0 92 56" fill="none" xmlns="http://www.w3.org/2000/svg">
<path opacity="0.5" d="M52.5226 42.5187C52.4415 43.2258 52.3244 43.9283 52.1668 44.6219C51.775 46.3512 51.167 48.04 50.8293 49.7694C50.7797 50.0081 50.7347 50.2558 50.6987 50.499C47.92 52.8093 44.9837 54.7143 41.7682 55.3673C41.6421 55.3943 41.516 55.4078 41.3899 55.4348C41.2818 55.2502 41.1737 55.0565 41.0746 54.8674C39.9623 52.7597 39.3858 50.3729 39.5389 47.9905C39.8227 43.3879 42.5068 39.0465 42.0069 34.4664C41.7006 31.6472 40.2145 29.1477 38.2779 27.0131C37.5123 26.1619 36.6792 25.3738 35.819 24.6487C33.9681 23.077 31.955 21.6809 30.059 20.1632C28.8611 19.2085 27.7037 18.2042 26.6679 17.0783C24.1189 14.3086 22.3535 10.8364 21.5654 7.15253C22.5021 7.30565 23.4388 7.39572 24.3576 7.42725C26.2761 7.4903 28.127 7.31015 29.8293 6.9859C30.3698 8.78731 31.257 10.5122 32.3558 12.0389C34.5986 15.1643 37.6384 17.6142 40.6423 20.0326C43.6371 22.4465 46.6725 24.9099 48.8837 28.0624C51.8065 32.2237 53.1126 37.4748 52.5271 42.5232L52.5226 42.5187Z" fill="url(#paint0_linear_1212_22183)"/>
<path d="M41.0746 54.8675C41.1737 55.0566 41.2818 55.2458 41.3899 55.4349C36.7287 56.2771 31.5226 56.7455 28.2531 52.5662C27.1317 51.1341 25.7356 49.1435 24.9025 47.243C21.6374 39.7987 18.2012 35.4483 14.157 31.0258C9.3788 25.7927 6.60463 22.1809 3.42514 19.1545C0.241152 16.1282 0.236649 14.606 0.236649 14.606C0.119557 14.043 0.0745218 13.4576 0.0970394 12.8676C0.304202 6.95449 7.01896 0.334311 15.5757 5.08553C15.8729 5.25216 16.1746 5.40528 16.4764 5.54939C18.1472 6.36003 19.863 6.86893 21.5608 7.14814C22.349 10.832 24.1143 14.3042 26.6633 17.0739C27.7036 18.1998 28.8565 19.2086 30.0545 20.1588C31.9505 21.6765 33.9635 23.0726 35.8145 24.6443C36.6747 25.3694 37.5078 26.1575 38.2734 27.0087C40.2099 29.1434 41.6961 31.6428 42.0023 34.462C42.5067 39.0376 39.8181 43.3835 39.5344 47.9861C39.3858 50.3685 39.9577 52.7553 41.0701 54.863L41.0746 54.8675Z" fill="url(#paint1_linear_1212_22183)"/>
<path d="M60.5884 41.591C58.4087 43.3023 56.22 45.4775 53.9502 47.5987C52.8874 48.5895 51.802 49.5757 50.6987 50.4945C50.7347 50.2513 50.7797 50.0036 50.8248 49.7649C51.167 48.0355 51.775 46.3467 52.1668 44.6174C52.3199 43.9193 52.4415 43.2213 52.5226 42.5142C53.1081 37.4703 51.802 32.2147 48.8792 28.0534C46.668 24.9054 43.6326 22.4375 40.6378 20.0236C37.6384 17.6052 34.5941 15.1553 32.3513 12.0299C31.2524 10.5077 30.3653 8.78282 29.8248 6.97691C32.1757 6.53556 34.2338 5.83752 35.7785 5.16199C36.2514 8.64772 37.9267 11.6741 39.9082 13.444C43.1012 16.2992 47.267 17.7358 51.0589 19.7174C54.8554 21.6989 58.5888 24.6397 59.5256 28.8145C60.1065 31.386 59.5391 34.0701 59.6201 36.7002C59.6697 38.1953 59.9444 39.6815 60.4218 41.1001C60.4713 41.2667 60.5299 41.4289 60.5884 41.5865V41.591Z" fill="url(#paint2_linear_1212_22183)"/>
<path d="M91.4015 40.9019C90.7485 40.7983 89.8973 40.6677 88.9381 40.4876C88.8075 40.4651 88.6634 40.4335 88.5192 40.4065C88.2896 40.3615 88.0509 40.3119 87.7897 40.2579C87.524 40.0012 87.2627 39.74 87.0151 39.4698C86.8845 39.3392 86.7629 39.1996 86.6368 39.06C86.5512 38.9654 86.4656 38.8708 86.3801 38.7762C86.281 38.6636 86.1819 38.5511 86.0828 38.4295C85.6775 37.9566 85.2947 37.4612 84.9254 36.9568L84.5651 36.4479C84.2499 35.984 83.9482 35.5112 83.6644 35.0248C83.5969 34.9122 83.5338 34.7996 83.4708 34.687C83.3312 34.4393 83.1916 34.1826 83.0565 33.9259C82.9934 33.8088 82.9304 33.6918 82.8718 33.5702C82.7908 33.4035 82.7097 33.2414 82.6286 33.0703C82.4665 32.737 82.3179 32.3947 82.1738 32.057C85.029 34.9617 89.7757 38.7537 91.8113 40.339C92.3607 40.7713 91.5501 40.8839 91.4015 40.8974V40.9019Z" fill="url(#paint3_linear_1212_22183)"/>
<path opacity="0.5" d="M87.7896 40.258C86.0378 39.8933 84.0607 39.4114 82.2863 38.7989C81.5748 38.5512 80.8947 38.2855 80.2733 37.9973C79.9625 37.8532 79.6698 37.7045 79.3906 37.5469C79.0843 37.3758 78.7601 37.2227 78.4268 37.0876C78.0936 36.9525 77.7513 36.8309 77.3955 36.7363C77.0442 36.6372 76.6794 36.5561 76.3102 36.4931C75.9364 36.43 75.5581 36.3805 75.1663 36.3535C75.0897 36.1418 75.0221 35.9302 74.9546 35.7185C74.5313 34.3719 74.2791 32.9668 74.234 31.5572C74.153 28.9227 74.7249 26.2431 74.144 23.6761C73.2027 19.5013 69.4693 16.5605 65.6728 14.5789C61.8809 12.5974 57.7106 11.1608 54.5221 8.30554C52.1578 6.18888 50.4644 3.33365 49.6898 0.253235C53.6394 0.397348 57.6205 3.11748 57.6205 3.11748C59.8408 7.1121 65.1009 12.2011 67.3166 14.2682C69.5278 16.3308 78.2557 26.3782 80.2012 29.6838C80.5795 30.3233 81.2911 31.1519 82.1828 32.0616C82.3224 32.3994 82.4755 32.7417 82.6376 33.0749C82.7142 33.2461 82.7952 33.4082 82.8808 33.5748C82.9393 33.6964 83.0024 33.8135 83.0654 33.9306C83.2006 34.1873 83.3357 34.444 83.4798 34.6917C83.5473 34.8088 83.6104 34.9169 83.6734 35.0294C83.9616 35.5113 84.2589 35.9887 84.5741 36.4526L84.9344 36.9615C85.2992 37.4704 85.682 37.9612 86.0918 38.4341C86.1864 38.5557 86.2855 38.6683 86.389 38.7809C86.4746 38.8755 86.5602 38.97 86.6457 39.0646C86.7673 39.2042 86.8934 39.3393 87.024 39.4744C87.2717 39.7446 87.5329 40.0058 87.7986 40.2625L87.7896 40.258Z" fill="url(#paint4_linear_1212_22183)"/>
<path d="M75.1663 36.3489C74.2026 36.2724 73.1893 36.2994 72.1399 36.4345C72.0138 36.448 71.8968 36.466 71.7707 36.484C71.2482 36.5606 70.7258 36.6642 70.1899 36.7903C69.6585 36.9164 69.1271 37.065 68.5912 37.2406C68.321 37.3262 68.0507 37.4208 67.7805 37.5199C67.7175 37.3397 67.6589 37.1551 67.6004 36.9749C67.2041 35.6734 66.9699 34.3179 66.9249 32.9578C66.8393 30.3187 67.4112 27.6436 66.8303 25.0721C65.8891 20.8973 62.1556 17.9565 58.3637 15.975C54.5672 13.9934 50.4014 12.5568 47.2129 9.70159C45.4656 8.14337 44.0875 6.17983 43.1733 4.02715C42.8625 3.28406 42.5968 2.51396 42.3942 1.73035C44.4883 0.888189 46.8346 0.284717 49.1855 0.239682C49.3521 0.235178 49.5187 0.239682 49.6854 0.248689C50.46 3.3246 52.1488 6.18433 54.5177 8.30099C57.7107 11.1517 61.8809 12.5928 65.6684 14.5744C69.4648 16.5605 73.1983 19.4967 74.1395 23.6715C74.7205 26.243 74.1485 28.9226 74.2296 31.5527C74.2746 32.9623 74.5268 34.3674 74.9501 35.7139C75.0177 35.9256 75.0898 36.1373 75.1618 36.3489H75.1663Z" fill="url(#paint5_linear_1212_22183)"/>
<path opacity="0.5" d="M66.8302 25.0721C65.889 20.8973 62.1556 17.9565 58.3636 15.9749C54.5717 13.9934 50.4014 12.5568 47.2129 9.70152C44.8621 7.60288 43.1867 4.77917 42.3986 1.73029C40.7413 2.3923 39.2372 3.20744 38.0212 4.00457C37.5168 4.33332 36.7512 4.74765 35.7784 5.17098C36.2558 8.65671 37.9266 11.6831 39.9082 13.453C43.1012 16.3037 47.2669 17.7448 51.0589 19.7264C54.8509 21.7079 58.5888 24.6487 59.5255 28.8235C60.1065 31.395 59.5345 34.0746 59.6201 36.7092C59.6741 38.3755 60.0119 40.0283 60.5884 41.5955C61.0162 41.2577 61.444 40.938 61.8719 40.6407C63.8039 39.3032 65.8034 38.2584 67.776 37.5288C67.2716 36.0561 66.9744 34.5159 66.9203 32.9622C66.8347 30.3277 67.4067 27.6481 66.8257 25.0766L66.8302 25.0721Z" fill="url(#paint6_linear_1212_22183)"/>
<defs>
<linearGradient id="paint0_linear_1212_22183" x1="98.188" y1="31.2104" x2="21.5654" y2="31.2104" gradientUnits="userSpaceOnUse">
<stop stop-color="#00E213"/>
<stop offset="1" stop-color="#01B5CF"/>
</linearGradient>
<linearGradient id="paint1_linear_1212_22183" x1="103.509" y1="29.7313" x2="0.0914307" y2="29.7313" gradientUnits="userSpaceOnUse">
<stop stop-color="#00E213"/>
<stop offset="1" stop-color="#01B5CF"/>
</linearGradient>
<linearGradient id="paint2_linear_1212_22183" x1="105.622" y1="27.8282" x2="29.8248" y2="27.8282" gradientUnits="userSpaceOnUse">
<stop stop-color="#00E213"/>
<stop offset="1" stop-color="#01B5CF"/>
</linearGradient>
<linearGradient id="paint3_linear_1212_22183" x1="106.384" y1="36.4794" x2="82.1738" y2="36.4794" gradientUnits="userSpaceOnUse">
<stop stop-color="#00E213"/>
<stop offset="1" stop-color="#01B5CF"/>
</linearGradient>
<linearGradient id="paint4_linear_1212_22183" x1="143.584" y1="20.2579" x2="49.6898" y2="20.2579" gradientUnits="userSpaceOnUse">
<stop stop-color="#00E213"/>
<stop offset="1" stop-color="#01B5CF"/>
</linearGradient>
<linearGradient id="paint5_linear_1212_22183" x1="123.14" y1="18.8789" x2="42.3942" y2="18.8789" gradientUnits="userSpaceOnUse">
<stop stop-color="#00E213"/>
<stop offset="1" stop-color="#01B5CF"/>
</linearGradient>
<linearGradient id="paint6_linear_1212_22183" x1="114.616" y1="21.6629" x2="35.7784" y2="21.6629" gradientUnits="userSpaceOnUse">
<stop stop-color="#00E213"/>
<stop offset="1" stop-color="#01B5CF"/>
</linearGradient>
</defs>
</svg>
