<svg width="57" height="29" viewBox="0 0 57 29" fill="none" xmlns="http://www.w3.org/2000/svg">
<g clip-path="url(#clip0_841_28628)">
<path d="M49.8675 20.2245C50.2348 20.4619 50.7565 20.3074 51.0336 19.8791C51.3106 19.4507 51.2376 18.9113 50.8703 18.6739C50.503 18.4365 49.9812 18.5909 49.7042 19.0193C49.4272 19.4476 49.5002 19.9871 49.8675 20.2245Z" fill="#7586B6"/>
<path d="M31.5458 20.2245C31.9131 20.4619 32.4349 20.3074 32.7119 19.8791C32.9889 19.4507 32.9159 18.9113 32.5486 18.6739C32.1813 18.4365 31.6596 18.5909 31.3825 19.0193C31.106 19.4476 31.1791 19.9871 31.5458 20.2245Z" fill="#7586B6"/>
<path d="M55.5074 26.3533C54.5891 26.7848 53.7877 26.7212 53.2404 26.5688C54.167 26.0914 55.1834 25.4909 56.1173 24.7725C56.4992 24.4788 57.119 23.8642 56.9792 23.0503C56.8769 22.4571 56.3818 21.9614 55.6545 21.7245C54.803 21.4475 53.4335 21.4887 52.3754 22.5165C51.4347 23.4306 50.6647 24.9953 50.9537 26.2339C50.7132 26.4128 50.3167 26.6465 49.8607 26.7415C49.7882 26.7535 49.7089 26.765 49.6212 26.7759C49.6202 26.7759 49.6191 26.777 49.6181 26.777C49.581 26.7801 49.5435 26.7827 49.5059 26.7838H49.4125C49.2789 26.7838 49.1516 26.7572 49.0379 26.717C48.9763 26.6935 48.9184 26.6632 48.8663 26.6272C48.8266 26.5907 48.7906 26.549 48.7588 26.5015C48.6784 26.381 48.6268 26.2266 48.6451 26.0466C48.6487 26.0116 48.6555 25.9699 48.6649 25.9234L50.097 22.1894C50.2259 21.8529 50.0579 21.4762 49.7214 21.3468C49.3849 21.218 49.0082 21.3859 48.8788 21.7225L47.2724 25.912C47.2588 25.948 47.2489 25.9845 47.2416 26.021C47.0626 26.3857 46.722 26.7702 46.0719 26.7702C45.7578 26.7702 45.5037 26.6497 45.3628 26.4493C45.3362 26.4092 45.3159 26.369 45.2961 26.3288C45.2742 26.2746 45.2585 26.2161 45.2491 26.154L48.2073 18.4392C48.3362 18.1027 48.1682 17.726 47.8317 17.5966C47.4952 17.4678 47.1179 17.6358 46.9891 17.9723L45.2069 22.6204C45.1917 22.6397 45.1766 22.6673 45.1615 22.7049C45.0811 22.5713 44.9877 22.444 44.8876 22.3235C44.7806 22.203 44.6669 22.0892 44.5463 21.9891C44.0246 21.5612 43.3625 21.327 42.6337 21.327C41.7379 21.327 40.8749 21.688 40.1998 22.2765C40.1732 22.2964 40.1529 22.3235 40.1262 22.3433C40.1064 22.3569 40.0929 22.3767 40.0725 22.3903C39.6311 22.8051 39.2837 23.32 39.0692 23.8882C39.0692 23.8949 39.0624 23.9017 39.0624 23.9148C39.0358 23.9883 39.0155 24.0619 38.9889 24.1422C38.9487 24.2826 38.9153 24.4229 38.8955 24.5701C38.8757 24.7036 38.8621 24.8377 38.8553 24.9713C38.8417 25.3589 38.9023 25.7403 39.0223 26.0878C38.9623 26.1879 38.8819 26.2819 38.7948 26.3685C38.5475 26.6027 38.2199 26.7561 37.8786 26.7832H37.7852C37.6517 26.7832 37.5244 26.7566 37.4106 26.7165C37.2703 26.6627 37.1498 26.5761 37.0694 26.4624C36.9155 26.2417 36.9155 25.9208 37.0559 25.553C37.0893 25.4596 37.3032 24.8909 37.4973 24.3828C37.6444 23.9883 37.7779 23.6205 37.8051 23.547C37.8186 23.5068 37.8452 23.4468 37.8651 23.3732C37.8985 23.2329 37.9188 23.0388 37.8249 22.8384C37.7847 22.7581 37.7378 22.6913 37.6846 22.6313C37.5776 22.5176 37.4373 22.4508 37.3032 22.3971C37.2494 22.3772 37.1962 22.3569 37.1425 22.3433C37.0491 22.3167 36.9484 22.2765 36.8347 22.2296C36.8279 22.2296 36.8279 22.2228 36.8211 22.2228C36.6338 22.1425 35.7312 21.7214 35.7312 20.919V20.8188C35.7176 20.6983 35.6775 20.6247 35.6242 20.5846C35.6175 20.5846 35.6175 20.5778 35.6107 20.5778C35.6107 20.5778 35.6107 20.5778 35.6039 20.5778C35.5971 20.571 35.5903 20.571 35.5841 20.5642C35.5841 20.5642 35.5841 20.5642 35.5773 20.5642C35.5773 20.5642 35.5773 20.5642 35.5705 20.5642C35.5637 20.5642 35.5637 20.5574 35.5569 20.5574C35.5236 20.5439 35.4902 20.5376 35.45 20.5376H34.8349C34.7076 20.5376 34.5672 20.6044 34.4738 20.7046C34.4337 20.7447 34.4003 20.798 34.3804 20.8517C34.2469 21.1929 34.0862 21.6004 33.9192 22.0355C33.3307 23.547 32.6285 25.3589 32.4281 25.8739C32.4213 25.8937 32.4146 25.914 32.4083 25.9339C32.2476 26.3283 31.9069 26.8031 31.1781 26.8031C30.864 26.8031 30.6031 26.6825 30.469 26.4822C30.3887 26.3617 30.3485 26.2083 30.3553 26.0273C30.3621 25.8869 30.3955 25.733 30.4555 25.5723C30.5822 25.2379 30.8567 24.5424 31.1442 23.8068C31.4181 23.1045 31.7061 22.3558 31.9064 21.8477C31.9732 21.6739 31.8798 21.5336 31.6925 21.5336H31.0106C30.9704 21.5336 30.9235 21.5404 30.877 21.5534C30.8702 21.5534 30.8702 21.5534 30.8635 21.5534C30.7163 21.5936 30.5692 21.6938 30.4821 21.8007C30.1612 22.1884 29.7464 22.503 29.292 22.7304C28.8371 22.9579 28.3492 23.105 27.8813 23.1583C27.8145 22.9845 27.7273 22.8108 27.6204 22.6501C27.6136 22.6433 27.6136 22.6365 27.6068 22.6303C27.54 22.5301 27.4733 22.4362 27.3929 22.3428C26.8378 21.7011 26.0422 21.3463 25.1396 21.3463C24.6585 21.3463 24.178 21.4585 23.7372 21.6452L24.9669 18.4387C25.0957 18.1022 24.9277 17.7255 24.5912 17.5961C24.2547 17.4672 23.8775 17.6352 23.7486 17.9717L20.8525 25.5243C20.6443 26.0669 20.3809 26.5589 20.0689 26.9872C20.0407 27.0258 20.012 27.0639 19.9833 27.102C19.7647 27.3884 19.82 27.7975 20.1064 28.0161C20.2244 28.1063 20.3637 28.1496 20.5014 28.1496C20.6976 28.1496 20.8922 28.0615 21.0205 27.893C21.0549 27.8476 21.0894 27.8017 21.1233 27.7552C21.357 27.4344 21.5673 27.0858 21.753 26.7138C21.7525 26.7144 21.7525 26.7159 21.7525 26.7159C21.7718 26.6857 21.7906 26.6544 21.8099 26.6225C21.8297 26.6559 21.8501 26.6825 21.8699 26.7159C21.8965 26.7561 21.9236 26.7963 21.9502 26.8365C21.9904 26.8902 22.0306 26.9366 22.0708 26.9904C22.6259 27.6321 23.4215 27.9869 24.3241 27.9869C25.5543 27.9869 26.7314 27.2982 27.4336 26.2949C27.7545 25.8337 27.9752 25.312 28.0623 24.7568C28.0821 24.6165 28.0957 24.4762 28.1025 24.3358C28.223 24.3222 28.343 24.3024 28.4567 24.2758C28.9717 24.1756 29.4532 24.0082 29.881 23.7812C29.8675 23.8146 29.8544 23.8548 29.8409 23.8882C29.64 24.4167 29.4595 24.8711 29.3661 25.1184C29.0718 25.8608 29.1188 26.5829 29.4997 27.1443C29.64 27.3514 29.8205 27.5257 30.0282 27.6592C30.3626 27.8731 30.7638 27.9937 31.2052 27.9937C32.2685 27.9937 33.1445 27.3853 33.5592 26.3554C33.613 26.2219 33.7199 25.9406 33.8603 25.5728C34.1545 24.8174 34.5959 23.6805 34.9971 22.6506C35.0305 22.5572 35.0707 22.4633 35.1041 22.3762C35.4521 22.8108 35.9201 23.1384 36.3745 23.3325C36.4011 23.3461 36.4214 23.3523 36.4481 23.3659C36.5018 23.3857 36.555 23.4061 36.602 23.4259C36.3745 24.041 36.0135 25.0172 35.9665 25.1247C35.786 25.5859 35.7322 26.034 35.8126 26.442C35.8595 26.6961 35.9597 26.9366 36.1001 27.1511C36.1935 27.2846 36.3009 27.4051 36.4209 27.5121C36.7554 27.7996 37.19 27.9733 37.6715 28.0004C37.7185 28.0004 37.7586 28.0072 37.8051 28.0072C37.8786 28.0072 37.9522 28.0004 38.0258 27.9937C38.0393 27.9937 38.0592 27.9937 38.0727 27.9869H38.0925C38.4004 27.9535 38.6946 27.8596 38.9685 27.726C39.2492 27.5857 39.5033 27.3984 39.7172 27.1777C40.1382 27.5924 40.6803 27.8596 41.2887 27.9603C41.4556 27.9869 41.6299 28.0004 41.8104 28.0004C42.0379 28.0004 42.2653 27.9738 42.4855 27.9337C43.0938 27.8131 43.6693 27.5257 44.1503 27.1312C44.1973 27.0978 44.2375 27.0577 44.2777 27.0175C44.3043 27.0645 44.3314 27.1109 44.358 27.1511C44.5923 27.4923 44.9262 27.7396 45.3211 27.8799C45.3409 27.8867 45.3613 27.8935 45.3748 27.8997C45.3947 27.9065 45.4218 27.9133 45.4416 27.9196C45.4682 27.9263 45.4886 27.9331 45.5152 27.9394C45.535 27.9462 45.5554 27.9462 45.5752 27.953C45.6018 27.9597 45.6221 27.9665 45.6488 27.9665C45.6686 27.9733 45.6889 27.9733 45.7088 27.9801C45.7354 27.9869 45.7557 27.9869 45.7823 27.9869C45.8089 27.9869 45.8361 27.9937 45.8627 27.9937C45.8825 27.9937 45.9028 28.0004 45.9227 28.0004C45.9696 28.0004 46.0161 28.0072 46.0698 28.0072C46.7606 28.0072 47.372 27.75 47.8296 27.2878C47.8964 27.3681 47.9678 27.4432 48.0456 27.5121C48.38 27.7996 48.8146 27.9733 49.2962 28.0004C49.3431 28.0004 49.3833 28.0072 49.4297 28.0072C49.5033 28.0072 49.5769 28.0004 49.6504 27.9937C49.664 27.9937 49.6838 27.9937 49.6974 27.9869H49.7203C49.8513 27.9728 49.9791 27.9472 50.1048 27.9128C50.1059 27.9143 50.1064 27.9154 50.1064 27.9154C50.1148 27.9128 50.1341 27.9065 50.1628 27.8961C50.2452 27.8716 50.3261 27.8429 50.4054 27.8105C50.6709 27.7145 51.0956 27.5533 51.6199 27.329C51.634 27.341 51.6799 27.3342 51.7473 27.3144C51.898 27.4166 52.798 27.9874 54.0877 27.9874C54.6762 27.9874 55.3461 27.8684 56.062 27.5319C56.388 27.3785 56.5279 26.9904 56.375 26.6643C56.2221 26.3398 55.8334 26.1999 55.5074 26.3533ZM26.6875 24.5575C26.507 25.7747 25.4103 26.7707 24.2401 26.7707C24.0794 26.7707 23.926 26.7509 23.7789 26.7107C23.4513 26.6236 23.1706 26.4499 22.9629 26.189C22.6488 25.8076 22.5215 25.2932 22.6019 24.7381V24.7313C22.616 24.6321 22.6368 24.544 22.6598 24.4652L22.8518 23.9643C22.856 23.9576 22.8601 23.9502 22.8627 23.9424C22.8826 23.909 22.8961 23.8756 22.9165 23.8423C22.9233 23.8287 22.93 23.8224 22.9363 23.8089C23.0834 23.5616 23.2639 23.3409 23.4711 23.1536C23.9125 22.7659 24.4676 22.5249 25.0425 22.5249C25.3034 22.5249 25.5507 22.5786 25.7646 22.672C25.9853 22.7722 26.1726 22.9125 26.3265 23.0998C26.6406 23.4812 26.7679 23.9962 26.6875 24.5575ZM44.3413 24.5575C44.2276 25.3464 43.7262 26.0419 43.0709 26.4368C43.0641 26.4436 43.0511 26.4504 43.0443 26.4504C43.0443 26.4504 43.0375 26.4504 43.0375 26.4572C42.69 26.658 42.3019 26.7712 41.9007 26.7712C41.7133 26.7712 41.5328 26.7446 41.3659 26.6909C41.0716 26.5975 40.8108 26.43 40.6172 26.1963C40.4236 25.9626 40.3031 25.6746 40.2562 25.3537V25.3469C40.2295 25.1528 40.2295 24.9525 40.2629 24.7448C40.3099 24.437 40.4101 24.1428 40.564 23.8756C40.7648 23.5146 41.0455 23.2068 41.3732 22.973C41.7676 22.6991 42.2293 22.5317 42.7041 22.5317C43.025 22.5317 43.3192 22.6052 43.5665 22.7524C43.7272 22.8457 43.8676 22.9663 43.9876 23.1066C44.0476 23.1802 44.1013 23.2537 44.1415 23.3341C44.2954 23.6017 44.369 23.9158 44.369 24.2502C44.3679 24.3504 44.3611 24.4506 44.3413 24.5575ZM53.2389 23.405C53.6719 22.984 54.2166 22.8165 54.6982 22.8165C54.9053 22.8165 55.1009 22.8478 55.271 22.9031C55.5668 22.9997 55.74 23.1562 55.7578 23.261C55.775 23.3602 55.6587 23.5621 55.3618 23.7911C54.3173 24.5946 53.1397 25.2483 52.1318 25.7346C52.1072 25.0996 52.4881 24.1349 53.2389 23.405Z" fill="#7586B6"/>
<path d="M13.2856 23.3826C14.0734 22.0814 14.172 20.487 13.5814 18.6359L16.1498 17.8544C16.3512 17.7933 16.5104 17.6384 16.5777 17.4396C16.645 17.2403 16.6121 17.0206 16.4895 16.85C16.4086 16.7373 14.4803 14.0927 12.0417 14.0285C10.8444 13.9977 9.76388 14.5722 8.82998 15.7372C8.60459 16.0184 8.64998 16.4285 8.9312 16.6539C9.21241 16.8792 9.62249 16.8339 9.84787 16.5526C10.5219 15.7121 11.2278 15.3125 12.0047 15.3318C13.1264 15.3594 14.1814 16.2386 14.8163 16.8965L12.5478 17.5867C12.3736 17.6399 12.2296 17.7631 12.1503 17.9269C12.071 18.0907 12.0642 18.2801 12.1304 18.4497C12.8139 20.1844 12.828 21.615 12.1722 22.7023C11.0139 24.6233 8.10634 24.9812 8.02808 24.9906C7.92269 25.001 6.60272 25.1429 4.9984 25.7173C2.79461 26.5067 1.10212 27.7484 0.10301 29.3079C-0.0910737 29.611 -0.00290145 30.0143 0.300223 30.2089C0.409265 30.2788 0.530828 30.3122 0.651347 30.3122C0.8663 30.3122 1.07656 30.2063 1.20125 30.0117C3.25113 26.8114 8.11104 26.2933 8.15904 26.2881C8.16112 26.2881 8.16321 26.2876 8.1653 26.2876C8.31347 26.2719 11.7778 25.8733 13.2856 23.3826Z" fill="#7586B6"/>
<path d="M10.4396 10.4658C10.0556 10.4658 9.67788 10.4904 9.30641 10.5384C9.9351 7.78832 9.76919 4.94176 8.82329 2.2919C8.79981 2.22355 8.76433 2.15886 8.71738 2.0999C8.70747 2.08738 8.69703 2.07486 8.68608 2.06286C8.68555 2.06234 8.68555 2.06234 8.68503 2.06182C8.68034 2.0566 8.67512 2.05243 8.6699 2.04721C8.65999 2.03729 8.65008 2.02738 8.63964 2.01799C8.63025 2.00964 8.62034 2.00182 8.61042 1.99451C8.60364 1.9893 8.59738 1.98356 8.5906 1.97886C8.5786 1.96999 8.56556 1.96164 8.55303 1.95382C8.54834 1.95069 8.54364 1.94756 8.53843 1.94443C8.52486 1.9366 8.5113 1.9293 8.49773 1.92251C8.49251 1.91991 8.48782 1.9173 8.4826 1.91469C8.46956 1.90843 8.45651 1.90321 8.44295 1.89799C8.43669 1.89538 8.42991 1.89278 8.42365 1.89017C8.41217 1.88599 8.40017 1.88286 8.38817 1.87921C8.3793 1.8766 8.37043 1.87399 8.36156 1.87191C8.35217 1.86982 8.34226 1.86773 8.33286 1.86617C8.32139 1.86408 8.30991 1.86147 8.29843 1.85991C8.29113 1.85886 8.2833 1.85834 8.276 1.8573C8.26243 1.85573 8.24887 1.85417 8.23478 1.85365C8.22852 1.85365 8.22226 1.85365 8.21652 1.85365C8.20139 1.85365 8.18678 1.85312 8.17165 1.85417C8.16539 1.85469 8.15913 1.85521 8.15287 1.85573C8.13826 1.85678 8.12365 1.85834 8.10904 1.86043C8.10069 1.86147 8.09183 1.86356 8.08348 1.86565C8.07148 1.86773 8.05948 1.86982 8.04748 1.87295C8.03391 1.87608 8.02087 1.88078 8.00731 1.88495C8.00052 1.88704 7.99374 1.8886 7.98748 1.89121C7.98696 1.89121 7.98644 1.89173 7.98591 1.89173C7.97131 1.89695 7.9567 1.90373 7.94209 1.90999C7.8727 1.94077 7.81061 1.98251 7.75792 2.0326C7.07706 2.66598 6.45359 3.36614 5.90526 4.1143C5.29692 4.94437 4.77467 5.84175 4.35311 6.78138C4.20546 7.11007 4.35259 7.49615 4.68128 7.64328C4.76789 7.68241 4.85867 7.70067 4.94788 7.70067C5.19675 7.70067 5.43466 7.55719 5.54318 7.31511C5.92717 6.45895 6.40299 5.6414 6.95758 4.88542C7.25184 4.48421 7.5701 4.09865 7.90818 3.73083C8.5019 5.91792 8.53216 8.2177 7.98904 10.4434C7.95618 10.5775 7.92122 10.71 7.8847 10.8425C4.24929 11.9413 1.59473 15.3216 1.59473 19.3107C1.59473 19.3154 1.59525 19.3196 1.59525 19.3243C1.59525 19.3384 1.59629 19.3519 1.59734 19.366C1.59786 19.3733 1.59838 19.3806 1.59942 19.3879C1.60099 19.4025 1.6036 19.4172 1.6062 19.4312C1.60725 19.438 1.60881 19.4443 1.60986 19.4511C1.61299 19.4657 1.61664 19.4798 1.62081 19.4944C1.62238 19.5006 1.62447 19.5069 1.62655 19.5126C1.63125 19.5267 1.63646 19.5408 1.6422 19.5549C1.64429 19.5606 1.6469 19.5664 1.64951 19.5721C1.65577 19.5862 1.66255 19.5998 1.66933 19.6138C1.67194 19.6191 1.67455 19.6238 1.67768 19.629C1.68186 19.6363 1.68551 19.6441 1.68968 19.6514C1.69281 19.6566 1.69699 19.6613 1.70064 19.6665C1.7069 19.6765 1.71368 19.6853 1.72046 19.6947C1.75177 19.738 1.78724 19.7761 1.8269 19.8095C1.83003 19.8121 1.83316 19.8147 1.83681 19.8178C1.85142 19.8298 1.86655 19.8413 1.8822 19.8518C1.88272 19.8523 1.88324 19.8523 1.88376 19.8528C1.93437 19.8867 1.98863 19.9128 2.0455 19.9316C2.04967 19.9331 2.05385 19.9342 2.05802 19.9357C2.07628 19.941 2.09402 19.9457 2.1128 19.9498C2.11541 19.9504 2.11854 19.9509 2.12115 19.9514C2.16289 19.9597 2.20515 19.965 2.24793 19.965C2.36323 19.965 2.48062 19.9342 2.58653 19.87C5.60422 18.033 7.81896 15.2412 8.91929 11.9251C9.41076 11.8239 9.91944 11.7707 10.4401 11.7707C14.5983 11.7707 17.9812 15.1536 17.9812 19.3118C17.9812 23.4699 14.5983 26.8528 10.4401 26.8528C10.0801 26.8528 9.78797 27.145 9.78797 27.505C9.78797 27.865 10.0801 28.1572 10.4401 28.1572C15.3173 28.1572 19.2855 24.1894 19.2855 19.3118C19.2855 14.4341 15.3173 10.4658 10.4396 10.4658ZM3.01227 18.0069C3.44739 15.5219 5.10284 13.4517 7.33584 12.439C6.41864 14.6491 4.9364 16.5617 3.01227 18.0069Z" fill="#7586B6"/>
<path d="M8.34053 22.8765C8.64209 23.0738 9.04591 22.9892 9.24313 22.6877C9.90468 21.676 10.1295 20.7265 9.91146 19.8651C9.63964 18.7893 8.78453 18.2989 8.68801 18.2467C8.53723 18.1653 8.36088 18.146 8.19601 18.1935C6.58074 18.6604 3.97522 21.7397 3.68358 22.0893C3.45297 22.3658 3.49001 22.7769 3.76653 23.008C3.88862 23.1098 4.03679 23.1593 4.18391 23.1593C4.37069 23.1593 4.55591 23.0795 4.68477 22.9251C5.59624 21.8331 7.27986 20.0764 8.27897 19.562C8.41618 19.695 8.58001 19.9063 8.65044 20.2001C8.76783 20.6905 8.59931 21.2868 8.15062 21.9734C7.95445 22.275 8.0395 22.6793 8.34053 22.8765Z" fill="#7586B6"/>
</g>
<defs>
<clipPath id="clip0_841_28628">
<rect width="57" height="28.4583" fill="white" transform="translate(0 0.541016)"/>
</clipPath>
</defs>
</svg>
