<svg width="40" height="34" viewBox="0 0 40 34" fill="none" xmlns="http://www.w3.org/2000/svg">
<path d="M27.928 5.4501V4.4501H26.928H7.43113C6.43104 4.4501 5.62031 5.26084 5.62031 6.26093V9.70686V13.9636V17.9366V21.7474V25.8014C5.62031 26.712 6.35844 27.4501 7.26898 27.4501H26.928H27.928V26.4501V5.4501Z" fill="white" stroke="white" stroke-width="2" stroke-linecap="round"/>
<rect x="31.0728" y="0.462067" width="5.99915" height="31.0759" rx="2" fill="white"/>
<rect x="30.0728" y="25.0151" width="7.99915" height="7.52283" rx="3" fill="white" stroke="#01C58E" stroke-width="2" stroke-linecap="round"/>
<path d="M29.928 8.45007V7.45007H28.928H10.928C9.82341 7.45007 8.92798 8.3455 8.92798 9.45007V22.4501C8.92798 23.5546 9.82341 24.4501 10.928 24.4501H28.928H29.928V23.4501V8.45007Z" fill="white" stroke="#01C58E" stroke-width="2" stroke-linecap="round"/>
</svg>
