<svg width="50" height="50" viewBox="0 0 50 50" fill="none" xmlns="http://www.w3.org/2000/svg">
<rect width="50" height="50" rx="16" fill="#FAFCFF"/>
<path d="M28.827 21.5769C28.753 21.0614 29.1074 20.3046 29.4595 19.5528C29.6919 19.0565 29.9233 18.5623 30.0296 18.1414C30.2898 17.1096 30.258 16.1379 30.2276 15.2092C30.1967 14.2659 30.1672 13.367 30.4469 12.495L30.5935 12.107L30.1404 11.9085C30.1453 11.8899 30.1501 11.8714 30.1549 11.8529L29.4283 11.6667L29.1632 12.3683L29.2094 12.3857C28.4344 14.5679 26.8405 16.0649 25 16.0649C23.1595 16.0649 21.5656 14.5679 20.7906 12.3857L28.827 21.5769ZM28.827 21.5769C28.9609 22.5538 29.1775 23.3722 29.4127 24.2611M28.827 21.5769L29.4127 24.2611M29.4127 24.2611C30.0305 26.5962 30.777 29.4177 30.492 36.8754L29.4127 24.2611ZM31.2404 36.9234L31.2411 36.9137L31.2414 36.904C31.5312 29.3242 30.7478 26.3613 30.1272 24.0137C29.899 23.1506 29.6929 22.3707 29.5701 21.4751L29.5701 21.4751L29.5694 21.4703C29.5622 21.4201 29.5675 21.2912 29.6423 21.0487C29.7134 20.8177 29.8256 20.5505 29.9644 20.2463C30.0129 20.1399 30.0661 20.0265 30.1216 19.9085C30.3564 19.4083 30.6309 18.8236 30.7568 18.3251L30.7569 18.3248C31.0441 17.1857 31.0083 16.1125 30.9776 15.1949C30.9749 15.1135 30.9722 15.0332 30.9698 14.9542C30.9392 13.9511 30.9518 13.1584 31.2805 12.4079L31.5974 11.6845L30.8586 11.4054L29.6934 10.9651L28.9098 10.669L28.7018 11.4805C28.0849 13.8879 26.5426 15.3149 25 15.3149C23.4574 15.3149 21.9151 13.8879 21.2982 11.4805L21.0902 10.6689L20.3065 10.9651L19.1413 11.4054L18.4026 11.6846L18.7195 12.408C19.0482 13.1584 19.0608 13.9511 19.0302 14.9543C19.0278 15.0332 19.0251 15.1135 19.0224 15.195C18.9917 16.1123 18.9559 17.1852 19.2429 18.3239C19.3682 18.8257 19.644 19.4135 19.8794 19.9153C19.9336 20.031 19.9858 20.142 20.0334 20.2464C20.1723 20.5509 20.2848 20.8182 20.3564 21.0496C20.4316 21.2925 20.4374 21.4219 20.4303 21.4726L20.4302 21.4727C20.3051 22.3644 20.0983 23.141 19.87 23.9983C19.2442 26.3484 18.4568 29.3052 18.7472 36.904L18.7477 36.9167L18.7486 36.9294C18.793 37.544 19.2524 37.9285 19.6238 38.1462C20.0226 38.3799 20.5352 38.5523 21.0803 38.6822C22.1812 38.9445 23.6003 39.0757 24.9934 39.083C26.3858 39.0903 27.8071 38.974 28.9106 38.7147C29.4571 38.5863 29.9735 38.412 30.3758 38.1692C30.7607 37.9369 31.2009 37.5397 31.2404 36.9234Z" stroke="url(#paint0_linear_1215_446)" stroke-width="1.5"/>
<defs>
<linearGradient id="paint0_linear_1215_446" x1="46.9698" y1="25" x2="19.4064" y2="25" gradientUnits="userSpaceOnUse">
<stop stop-color="#00E213"/>
<stop offset="1" stop-color="#01B5CF"/>
</linearGradient>
</defs>
</svg>
