<svg width="52" height="60" viewBox="0 0 52 60" fill="none" xmlns="http://www.w3.org/2000/svg">
<path d="M51.7219 1.79045C51.7219 0.956279 51.0434 0.28894 50.2204 0.28894H2.43883C1.60466 0.28894 0.937317 0.967401 0.937317 1.79045V9.48712H51.7219V1.79045Z" fill="#ACBED4"/>
<path d="M52 9.77653H0.648193V1.7907C0.648193 0.800809 1.449 0 2.43889 0H50.2093C51.1992 0 52 0.800809 52 1.7907V9.77653ZM1.22655 9.19818H51.4328V1.7907C51.4328 1.12336 50.8878 0.567241 50.2093 0.567241H2.43889C1.77155 0.567241 1.21543 1.11223 1.21543 1.7907V9.19818H1.22655Z" fill="#C4D1E3"/>
<path d="M0.937256 9.48706V57.669C0.937256 58.5032 1.61572 59.1705 2.43877 59.1705H50.2092C51.0434 59.1705 51.7107 58.4921 51.7107 57.669V9.48706H0.937256Z" fill="#E6EDF5"/>
<path d="M50.2093 59.46H2.43883C1.44894 59.46 0.648132 58.6592 0.648132 57.6693V9.19818H52V57.6693C52 58.6592 51.1991 59.46 50.2093 59.46ZM1.22649 9.77654V57.6693C1.22649 58.3367 1.77149 58.8817 2.44995 58.8817H50.2204C50.8877 58.8817 51.4438 58.3367 51.4438 57.6693V9.77654H1.22649Z" fill="#C4D1E3"/>
<path d="M44.726 33.2447C44.726 43.2882 36.5845 51.4297 26.541 51.4297C16.4975 51.4297 8.35599 43.2882 8.35599 33.2447C8.35599 23.2012 16.4975 15.0597 26.541 15.0597C36.5845 15.0597 44.726 23.2012 44.726 33.2447Z" fill="#ACBED4"/>
<path d="M44.4257 33.0111C44.4257 42.6431 36.6178 50.4509 26.9858 50.4509C17.3539 50.4509 9.54602 42.6431 9.54602 33.0111C9.54602 23.3792 17.3539 15.5713 26.9858 15.5713C36.6178 15.5713 44.4257 23.3792 44.4257 33.0111Z" fill="#C4D1E3"/>
<path d="M15.2406 2.9696H3.50653V7.38517H15.2406V2.9696Z" fill="#335B8D"/>
<path d="M24.0161 5.17211C24.0161 5.91731 23.4155 6.52904 22.6592 6.52904C21.9029 6.52904 21.3022 5.92843 21.3022 5.17211C21.3022 4.41579 21.9029 3.81519 22.6592 3.81519C23.4155 3.81519 24.0161 4.42692 24.0161 5.17211Z" fill="#66BECC"/>
<path d="M30.9898 5.17211C30.9898 5.91731 30.3781 6.52904 29.6329 6.52904C28.8877 6.52904 28.276 5.92843 28.276 5.17211C28.276 4.41579 28.8766 3.81519 29.6329 3.81519C30.3892 3.81519 30.9898 4.42692 30.9898 5.17211Z" fill="#00E213"/>
<path d="M37.9635 5.17211C37.9635 5.91731 37.3518 6.52904 36.6066 6.52904C35.8614 6.52904 35.2497 5.92843 35.2497 5.17211C35.2497 4.41579 35.8614 3.81519 36.6066 3.81519C37.3518 3.81519 37.9635 4.42692 37.9635 5.17211Z" fill="#F44336"/>
<path d="M44.9373 5.17211C44.9373 5.91731 44.3256 6.52904 43.5804 6.52904C42.8352 6.52904 42.2234 5.92843 42.2234 5.17211C42.2234 4.41579 42.824 3.81519 43.5804 3.81519C44.3367 3.81519 44.9373 4.42692 44.9373 5.17211Z" fill="#335B8D"/>
<path d="M30.267 37.7941C33.7594 37.7941 34.816 39.2623 36.8403 40.1521C37.6967 38.8285 38.3196 37.3381 38.6199 35.7254C35.083 35.1915 34.5713 32.8224 30.1446 32.8224C25.1507 32.8224 25.1507 35.8366 20.1568 35.8366C16.7756 35.8366 15.6856 34.4574 13.7837 33.5676C13.8171 35.6475 14.3621 37.5939 15.2963 39.3068C16.542 40.052 17.7877 40.7972 20.268 40.7972C25.2619 40.7972 25.2619 37.783 30.2559 37.783L30.267 37.7941Z" fill="#6DCCCC"/>
<path d="M26.3297 45.869C30.7453 45.869 34.6158 43.5889 36.8514 40.141C34.8272 39.2512 33.7705 37.783 30.2781 37.783C25.2842 37.783 25.2842 40.7972 20.2903 40.7972C17.81 40.7972 16.5643 40.052 15.3186 39.3068C17.4429 43.2107 21.5804 45.869 26.3297 45.869Z" fill="url(#paint0_linear_841_27068)"/>
<path d="M26.3295 20.799C19.4114 20.799 13.7946 26.4046 13.7946 33.3338C13.7946 33.4117 13.7946 33.4895 13.7946 33.5674C15.6966 34.4572 16.7866 35.8363 20.1677 35.8363C25.1617 35.8363 25.1617 32.8222 30.1556 32.8222C34.5823 32.8222 35.0939 35.1912 38.6308 35.7251C38.7754 34.9466 38.8644 34.1569 38.8644 33.3338C38.8644 26.4157 33.2476 20.799 26.3295 20.799Z" fill="#335B8D"/>
<defs>
<linearGradient id="paint0_linear_841_27068" x1="68.3724" y1="41.826" x2="15.3186" y2="41.826" gradientUnits="userSpaceOnUse">
<stop stop-color="#00E213"/>
<stop offset="1" stop-color="#01B5CF"/>
</linearGradient>
</defs>
</svg>
