<svg width="172" height="180" viewBox="0 0 172 180" fill="none" xmlns="http://www.w3.org/2000/svg" xmlns:xlink="http://www.w3.org/1999/xlink">
<path d="M168.295,1.813L164.383,1.813L164.383,0.574L162.753,0.574L162.753,1.813L5.166,1.813L5.166,0.574L3.536,0.574L3.536,1.813L1.156,1.813C-0.034,1.813 -0.996,2.775 -0.996,3.965C-0.996,5.155 -0.034,6.117 1.156,6.117L3.536,6.117L3.536,7.356L5.166,7.356L5.166,6.117L162.753,6.117L162.753,7.356L164.383,7.356L164.383,6.117L168.295,6.117C169.485,6.117 170.447,5.155 170.447,3.965C170.447,2.775 169.485,1.813 168.295,1.813Z" fill="#FFFFFF"/>
<path d="M13.74,0.004L12.338,0.004L12.338,11.187L13.74,11.187L13.74,0.004Z" fill="#ACBED4"/>
<path d="M25.232,0.004L23.83,0.004L23.83,11.187L25.232,11.187L25.232,0.004Z" fill="#ACBED4"/>
<path d="M36.724,0.004L35.322,0.004L35.322,11.187L36.724,11.187L36.724,0.004Z" fill="#ACBED4"/>
<path d="M48.218,0.004L46.816,0.004L46.816,11.187L48.218,11.187L48.218,0.004Z" fill="#ACBED4"/>
<path d="M59.711,0.004L58.309,0.004L58.309,11.187L59.711,11.187L59.711,0.004Z" fill="#ACBED4"/>
<path d="M70.468,0.004L69.066,0.004L69.066,11.187L70.468,11.187L70.468,0.004Z" fill="#ACBED4"/>
<path d="M80.283,0.004L78.881,0.004L78.881,11.187L80.283,11.187L80.283,0.004Z" fill="#ACBED4"/>
<path d="M75.717,8.414L11.375,8.414C11.375,8.414 10.25,44.669 11.179,64.442C12.663,96.507 15.695,111.554 15.695,111.554L17.146,116.819C17.146,116.819 14.113,134.963 13.005,143.211C10.25,163.588 10.25,171.935 10.25,171.935C10.25,171.935 10.951,170.842 12.043,170.272C13.298,169.62 15.45,170.614 16.119,172.244C18.759,178.7 21.123,178.716 24.22,177.151C31.638,173.369 31.523,165.822 35.094,168.462C35.925,169.066 36.251,169.815 36.349,170.598C36.61,168.234 35.142,152.976 33.072,145.787C31.002,138.582 27.693,121.742 27.693,121.742L28.899,120.52C28.899,120.52 33.235,132.061 36.218,140.766C39.202,149.455 41.516,167.126 41.109,171.331C40.913,173.402 41.207,174.853 41.549,175.782C43.375,174.901 48.298,171.739 48.298,171.739C48.298,171.739 47.548,158.421 42.592,141.581C40.277,133.708 34.816,124.595 31.752,120.52C31.801,119.607 33.887,114.488 33.887,114.488C33.887,114.488 53.531,111.163 66.572,81.95C78.227,55.819 83.069,8.447 83.069,8.447L75.684,8.447L75.717,8.414Z" fill="url(#pf_0_1_1583)"/>
<path d="M66.589,21.262C66.589,21.262 72.001,43.595 68.088,60.19C60.345,92.989 44.875,99.851 44.875,99.851C44.875,99.851 59.318,79.605 63.801,58.494C68.284,37.368 66.589,21.262 66.589,21.262Z" fill="#FFFFFF" fill-opacity="0.1"/>
<path d="M54.64,11.414C54.64,11.414 58.047,21.456 57.492,35.426C56.922,49.397 53.71,66.872 51.787,73.833C49.032,83.809 44.875,89.531 44.875,89.531C44.875,89.531 52.194,65.894 54.232,44.702C56.27,23.51 54.64,11.414 54.64,11.414Z" fill="#FFFFFF" fill-opacity="0.1"/>
<path d="M25.706,121.824C25.706,121.824 25.706,128.443 25.037,134.36C23.75,145.755 21.973,153.107 21.973,153.107L21.973,122.33L25.706,121.824Z" fill="#FFFFFF" fill-opacity="0.1"/>
<path d="M28.917,120.505C28.917,120.505 35.323,140.866 37.54,148.674C39.757,156.483 40.165,162.759 40.165,162.759C40.165,162.759 40.654,148.625 38.583,140.474C36.497,132.324 30.205,119.82 30.205,119.82L28.9,120.505L28.917,120.505Z" fill="#FFFFFF" fill-opacity="0.1"/>
<path d="M20.717,120.505C20.717,120.505 20.668,126.487 20.717,132.861C20.75,136.725 21.874,155.96 21.874,155.96C21.874,155.96 23.602,147.272 23.179,138.224C22.918,132.714 22.934,121.988 22.934,121.988L20.733,120.488L20.717,120.505Z" fill="#000000" fill-opacity="0.1"/>
<path d="M44.354,12.098C44.354,12.098 44.354,44.277 38.045,87.264C36.937,94.877 30.318,114.161 25.705,119.818C32.715,113.2 37.393,99.506 40.23,88.487C49.391,52.835 44.354,12.098 44.354,12.098Z" fill="#000000" fill-opacity="0.1"/>
<path d="M26.829,99.313C26.829,99.313 24.286,115.304 21.971,118.369C20.488,120.342 23.601,119.38 23.601,119.38C23.601,119.38 27.432,111.555 26.829,99.313Z" fill="#000000" fill-opacity="0.1"/>
<path d="M20.7,51.809C18.972,67.833 21.971,87.688 21.531,112.043C26.047,94.372 21.971,62.828 20.7,51.809Z" fill="#000000" fill-opacity="0.1"/>
<path d="M67.34,11.188C67.34,11.188 65.351,41.101 62.873,54.876C61.096,64.803 51.984,90.951 42.35,103.177C52.538,96.787 63.167,69.482 65.71,55.707C70.095,31.988 67.34,11.204 67.34,11.204L67.34,11.188Z" fill="#000000" fill-opacity="0.1"/>
<path d="M30.318,11.188C28.493,22.908 28.199,51.224 28.215,65.488C31.166,55.463 32.177,28.369 30.318,11.188Z" fill="#000000" fill-opacity="0.1"/>
<path d="M54.64,11.414C54.509,23.657 53.303,37.871 52.472,50.081C51.771,60.286 44.354,90.965 44.354,90.965C44.354,90.965 52.195,70.654 54.232,51.662C55.292,41.816 56.987,21.13 54.64,11.43L54.64,11.414Z" fill="#000000" fill-opacity="0.1"/>
<path d="M30.693,146.586C30.693,146.586 31.411,155.356 31.769,158.307C32.112,161.257 33.367,165.235 33.367,165.235C33.367,165.235 33.856,160.54 33.497,157.492C33.139,154.427 30.71,146.586 30.71,146.586L30.693,146.586Z" fill="#FFFFFF" fill-opacity="0.1"/>
<path d="M37.703,34.074C37.703,34.074 35.176,61.2 33.904,70.361C32.633,79.523 28.916,98.302 28.916,98.302C28.916,98.302 34.475,81.968 36.708,67.509C38.941,53.049 37.703,34.074 37.703,34.074Z" fill="#FFFFFF" fill-opacity="0.1"/>
<path d="M23.243,121.776C21.173,121.206 19.217,118.891 19.021,117.261C20.162,118.842 24.89,120.423 28.003,119.576C29.764,118.81 31.704,117.571 32.519,115.272C31.051,115.941 28.443,116.739 24.792,116.234C19.592,115.517 16.021,112.762 16.021,112.762C16.021,112.762 16.136,118.402 17.277,119.837C20.178,123.488 23.341,124.939 28.916,122.657C30.399,122.054 31.443,120.945 32.176,119.755C29.796,121.662 26.226,122.624 23.243,121.809L23.243,121.776Z" fill="#293160"/>
<path d="M32.519,115.256C31.72,117.555 29.764,118.794 28.004,119.56C24.89,120.424 20.163,118.843 19.021,117.245C19.233,118.875 21.173,121.207 23.244,121.761C26.227,122.576 29.797,121.614 32.177,119.707C33.677,117.278 33.905,114.441 33.905,114.441C33.905,114.441 33.432,114.816 32.519,115.24L32.519,115.256Z" fill="#335B8D"/>
<path d="M15.045,12.098C15.045,12.098 13.578,26.753 13.496,37.137C13.414,47.521 16.039,75.445 16.039,75.445C16.039,75.445 16.186,45.499 16.039,33.061C15.876,20.64 15.061,12.098 15.061,12.098L15.045,12.098Z" fill="#FFFFFF" fill-opacity="0.1"/>
<path d="M153.297,0.005L151.895,0.005L151.895,11.187L153.297,11.187L153.297,0.005Z" transform="rotate(360 152.596 5.596)" fill="#ACBED4"/>
<path d="M141.789,0.005L140.387,0.005L140.387,11.187L141.789,11.187L141.789,0.005Z" transform="rotate(360 141.088 5.596)" fill="#ACBED4"/>
<path d="M130.295,0.005L128.893,0.005L128.893,11.187L130.295,11.187L130.295,0.005Z" transform="rotate(360 129.594 5.596)" fill="#ACBED4"/>
<path d="M118.803,0.005L117.401,0.005L117.401,11.187L118.803,11.187L118.803,0.005Z" transform="rotate(360 118.102 5.596)" fill="#ACBED4"/>
<path d="M107.311,0.005L105.909,0.005L105.909,11.187L107.311,11.187L107.311,0.005Z" transform="rotate(360 106.61 5.596)" fill="#ACBED4"/>
<path d="M96.568,0.005L95.166,0.005L95.166,11.187L96.568,11.187L96.568,0.005Z" transform="rotate(360 95.867 5.596)" fill="#ACBED4"/>
<path d="M86.738,0.005L85.336,0.005L85.336,11.187L86.738,11.187L86.738,0.005Z" transform="rotate(360 86.037 5.596)" fill="#ACBED4"/>
<path d="M89.916,8.418L154.259,8.418C154.259,8.418 155.383,44.673 154.454,64.446C152.971,96.511 149.939,111.558 149.939,111.558L148.488,116.823C148.488,116.823 151.52,134.967 152.628,143.215C155.383,163.592 155.383,171.939 155.383,171.939C155.383,171.939 154.682,170.846 153.59,170.276C152.335,169.624 150.183,170.618 149.515,172.248C146.874,178.704 144.51,178.72 141.413,177.155C133.996,173.373 134.11,165.826 130.54,168.466C129.708,169.07 129.382,169.819 129.285,170.602C129.024,168.238 130.491,152.98 132.561,145.791C134.631,138.586 137.941,121.746 137.941,121.746L136.734,120.524C136.734,120.524 132.398,132.065 129.415,140.77C126.432,149.459 124.117,167.13 124.525,171.335C124.72,173.406 124.427,174.857 124.084,175.786C122.259,174.905 117.336,171.743 117.336,171.743C117.336,171.743 118.085,158.425 123.041,141.585C125.356,133.712 130.817,124.599 133.882,120.524C133.833,119.611 131.746,114.492 131.746,114.492C131.746,114.492 112.103,111.167 99.062,81.954C87.406,55.823 82.564,8.451 82.564,8.451L89.949,8.451L89.916,8.418Z" fill="url(#pf_0_1_1612)"/>
<path d="M99.029,21.262C99.029,21.262 93.617,43.595 97.53,60.19C105.273,92.989 120.743,99.851 120.743,99.851C120.743,99.851 106.3,79.605 101.817,58.494C97.334,37.368 99.029,21.262 99.029,21.262Z" fill="#FFFFFF" fill-opacity="0.1"/>
<path d="M110.978,11.414C110.978,11.414 107.571,21.456 108.125,35.426C108.696,49.397 111.907,66.872 113.831,73.833C116.586,83.809 120.743,89.531 120.743,89.531C120.743,89.531 113.423,65.894 111.386,44.702C109.348,23.51 110.978,11.414 110.978,11.414Z" fill="#FFFFFF" fill-opacity="0.1"/>
<path d="M139.914,121.824C139.914,121.824 139.914,128.443 140.582,134.36C141.87,145.755 143.647,153.107 143.647,153.107L143.647,122.33L139.914,121.824Z" fill="#FFFFFF" fill-opacity="0.1"/>
<path d="M136.718,120.505C136.718,120.505 130.312,140.866 128.095,148.674C125.878,156.483 125.47,162.759 125.47,162.759C125.47,162.759 124.981,148.625 127.052,140.474C129.122,132.324 135.431,119.82 135.431,119.82L136.735,120.505L136.718,120.505Z" fill="#FFFFFF" fill-opacity="0.1"/>
<path d="M144.902,120.505C144.902,120.505 144.95,126.487 144.902,132.861C144.869,136.725 143.744,155.96 143.744,155.96C143.744,155.96 142.016,147.272 142.44,138.224C142.701,132.714 142.684,121.988 142.684,121.988L144.885,120.488L144.902,120.505Z" fill="#000000" fill-opacity="0.1"/>
<path d="M121.281,12.102C121.281,12.102 121.281,44.281 127.59,87.268C128.699,94.881 135.317,114.165 139.93,119.822C132.921,113.204 128.242,99.51 125.422,88.491C116.26,52.839 121.298,12.102 121.298,12.102L121.281,12.102Z" fill="#000000" fill-opacity="0.1"/>
<path d="M138.805,99.313C138.805,99.313 141.348,115.304 143.662,118.369C145.146,120.342 142.032,119.38 142.032,119.38C142.032,119.38 138.201,111.555 138.805,99.313Z" fill="#000000" fill-opacity="0.1"/>
<path d="M144.917,51.809C146.645,67.833 143.646,87.688 144.086,112.043C139.571,94.372 143.646,62.828 144.917,51.809Z" fill="#000000" fill-opacity="0.1"/>
<path d="M98.28,11.188C98.28,11.188 100.269,41.101 102.747,54.876C104.523,64.803 113.636,90.951 123.27,103.177C113.082,96.787 102.453,69.482 99.91,55.707C95.525,31.988 98.28,11.204 98.28,11.204L98.28,11.188Z" fill="#000000" fill-opacity="0.1"/>
<path d="M135.316,11.188C137.142,22.908 137.435,51.224 137.419,65.488C134.468,55.463 133.458,28.369 135.316,11.188Z" fill="#000000" fill-opacity="0.1"/>
<path d="M110.977,11.414C111.108,23.657 112.314,37.871 113.145,50.081C113.846,60.286 121.263,90.965 121.263,90.965C121.263,90.965 113.422,70.654 111.385,51.662C110.325,41.816 108.63,21.13 110.977,11.43L110.977,11.414Z" fill="#000000" fill-opacity="0.1"/>
<path d="M134.926,146.586C134.926,146.586 134.208,155.356 133.85,158.307C133.491,161.257 132.252,165.235 132.252,165.235C132.252,165.235 131.763,160.54 132.122,157.492C132.48,154.427 134.909,146.586 134.909,146.586L134.926,146.586Z" fill="#FFFFFF" fill-opacity="0.1"/>
<path d="M127.915,34.074C127.915,34.074 130.442,61.2 131.713,70.361C132.985,79.523 136.702,98.302 136.702,98.302C136.702,98.302 131.143,81.968 128.909,67.509C126.676,53.049 127.915,34.074 127.915,34.074Z" fill="#FFFFFF" fill-opacity="0.1"/>
<path d="M142.375,121.776C144.445,121.206 146.402,118.891 146.597,117.261C145.456,118.842 140.729,120.423 137.615,119.576C135.855,118.81 133.915,117.571 133.1,115.272C134.567,115.941 137.175,116.739 140.827,116.234C146.027,115.517 149.597,112.762 149.597,112.762C149.597,112.762 149.483,118.402 148.342,119.837C145.44,123.488 142.277,124.939 136.702,122.657C135.219,122.054 134.176,120.945 133.442,119.755C135.822,121.662 139.392,122.624 142.375,121.809L142.375,121.776Z" fill="#293160"/>
<path d="M133.116,115.256C133.915,117.555 135.871,118.794 137.632,119.56C140.745,120.424 145.473,118.843 146.614,117.245C146.402,118.875 144.462,121.207 142.392,121.761C139.408,122.576 135.838,121.614 133.458,119.707C131.959,117.278 131.73,114.441 131.73,114.441C131.73,114.441 132.203,114.816 133.116,115.24L133.116,115.256Z" fill="#335B8D"/>
<path d="M150.59,12.102C150.59,12.102 152.057,26.757 152.139,37.141C152.22,47.525 149.596,75.449 149.596,75.449C149.596,75.449 149.449,45.503 149.612,33.065C149.775,20.644 150.59,12.102 150.59,12.102Z" fill="#FFFFFF" fill-opacity="0.1"/>
<defs>
<linearGradient id="pf_0_1_1583" x1="189.665" y1="93.212" x2="10.25" y2="93.212" gradientUnits="userSpaceOnUse">
<stop stop-color="#00E213"/>
<stop offset="1" stop-color="#01B5CF"/>
</linearGradient>
<linearGradient id="pf_0_1_1612" x1="261.98" y1="93.216" x2="82.564" y2="93.216" gradientUnits="userSpaceOnUse">
<stop stop-color="#00E213"/>
<stop offset="1" stop-color="#01B5CF"/>
</linearGradient>
</defs>
</svg>
