<svg width="50" height="48" viewBox="0 0 50 48" fill="none" xmlns="http://www.w3.org/2000/svg" xmlns:xlink="http://www.w3.org/1999/xlink">
<path d="M17.305,14.992C17.234,15.817 17.846,16.544 18.671,16.615C19.496,16.686 20.223,16.075 20.294,15.249L17.305,14.992ZM20.313,32.941C20.236,32.116 19.505,31.51 18.681,31.587C17.856,31.664 17.249,32.395 17.326,33.22L20.313,32.941ZM20.294,15.249C20.585,11.873 21.569,9.798 23.15,8.515C24.772,7.199 27.307,6.48 31.22,6.48L31.22,3.48C27.032,3.48 23.667,4.232 21.26,6.186C18.811,8.173 17.635,11.168 17.305,14.992L20.294,15.249ZM31.22,6.48L31.48,6.48L31.48,3.48L31.22,3.48L31.22,6.48ZM31.48,6.48C35.801,6.48 38.438,7.355 40.032,8.949C41.625,10.542 42.5,13.179 42.5,17.5L45.5,17.5C45.5,12.882 44.584,9.259 42.153,6.827C39.722,4.396 36.098,3.48 31.48,3.48L31.48,6.48ZM42.5,17.5L42.5,30.54L45.5,30.54L45.5,17.5L42.5,17.5ZM42.5,30.54C42.5,34.862 41.625,37.499 40.032,39.092C38.438,40.686 35.801,41.56 31.48,41.56L31.48,44.56C36.098,44.56 39.722,43.645 42.153,41.214C44.584,38.782 45.5,35.159 45.5,30.54L42.5,30.54ZM31.48,41.56L31.22,41.56L31.22,44.56L31.48,44.56L31.48,41.56ZM31.22,41.56C27.337,41.56 24.811,40.852 23.189,39.554C21.611,38.291 20.622,36.252 20.313,32.941L17.326,33.22C17.678,36.989 18.869,39.94 21.315,41.897C23.718,43.819 27.063,44.56 31.22,44.56L31.22,41.56Z" fill="#F44336"/>
<line x1="8.24" y1="22.5" x2="31" y2="22.5" stroke="#F44336" stroke-width="1.5" stroke-miterlimit="3.999327" stroke-linecap="round" stroke-linejoin="round"/>
<path d="M13.761,18.361C14.346,17.776 14.346,16.826 13.761,16.24C13.175,15.654 12.225,15.654 11.639,16.24L13.761,18.361ZM6,24.001L4.939,22.94C4.354,23.526 4.354,24.476 4.939,25.061L6,24.001ZM11.639,31.761C12.225,32.347 13.175,32.347 13.761,31.761C14.346,31.176 14.346,30.226 13.761,29.64L11.639,31.761ZM11.639,16.24L4.939,22.94L7.061,25.061L13.761,18.361L11.639,16.24ZM4.939,25.061L11.639,31.761L13.761,29.64L7.061,22.94L4.939,25.061Z" fill="#F44336"/>
</svg>
