<svg width="48" height="48" viewBox="0 0 48 48" fill="none" xmlns="http://www.w3.org/2000/svg">
<path d="M27.263 20.632C28.215 20.632 28.9804 20.926 29.559 21.514C30.147 22.0927 30.441 22.9047 30.441 23.95V28.5H28.481V24.216C28.481 23.6093 28.327 23.1473 28.019 22.83C27.711 22.5033 27.291 22.34 26.759 22.34C26.227 22.34 25.8024 22.5033 25.485 22.83C25.177 23.1473 25.023 23.6093 25.023 24.216V28.5H23.063V24.216C23.063 23.6093 22.909 23.1473 22.601 22.83C22.293 22.5033 21.873 22.34 21.341 22.34C20.7997 22.34 20.3704 22.5033 20.053 22.83C19.745 23.1473 19.591 23.6093 19.591 24.216V28.5H17.631V20.744H19.591V21.682C19.843 21.3553 20.165 21.0987 20.557 20.912C20.9584 20.7253 21.397 20.632 21.873 20.632C22.4797 20.632 23.021 20.7627 23.497 21.024C23.973 21.276 24.3417 21.64 24.603 22.116C24.855 21.668 25.219 21.3087 25.695 21.038C26.1804 20.7673 26.703 20.632 27.263 20.632Z" fill="#7586B6"/>
</svg>
