<svg width="48" height="48" viewBox="0 0 48 48" fill="none" xmlns="http://www.w3.org/2000/svg">
<g clip-path="url(#clip0_2424_10680)">
<rect width="48" height="48" rx="16" fill="#C0C9E2"/>
<path d="M24 12C18.784 12 14.5556 16.2312 14.5556 21.4507C14.5556 26.6703 18.784 30.9015 24 30.9015C29.216 30.9015 33.4444 26.6703 33.4444 21.4507C33.4444 16.2312 29.216 12 24 12Z" fill="white"/>
<path d="M29.5735 35.106C25.8812 34.5164 22.1188 34.5164 18.4265 35.106L18.0307 35.1692C12.8282 36.0001 9 40.4907 9 45.7626C9 48.6081 10.8985 49.6838 13.7421 49.6838C21.6209 51.4771 25.9271 51.4 33.4444 49.6838C36.2881 49.6838 39 48.6081 39 45.7626C39 40.4907 35.1718 36.0001 29.9693 35.1692L29.5735 35.106Z" fill="white"/>
</g>
<defs>
<clipPath id="clip0_2424_10680">
<rect width="48" height="48" rx="16" fill="white"/>
</clipPath>
</defs>
</svg>
