<svg width="80" height="80" viewBox="0 0 80 80" fill="none" xmlns="http://www.w3.org/2000/svg">
<g filter="url(#filter0_d_1919_25096)">
<rect x="16" y="12" width="48" height="48" rx="16" fill="url(#paint0_linear_1919_25096)" shape-rendering="crispEdges"/>
<path d="M34.0278 32.6326L34.7517 32.8287L34.7517 32.8287L34.0278 32.6326ZM38.1584 28.3022L37.9271 27.5888L38.1584 28.3022ZM33.983 32.798L33.2591 32.6019L33.2591 32.6019L33.983 32.798ZM33.7896 36.8674L34.5288 36.7409V36.7409L33.7896 36.8674ZM33.8121 36.9989L33.0728 37.1255L33.0728 37.1255L33.8121 36.9989ZM34.2876 41.4572L34.4373 40.7223L34.2876 41.4572ZM34.6552 41.5321L34.8049 40.7971H34.8049L34.6552 41.5321ZM45.3448 41.5321L45.1951 40.7971H45.1951L45.3448 41.5321ZM45.7124 41.4572L45.8621 42.1921L45.7124 41.4572ZM46.1922 36.9737L46.9315 37.1003V37.1003L46.1922 36.9737ZM46.2161 36.8343L45.4769 36.7077V36.7077L46.2161 36.8343ZM46.0417 32.8262L45.3163 33.0166V33.0166L46.0417 32.8262ZM45.9793 32.5883L46.7047 32.398V32.398L45.9793 32.5883ZM41.9671 28.3084L42.2023 27.5962V27.5962L41.9671 28.3084ZM46.353 37.3008L45.9868 37.9553L46.353 37.3008ZM33.668 37.2892L33.3088 36.6308L33.668 37.2892ZM40.75 27C40.75 26.5858 40.4142 26.25 40 26.25C39.5858 26.25 39.25 26.5858 39.25 27H40.75ZM39.25 28.0047C39.25 28.419 39.5858 28.7547 40 28.7547C40.4142 28.7547 40.75 28.419 40.75 28.0047H39.25ZM37.0091 41.9034L37.0929 41.1581L36.1956 41.0572L36.2611 41.9578L37.0091 41.9034ZM42.9909 41.9034L43.7389 41.9578L43.8044 41.0572L42.9071 41.1581L42.9909 41.9034ZM42.9001 42.4772L43.6285 42.6563L42.9001 42.4772ZM42.8182 42.8106L42.0899 42.6315L42.8182 42.8106ZM40.7039 44.917L40.8784 45.6464H40.8784L40.7039 44.917ZM39.2961 44.917L39.1216 45.6464H39.1216L39.2961 44.917ZM37.1818 42.8106L36.4535 42.9896L37.1818 42.8106ZM37.0999 42.4772L37.8282 42.2981H37.8282L37.0999 42.4772ZM34.7517 32.8287C35.2392 31.0293 36.6205 29.5891 38.3896 29.0157L37.9271 27.5888C35.6795 28.3173 33.925 30.1442 33.3039 32.4364L34.7517 32.8287ZM34.7069 32.9942L34.7517 32.8287L33.3039 32.4364L33.2591 32.6019L34.7069 32.9942ZM34.5288 36.7409C34.3153 35.4939 34.3761 34.215 34.7069 32.9942L33.2591 32.6019C32.8713 34.0331 32.8 35.5322 33.0503 36.994L34.5288 36.7409ZM34.5513 36.8723L34.5288 36.7409L33.0503 36.994L33.0728 37.1255L34.5513 36.8723ZM33.25 39.2604C33.25 38.6932 33.5638 38.2003 34.0271 37.9476L33.3088 36.6308C32.3807 37.137 31.75 38.1251 31.75 39.2604H33.25ZM34.4373 40.7223C33.7489 40.582 33.25 39.9725 33.25 39.2604H31.75C31.75 40.6807 32.7462 41.9085 34.1379 42.1921L34.4373 40.7223ZM34.8049 40.7971L34.4373 40.7223L34.1379 42.1921L34.5055 42.267L34.8049 40.7971ZM45.1951 40.7971C41.7666 41.4956 38.2334 41.4956 34.8049 40.7971L34.5055 42.267C38.1316 43.0057 41.8684 43.0057 45.4945 42.267L45.1951 40.7971ZM45.5627 40.7223L45.1951 40.7971L45.4945 42.267L45.8621 42.1921L45.5627 40.7223ZM46.75 39.2604C46.75 39.9725 46.2511 40.582 45.5627 40.7223L45.8621 42.1921C47.2538 41.9085 48.25 40.6807 48.25 39.2604H46.75ZM45.9868 37.9553C46.4425 38.2103 46.75 38.6989 46.75 39.2604H48.25C48.25 38.1365 47.6319 37.157 46.7192 36.6463L45.9868 37.9553ZM45.4769 36.7077L45.453 36.8471L46.9315 37.1003L46.9554 36.9608L45.4769 36.7077ZM45.3163 33.0166C45.6323 34.2211 45.6871 35.4799 45.4769 36.7077L46.9554 36.9608C47.2017 35.5223 47.1375 34.0474 46.7672 32.6359L45.3163 33.0166ZM45.2539 32.7787L45.3163 33.0166L46.7672 32.6359L46.7047 32.398L45.2539 32.7787ZM41.7319 29.0205C43.4622 29.592 44.7887 31.0057 45.2539 32.7787L46.7047 32.398C46.1113 30.1359 44.4174 28.3278 42.2023 27.5962L41.7319 29.0205ZM38.3896 29.0157C39.474 28.6642 40.6528 28.6642 41.7319 29.0205L42.2023 27.5962C40.8171 27.1387 39.3114 27.14 37.9271 27.5888L38.3896 29.0157ZM46.7192 36.6463C46.8626 36.7265 46.966 36.8988 46.9315 37.1003L45.453 36.8471C45.3735 37.3114 45.6116 37.7453 45.9868 37.9553L46.7192 36.6463ZM33.0728 37.1255C33.0358 36.9092 33.1471 36.719 33.3088 36.6308L34.0271 37.9476C34.3967 37.746 34.6284 37.3228 34.5513 36.8723L33.0728 37.1255ZM39.25 27V28.0047H40.75V27H39.25ZM36.9253 42.6487C38.9687 42.8784 41.0313 42.8784 43.0747 42.6487L42.9071 41.1581C40.9751 41.3753 39.0249 41.3753 37.0929 41.1581L36.9253 42.6487ZM43.6285 42.6563C43.6849 42.4268 43.7218 42.1932 43.7389 41.9578L42.2429 41.849C42.2319 42.0003 42.2081 42.1506 42.1718 42.2981L43.6285 42.6563ZM43.5465 42.9896L43.6285 42.6563L42.1718 42.2981L42.0899 42.6315L43.5465 42.9896ZM40.8784 45.6464C42.1945 45.3315 43.223 44.3052 43.5465 42.9896L42.0899 42.6315C41.8997 43.4047 41.2965 44.004 40.5294 44.1875L40.8784 45.6464ZM39.1216 45.6464C39.6991 45.7845 40.3009 45.7845 40.8784 45.6464L40.5294 44.1875C40.1813 44.2708 39.8187 44.2708 39.4706 44.1875L39.1216 45.6464ZM36.4535 42.9896C36.777 44.3052 37.8055 45.3315 39.1216 45.6464L39.4706 44.1875C38.7035 44.004 38.1003 43.4047 37.9101 42.6315L36.4535 42.9896ZM36.3715 42.6563L36.4535 42.9896L37.9101 42.6315L37.8282 42.2981L36.3715 42.6563ZM36.2611 41.9578C36.2782 42.1932 36.3151 42.4268 36.3715 42.6563L37.8282 42.2981C37.7919 42.1506 37.7681 42.0003 37.7571 41.849L36.2611 41.9578Z" fill="white"/>
</g>
<defs>
<filter id="filter0_d_1919_25096" x="0" y="0" width="80" height="80" filterUnits="userSpaceOnUse" color-interpolation-filters="sRGB">
<feFlood flood-opacity="0" result="BackgroundImageFix"/>
<feColorMatrix in="SourceAlpha" type="matrix" values="0 0 0 0 0 0 0 0 0 0 0 0 0 0 0 0 0 0 127 0" result="hardAlpha"/>
<feOffset dy="4"/>
<feGaussianBlur stdDeviation="8"/>
<feComposite in2="hardAlpha" operator="out"/>
<feColorMatrix type="matrix" values="0 0 0 0 0.00784314 0 0 0 0 0.717647 0 0 0 0 0.792157 0 0 0 0.2 0"/>
<feBlend mode="normal" in2="BackgroundImageFix" result="effect1_dropShadow_1919_25096"/>
<feBlend mode="normal" in="SourceGraphic" in2="effect1_dropShadow_1919_25096" result="shape"/>
</filter>
<linearGradient id="paint0_linear_1919_25096" x1="134.265" y1="36" x2="16" y2="36" gradientUnits="userSpaceOnUse">
<stop stop-color="#00E213"/>
<stop offset="1" stop-color="#01B5CF"/>
</linearGradient>
</defs>
</svg>
