<svg width="104" height="104" viewBox="0 0 104 104" fill="none" xmlns="http://www.w3.org/2000/svg">
<g filter="url(#filter0_d_212_2706)">
<rect x="14" y="10" width="76" height="76" rx="24" fill="url(#paint0_linear_212_2706)" shape-rendering="crispEdges"/>
<path d="M59.0667 31.3335H44.9334C40.3334 31.3335 38.6667 33.0002 38.6667 37.6835V58.3168C38.6667 63.0002 40.3334 64.6668 44.9334 64.6668H59.0501C63.6667 64.6668 65.3334 63.0002 65.3334 58.3168V37.6835C65.3334 33.0002 63.6667 31.3335 59.0667 31.3335Z" fill="white" fill-opacity="0.4"/>
<path opacity="0.9" fill-rule="evenodd" clip-rule="evenodd" d="M48.6667 38.4165H55.3334C56.0167 38.4165 56.5834 37.8498 56.5834 37.1665C56.5834 36.4832 56.0167 35.9165 55.3334 35.9165H48.6667C47.9834 35.9165 47.4167 36.4832 47.4167 37.1665C47.4167 37.8498 47.9834 38.4165 48.6667 38.4165ZM54.9167 57.2498C54.9167 58.8607 53.6109 60.1665 52.0001 60.1665C50.3893 60.1665 49.0834 58.8607 49.0834 57.2498C49.0834 55.639 50.3893 54.3332 52.0001 54.3332C53.6109 54.3332 54.9167 55.639 54.9167 57.2498Z" fill="white"/>
</g>
<defs>
<filter id="filter0_d_212_2706" x="0" y="0" width="104" height="104" filterUnits="userSpaceOnUse" color-interpolation-filters="sRGB">
<feFlood flood-opacity="0" result="BackgroundImageFix"/>
<feColorMatrix in="SourceAlpha" type="matrix" values="0 0 0 0 0 0 0 0 0 0 0 0 0 0 0 0 0 0 127 0" result="hardAlpha"/>
<feOffset dy="4"/>
<feGaussianBlur stdDeviation="7"/>
<feComposite in2="hardAlpha" operator="out"/>
<feColorMatrix type="matrix" values="0 0 0 0 0.00392157 0 0 0 0 0.807843 0 0 0 0 0.411765 0 0 0 0.2 0"/>
<feBlend mode="normal" in2="BackgroundImageFix" result="effect1_dropShadow_212_2706"/>
<feBlend mode="normal" in="SourceGraphic" in2="effect1_dropShadow_212_2706" result="shape"/>
</filter>
<linearGradient id="paint0_linear_212_2706" x1="201.253" y1="48" x2="14" y2="48" gradientUnits="userSpaceOnUse">
<stop stop-color="#00E213"/>
<stop offset="1" stop-color="#01B5CF"/>
</linearGradient>
</defs>
</svg>
