<svg width="48" height="49" viewBox="0 0 48 49" fill="none" xmlns="http://www.w3.org/2000/svg">
<path fill-rule="evenodd" clip-rule="evenodd" d="M21.0298 15.6833C22.9834 15.225 25.0166 15.225 26.9703 15.6833C29.7916 16.3451 31.9946 18.548 32.6564 21.3694C33.1146 23.323 33.1146 25.3562 32.6564 27.3099C31.9946 30.1312 29.7916 32.3342 26.9703 32.996C25.0166 33.4542 22.9834 33.4542 21.0298 32.996C18.2084 32.3342 16.0055 30.1312 15.3437 27.3099C14.8854 25.3562 14.8854 23.323 15.3437 21.3694C16.0055 18.548 18.2084 16.3451 21.0298 15.6833ZM24.6 21.9464C24.6 21.615 24.3314 21.3464 24 21.3464C23.6686 21.3464 23.4 21.615 23.4 21.9464V23.7396H21.6068C21.2754 23.7396 21.0068 24.0082 21.0068 24.3396C21.0068 24.671 21.2754 24.9396 21.6068 24.9396H23.4V26.7328C23.4 27.0642 23.6686 27.3328 24 27.3328C24.3314 27.3328 24.6 27.0642 24.6 26.7328V24.9396H26.3932C26.7246 24.9396 26.9932 24.671 26.9932 24.3396C26.9932 24.0082 26.7246 23.7396 26.3932 23.7396H24.6V21.9464Z" fill="#02295A"/>
</svg>
