<svg width="48" height="48" viewBox="0 0 48 48" fill="none" xmlns="http://www.w3.org/2000/svg">
<g clip-path="url(#clip0_1596_2731)">
<path d="M26.2252 21.9313L21.1652 26.9913C20.5152 26.3413 20.1152 25.4513 20.1152 24.4613C20.1152 22.4813 21.7152 20.8813 23.6952 20.8813C24.6852 20.8813 25.5752 21.2813 26.2252 21.9313Z" stroke="#5569A4" stroke-width="1.5" stroke-linecap="round" stroke-linejoin="round"/>
<path d="M29.5152 18.2314C27.7652 16.9114 25.7652 16.1914 23.6952 16.1914C20.1652 16.1914 16.8752 18.2714 14.5852 21.8714C13.6852 23.2814 13.6852 25.6514 14.5852 27.0614C15.3752 28.3014 16.2952 29.3714 17.2952 30.2314" stroke="#5569A4" stroke-width="1.5" stroke-linecap="round" stroke-linejoin="round"/>
<path d="M20.1152 31.9914C21.2552 32.4714 22.4652 32.7314 23.6952 32.7314C27.2252 32.7314 30.5152 30.6514 32.8052 27.0514C33.7052 25.6414 33.7052 23.2714 32.8052 21.8614C32.4752 21.3414 32.1152 20.8514 31.7452 20.3914" stroke="#5569A4" stroke-width="1.5" stroke-linecap="round" stroke-linejoin="round"/>
<path d="M27.2057 25.1614C26.9457 26.5714 25.7957 27.7214 24.3857 27.9814" stroke="#5569A4" stroke-width="1.5" stroke-linecap="round" stroke-linejoin="round"/>
<path d="M21.1653 26.9915L13.6953 34.4615" stroke="#5569A4" stroke-width="1.5" stroke-linecap="round" stroke-linejoin="round"/>
<path d="M33.6956 14.4614L26.2256 21.9314" stroke="#5569A4" stroke-width="1.5" stroke-linecap="round" stroke-linejoin="round"/>
</g>
<defs>
<clipPath id="clip0_1596_2731">
<rect width="24" height="24" fill="white" transform="translate(12 12)"/>
</clipPath>
</defs>
</svg>
