<svg width="16" height="18" viewBox="0 0 16 18" fill="none" xmlns="http://www.w3.org/2000/svg">
<path d="M15.8129 9.20921C14.1224 9.64438 12.0385 10.272 10.7832 11.5357C9.25172 13.084 8.69101 15.4356 8.19725 17.7789C8.14704 18.0048 7.83739 18.0048 7.78718 17.7789C7.38547 15.8959 6.86661 13.6447 5.77866 12.2471C4.38944 10.4729 2.25539 9.74481 0.163192 9.20921C-0.0543973 9.15063 -0.0543973 8.84935 0.163192 8.79913C1.99596 8.33048 4.09653 7.70282 5.41043 6.26338C6.77455 4.757 7.32689 2.40536 7.79555 0.221104C7.84576 -0.00485372 8.1554 -0.00485372 8.20562 0.221104C8.64079 2.27146 9.38562 4.59799 10.6242 6.05416C11.9716 7.63587 13.8713 8.28864 15.8212 8.79077C16.0305 8.84935 16.0305 9.15063 15.8129 9.20921Z" fill="url(#paint0_linear_1183_33746)"/>
<defs>
<linearGradient id="paint0_linear_1183_33746" x1="39.3653" y1="8.99998" x2="3.89365e-09" y2="8.99998" gradientUnits="userSpaceOnUse">
<stop stop-color="#00E213"/>
<stop offset="1" stop-color="#01B5CF"/>
</linearGradient>
</defs>
</svg>
