<svg width="48" height="49" viewBox="0 0 48 49" fill="none" xmlns="http://www.w3.org/2000/svg">
<path d="M31.8246 24.2608C30.1341 24.696 28.0503 25.3237 26.7949 26.5874C25.2634 28.1356 24.7027 30.4872 24.209 32.8305C24.1588 33.0565 23.8491 33.0565 23.7989 32.8305C23.3972 30.9475 22.8783 28.6963 21.7904 27.2987C20.4012 25.5245 18.2671 24.7964 16.1749 24.2608C15.9573 24.2023 15.9573 23.901 16.1749 23.8508C18.0077 23.3821 20.1083 22.7545 21.4222 21.315C22.7863 19.8086 23.3386 17.457 23.8073 15.2727C23.8575 15.0468 24.1671 15.0468 24.2173 15.2727C24.6525 17.3231 25.3973 19.6496 26.6359 21.1058C27.9833 22.6875 29.883 23.3403 31.833 23.8424C32.0422 23.901 32.0422 24.2023 31.8246 24.2608Z" fill="url(#paint0_linear_2179_25341)"/>
<defs>
<linearGradient id="paint0_linear_2179_25341" x1="55.377" y1="24.0516" x2="16.0117" y2="24.0516" gradientUnits="userSpaceOnUse">
<stop stop-color="#00E213"/>
<stop offset="1" stop-color="#01B5CF"/>
</linearGradient>
</defs>
</svg>
