<svg width="34" height="27" viewBox="0 0 34 27" fill="none" xmlns="http://www.w3.org/2000/svg">
<path d="M33.4354 9.49314L30.0131 11.6505C29.7648 11.7997 29.4714 11.8551 29.1858 11.8068C28.9002 11.7585 28.6413 11.6097 28.4559 11.3872L26.7558 9.25219V25.4403C26.7553 25.7212 26.6434 25.9904 26.4448 26.189C26.2462 26.3876 25.977 26.4994 25.6961 26.5H8.31668C8.0358 26.4994 7.7666 26.3876 7.56799 26.189C7.36939 25.9904 7.25755 25.7212 7.25696 25.4403V9.23434L5.54132 11.3872C5.35598 11.6092 5.09749 11.7576 4.81241 11.8059C4.52733 11.8541 4.23439 11.799 3.98632 11.6505L0.561745 9.49314C0.447297 9.42737 0.349454 9.33623 0.275734 9.22674C0.202015 9.11724 0.154383 8.9923 0.1365 8.86152C0.118617 8.73073 0.130959 8.59759 0.172578 8.47233C0.214196 8.34706 0.283982 8.233 0.376573 8.13892L5.38515 2.57929C5.97386 1.92487 6.69361 1.40157 7.49767 1.04336C8.30174 0.68514 9.17215 0.500016 10.0524 0.5H12.1384C12.5467 1.45265 13.2256 2.26456 14.0909 2.83511C14.9562 3.40565 15.9699 3.70977 17.0064 3.70977C18.0429 3.70977 19.0566 3.40565 19.9219 2.83511C20.7872 2.26456 21.4661 1.45265 21.8744 0.5H23.9582C24.8389 0.500263 25.7098 0.68571 26.5142 1.04431C27.3187 1.4029 28.0387 1.92664 28.6276 2.58152L33.6251 8.13669C33.7175 8.23128 33.787 8.34579 33.8283 8.47143C33.8696 8.59707 33.8815 8.73049 33.8632 8.86146C33.8449 8.99243 33.7968 9.11746 33.7227 9.22696C33.6485 9.33646 33.5503 9.42751 33.4354 9.49314Z" fill="white"/>
</svg>
