<svg width="183" height="182" viewBox="0 0 183 182" fill="none" xmlns="http://www.w3.org/2000/svg">
<circle cx="91.5" cy="91" r="91" fill="white"/>
<path d="M161.162 91.0004C161.162 129.474 129.973 160.663 91.4999 160.663C53.0264 160.663 21.8374 129.474 21.8374 91.0004C21.8374 52.5269 53.0264 21.3379 91.4999 21.3379C129.973 21.3379 161.162 52.5269 161.162 91.0004Z" fill="#E6EBF6" stroke="#02295A" stroke-width="4"/>
<circle opacity="0.5" cx="91.4999" cy="91.0004" r="51.1875" fill="#D9D9D9" stroke="black" stroke-width="6.825"/>
<circle cx="91.4999" cy="91.0004" r="52.6" fill="white" stroke="#02295A" stroke-width="4"/>
<path d="M82.3998 86.4494C62.8348 74.1644 46.4125 85.4683 40.1562 92.2933C40.1562 99.0706 41.0428 104.365 43 109.356C46.9556 119.442 49.9811 125.381 56.8061 130.499C92.9322 157.594 127.452 135.131 137.5 117.499C130.675 110.106 129.227 99.1514 129.037 95.5493C117.662 105.218 106.856 101.806 82.3998 86.4494Z" fill="#01B5CF"/>
<path d="M43 109.356C46.9556 119.442 49.9811 125.381 56.8061 130.499C92.9322 157.594 127.452 135.131 137.5 117.499C130.675 110.106 129.227 99.1514 129.037 95.5493C117.662 105.218 106.856 101.806 82.3998 86.4494C62.8348 74.1644 46.4125 85.4683 40.1562 92.2933C40.1562 99.0706 41.0428 104.365 43 109.356ZM43 109.356C45.1343 106.512 50.4361 100.213 56.8061 98.3933M68.1811 98.3933C71.7831 98.7725 81.7173 101.01 92.6373 106.925" stroke="#02295A" stroke-width="4" stroke-linecap="round"/>
<path d="M153.494 62.5391C139.411 66.299 129.038 79.1445 129.038 94.4128C129.038 108.281 137.595 120.15 149.718 125.028C156.474 115.376 166.689 89.3652 153.494 62.5391Z" fill="#E6EBF6" stroke="#02295A" stroke-width="4" stroke-linecap="round"/>
</svg>
