<svg width="25" height="24" viewBox="0 0 25 24" fill="none" xmlns="http://www.w3.org/2000/svg">
<path d="M3.85288 8.95043C4.50437 6.17301 6.67301 4.00437 9.45043 3.35288C11.4563 2.88237 13.5437 2.88237 15.5496 3.35288C18.327 4.00437 20.4956 6.17301 21.1471 8.95044C21.6176 10.9563 21.6176 13.0437 21.1471 15.0496C20.4956 17.827 18.327 19.9956 15.5496 20.6471C13.5437 21.1176 11.4563 21.1176 9.45044 20.6471C6.67301 19.9956 4.50437 17.827 3.85288 15.0496C3.38237 13.0437 3.38237 10.9563 3.85288 8.95043Z" stroke="url(#paint0_linear_2726_20654)" stroke-width="1.5"/>
<path d="M15 12H10M12.5 14.5L12.5 9.5" stroke="url(#paint1_linear_2726_20654)" stroke-width="1.5" stroke-linecap="round"/>
<defs>
<linearGradient id="paint0_linear_2726_20654" x1="47.8494" y1="12" x2="3.5" y2="12" gradientUnits="userSpaceOnUse">
<stop stop-color="#00E213"/>
<stop offset="1" stop-color="#01B5CF"/>
</linearGradient>
<linearGradient id="paint1_linear_2726_20654" x1="22.3193" y1="12" x2="10" y2="12" gradientUnits="userSpaceOnUse">
<stop stop-color="#00E213"/>
<stop offset="1" stop-color="#01B5CF"/>
</linearGradient>
</defs>
</svg>
