<svg width="182" height="182" viewBox="0 0 182 182" fill="none" xmlns="http://www.w3.org/2000/svg">
<circle cx="91" cy="91" r="91" fill="white"/>
<path d="M136.317 74.5808C130.948 50.9545 110.339 40.3175 92.2355 40.3175C92.2355 40.3175 92.2355 40.3175 92.1843 40.3175C74.1322 40.3175 53.472 50.9033 48.1023 74.5296C42.1191 100.917 58.279 123.265 72.9049 137.329C78.3256 142.545 85.2805 145.153 92.2355 145.153C99.1904 145.153 106.145 142.545 111.515 137.329C126.141 123.265 142.301 100.969 136.317 74.5808ZM92.2355 100.201C83.3372 100.201 76.1266 92.9909 76.1266 84.0926C76.1266 75.1944 83.3372 67.9838 92.2355 67.9838C101.134 67.9838 108.344 75.1944 108.344 84.0926C108.344 92.9909 101.134 100.201 92.2355 100.201Z" fill="#01B5CF"/>
<path fill-rule="evenodd" clip-rule="evenodd" d="M76.2922 133.806L76.2935 133.807C80.7773 138.121 86.5069 140.266 92.2355 140.266C97.9681 140.266 103.687 138.119 108.11 133.823L108.119 133.814L108.128 133.806C122.486 120 136.932 99.3926 131.551 75.6615C126.805 54.7828 108.637 45.2047 92.2355 45.2047H92.1849C75.8213 45.2047 57.6125 54.7424 52.8686 75.6103M76.2922 133.806C61.9378 120.003 47.4881 99.3453 52.868 75.6127ZM92.2355 105.089C80.6381 105.089 71.2394 95.69 71.2394 84.0926C71.2394 72.4953 80.6381 63.0966 92.2355 63.0966C103.833 63.0966 113.232 72.4953 113.232 84.0926C113.232 95.69 103.833 105.089 92.2355 105.089ZM92.2355 40.3175C110.339 40.3175 130.948 50.9545 136.317 74.5808C142.301 100.969 126.141 123.265 111.515 137.329C106.145 142.545 99.1904 145.153 92.2355 145.153C85.2805 145.153 78.3256 142.545 72.9049 137.329C58.279 123.265 42.1191 100.917 48.1023 74.5296C53.472 50.9033 74.1322 40.3175 92.1843 40.3175H92.2355ZM76.1266 84.0926C76.1266 92.9909 83.3372 100.201 92.2355 100.201C101.134 100.201 108.344 92.9909 108.344 84.0926C108.344 75.1944 101.134 67.9838 92.2355 67.9838C83.3372 67.9838 76.1266 75.1944 76.1266 84.0926Z" fill="#02295A"/>
<rect x="113" y="121" width="15" height="15" fill="white"/>
<path d="M121 115C117.945 115 115.117 116.073 112.875 117.86C109.885 120.233 108 123.905 108 128C108 130.438 108.683 132.745 109.885 134.695C112.128 138.465 116.255 141 121 141C124.282 141 127.273 139.798 129.548 137.75C130.555 136.905 131.432 135.865 132.115 134.695C133.317 132.745 134 130.438 134 128C134 120.818 128.183 115 121 115ZM115.865 126.245C114.922 125.303 114.922 123.743 115.865 122.8C116.84 121.858 118.368 121.858 119.343 122.8L121.032 124.522L122.657 122.865C123.632 121.922 125.16 121.922 126.135 122.865C127.078 123.84 127.078 125.367 126.135 126.342L124.477 127.967L126.2 129.658C127.142 130.633 127.142 132.16 126.2 133.135C125.712 133.59 125.095 133.817 124.477 133.817C123.86 133.817 123.243 133.59 122.755 133.135L121.032 131.412L119.245 133.2C118.757 133.687 118.14 133.915 117.523 133.915C116.905 133.915 116.288 133.687 115.8 133.2C114.858 132.257 114.858 130.697 115.8 129.755L117.588 127.967L115.865 126.245Z" fill="#02295A"/>
</svg>
