<svg width="24" height="24" viewBox="0 0 24 24" fill="none" xmlns="http://www.w3.org/2000/svg">
<path d="M5.80371 9.25C6.21792 9.25 6.55371 9.58579 6.55371 10V12C6.55371 12.4142 6.21792 12.75 5.80371 12.75C5.3895 12.75 5.05371 12.4142 5.05371 12V10C5.05371 9.58579 5.3895 9.25 5.80371 9.25Z" fill="#96A3C8"/>
<path d="M9.65186 10C9.65186 9.58579 9.31607 9.25 8.90186 9.25C8.48764 9.25 8.15186 9.58579 8.15186 10V12C8.15186 12.4142 8.48764 12.75 8.90186 12.75C9.31607 12.75 9.65186 12.4142 9.65186 12V10Z" fill="#96A3C8"/>
<path d="M12 9.25C12.4142 9.25 12.75 9.58579 12.75 10V12C12.75 12.4142 12.4142 12.75 12 12.75C11.5858 12.75 11.25 12.4142 11.25 12V10C11.25 9.58579 11.5858 9.25 12 9.25Z" fill="#96A3C8"/>
<path d="M15.8481 10C15.8481 9.58579 15.5124 9.25 15.0981 9.25C14.6839 9.25 14.3481 9.58579 14.3481 10V12C14.3481 12.4142 14.6839 12.75 15.0981 12.75C15.5124 12.75 15.8481 12.4142 15.8481 12V10Z" fill="#96A3C8"/>
<path d="M18.1963 9.25C18.6105 9.25 18.9463 9.58579 18.9463 10V12C18.9463 12.4142 18.6105 12.75 18.1963 12.75C17.7821 12.75 17.4463 12.4142 17.4463 12V10C17.4463 9.58579 17.7821 9.25 18.1963 9.25Z" fill="#96A3C8"/>
<path d="M6.55371 14.6112C6.55371 14.1969 6.21792 13.8612 5.80371 13.8612C5.3895 13.8612 5.05371 14.1969 5.05371 14.6112V15.6112C5.05371 16.0254 5.3895 16.3612 5.80371 16.3612C6.21792 16.3612 6.55371 16.0254 6.55371 15.6112V14.6112Z" fill="#96A3C8"/>
<path d="M8.90186 13.8612C9.31607 13.8612 9.65186 14.1969 9.65186 14.6112V16.6112C9.65186 17.0254 9.31607 17.3612 8.90186 17.3612C8.48764 17.3612 8.15186 17.0254 8.15186 16.6112V14.6112C8.15186 14.1969 8.48764 13.8612 8.90186 13.8612Z" fill="#96A3C8"/>
<path d="M12.75 14.6112C12.75 14.1969 12.4142 13.8612 12 13.8612C11.5858 13.8612 11.25 14.1969 11.25 14.6112V16.6112C11.25 17.0254 11.5858 17.3612 12 17.3612C12.4142 17.3612 12.75 17.0254 12.75 16.6112V14.6112Z" fill="#96A3C8"/>
<path d="M15.0981 13.8612C15.5124 13.8612 15.8481 14.1969 15.8481 14.6112V16.6112C15.8481 17.0254 15.5124 17.3612 15.0981 17.3612C14.6839 17.3612 14.3481 17.0254 14.3481 16.6112V14.6112C14.3481 14.1969 14.6839 13.8612 15.0981 13.8612Z" fill="#96A3C8"/>
<path d="M18.9463 14.6112C18.9463 14.1969 18.6105 13.8612 18.1963 13.8612C17.7821 13.8612 17.4463 14.1969 17.4463 14.6112V15.6112C17.4463 16.0254 17.7821 16.3612 18.1963 16.3612C18.6105 16.3612 18.9463 16.0254 18.9463 15.6112V14.6112Z" fill="#96A3C8"/>
<path fill-rule="evenodd" clip-rule="evenodd" d="M2.97931 4.10571C1.73974 4.10571 0.734863 5.11059 0.734863 6.35016C0.734863 7.24982 1.26419 8.02584 2.02839 8.3838C1.61825 10.3965 1.66129 12.478 2.1575 14.4764C2.89874 17.4615 5.26576 19.7697 8.2683 20.435L8.72217 20.5356C10.8812 21.014 13.1188 21.014 15.2778 20.5356L15.7317 20.435C18.7342 19.7697 21.1013 17.4615 21.8425 14.4764C22.3387 12.478 22.3817 10.3965 21.9716 8.3838C22.7358 8.02584 23.2651 7.24982 23.2651 6.35016C23.2651 5.11059 22.2603 4.10571 21.0207 4.10571H2.97931ZM20.4834 8.5946H3.5166C3.13139 10.4165 3.16362 12.304 3.61329 14.1149C4.21736 16.5476 6.14627 18.4284 8.59281 18.9705L9.04668 19.0711C10.992 19.5021 13.008 19.5021 14.9533 19.0711L15.4072 18.9705C17.8537 18.4284 19.7826 16.5476 20.3867 14.1149C20.8364 12.304 20.8686 10.4165 20.4834 8.5946ZM21.0207 7.0946C21.4318 7.0946 21.7651 6.7613 21.7651 6.35016C21.7651 5.93901 21.4318 5.60571 21.0207 5.60571H2.97931C2.56816 5.60571 2.23486 5.93901 2.23486 6.35016C2.23486 6.7613 2.56816 7.0946 2.97931 7.0946H21.0207Z" fill="#96A3C8"/>
</svg>
