<svg width="80" height="80" viewBox="0 0 80 80" fill="none" xmlns="http://www.w3.org/2000/svg">
<rect x="15.5" y="15.5" width="47" height="47" rx="15.5" fill="white"/>
<rect x="15.5" y="15.5" width="47" height="47" rx="15.5" stroke="#E6EBF6"/>
<path fill-rule="evenodd" clip-rule="evenodd" d="M29.9793 31.1055C28.7397 31.1055 27.7349 32.1103 27.7349 33.3499C27.7349 34.2496 28.2642 35.0256 29.0284 35.3836C28.6183 37.3963 28.6613 39.4778 29.1575 41.4761C29.8987 44.4612 32.2658 46.7694 35.2683 47.4347L35.7222 47.5353C37.8812 48.0137 40.1188 48.0137 42.2778 47.5353L42.7317 47.4347C45.7342 46.7694 48.1013 44.4612 48.8425 41.4761C49.3387 39.4778 49.3817 37.3963 48.9716 35.3836C49.7358 35.0256 50.2651 34.2496 50.2651 33.3499C50.2651 32.1103 49.2603 31.1055 48.0207 31.1055H29.9793ZM47.4834 35.5944H30.5166C30.1314 37.4162 30.1636 39.3037 30.6133 41.1146C31.2174 43.5473 33.1463 45.4281 35.5928 45.9703L36.0467 46.0708C37.992 46.5019 40.008 46.5019 41.9533 46.0708L42.1156 46.8031L41.9533 46.0708L42.4072 45.9703C44.8537 45.4281 46.7826 43.5473 47.3867 41.1146C47.8364 39.3037 47.8686 37.4162 47.4834 35.5944ZM47.9643 34.0944H48.0207C48.4318 34.0944 48.7651 33.7611 48.7651 33.3499C48.7651 32.9388 48.4318 32.6055 48.0207 32.6055H29.9793C29.5682 32.6055 29.2349 32.9388 29.2349 33.3499C29.2349 33.7611 29.5682 34.0944 29.9793 34.0944H30.0357H30.2026H47.7974H47.9643ZM32.8037 36.2498C33.2179 36.2498 33.5537 36.5855 33.5537 36.9998V38.9998C33.5537 39.414 33.2179 39.7498 32.8037 39.7498C32.3895 39.7498 32.0537 39.414 32.0537 38.9998V36.9998C32.0537 36.5855 32.3895 36.2498 32.8037 36.2498ZM36.6519 36.9998C36.6519 36.5855 36.3161 36.2498 35.9019 36.2498C35.4876 36.2498 35.1519 36.5855 35.1519 36.9998V38.9998C35.1519 39.414 35.4876 39.7498 35.9019 39.7498C36.3161 39.7498 36.6519 39.414 36.6519 38.9998V36.9998ZM39 36.2498C39.4142 36.2498 39.75 36.5855 39.75 36.9998V38.9998C39.75 39.414 39.4142 39.7498 39 39.7498C38.5858 39.7498 38.25 39.414 38.25 38.9998V36.9998C38.25 36.5855 38.5858 36.2498 39 36.2498ZM42.8481 36.9998C42.8481 36.5855 42.5124 36.2498 42.0981 36.2498C41.6839 36.2498 41.3481 36.5855 41.3481 36.9998V38.9998C41.3481 39.414 41.6839 39.7498 42.0981 39.7498C42.5124 39.7498 42.8481 39.414 42.8481 38.9998V36.9998ZM45.1963 36.2498C45.6105 36.2498 45.9463 36.5855 45.9463 36.9998V38.9998C45.9463 39.414 45.6105 39.7498 45.1963 39.7498C44.7821 39.7498 44.4463 39.414 44.4463 38.9998V36.9998C44.4463 36.5855 44.7821 36.2498 45.1963 36.2498ZM33.5537 41.6109C33.5537 41.1967 33.2179 40.8609 32.8037 40.8609C32.3895 40.8609 32.0537 41.1967 32.0537 41.6109V42.6109C32.0537 43.0251 32.3895 43.3609 32.8037 43.3609C33.2179 43.3609 33.5537 43.0251 33.5537 42.6109V41.6109ZM35.9019 40.8609C36.3161 40.8609 36.6519 41.1967 36.6519 41.6109V43.6109C36.6519 44.0251 36.3161 44.3609 35.9019 44.3609C35.4876 44.3609 35.1519 44.0251 35.1519 43.6109V41.6109C35.1519 41.1967 35.4876 40.8609 35.9019 40.8609ZM39.75 41.6109C39.75 41.1967 39.4142 40.8609 39 40.8609C38.5858 40.8609 38.25 41.1967 38.25 41.6109V43.6109C38.25 44.0251 38.5858 44.3609 39 44.3609C39.4142 44.3609 39.75 44.0251 39.75 43.6109V41.6109ZM42.0981 40.8609C42.5124 40.8609 42.8481 41.1967 42.8481 41.6109V43.6109C42.8481 44.0251 42.5124 44.3609 42.0981 44.3609C41.6839 44.3609 41.3481 44.0251 41.3481 43.6109V41.6109C41.3481 41.1967 41.6839 40.8609 42.0981 40.8609ZM45.9463 41.6109C45.9463 41.1967 45.6105 40.8609 45.1963 40.8609C44.7821 40.8609 44.4463 41.1967 44.4463 41.6109V42.6109C44.4463 43.0251 44.7821 43.3609 45.1963 43.3609C45.6105 43.3609 45.9463 43.0251 45.9463 42.6109V41.6109Z" fill="#363853"/>
</svg>
