<svg width="24" height="24" viewBox="0 0 24 24" fill="none" xmlns="http://www.w3.org/2000/svg">
<path d="M1.48486 5.35016C1.48486 4.5248 2.15395 3.85571 2.97931 3.85571H21.0207C21.8461 3.85571 22.5151 4.5248 22.5151 5.35016C22.5151 6.17552 21.8461 6.8446 21.0207 6.8446H2.97931C2.15395 6.8446 1.48486 6.17552 1.48486 5.35016Z" fill="url(#paint0_linear_2300_26478)"/>
<path fill-rule="evenodd" clip-rule="evenodd" d="M15.1156 19.8033L15.5694 19.7027C18.294 19.099 20.442 17.0045 21.1146 14.2956C21.6144 12.2829 21.6281 10.181 21.1557 8.16336C21.1304 8.0555 21.0563 7.96584 20.956 7.91886L20.7974 7.8446H3.20258L3.04398 7.91886C2.94366 7.96583 2.86958 8.0555 2.84433 8.16335C2.37192 10.181 2.38561 12.2829 2.88539 14.2956C3.55805 17.0045 5.70601 19.099 8.43056 19.7027L8.88443 19.8033C10.9366 20.258 13.0634 20.258 15.1156 19.8033ZM6.55371 10C6.55371 9.58579 6.21792 9.25 5.80371 9.25C5.3895 9.25 5.05371 9.58579 5.05371 10V12C5.05371 12.4142 5.3895 12.75 5.80371 12.75C6.21792 12.75 6.55371 12.4142 6.55371 12V10ZM9.65186 10C9.65186 9.58579 9.31607 9.25 8.90186 9.25C8.48764 9.25 8.15186 9.58579 8.15186 10V12C8.15186 12.4142 8.48764 12.75 8.90186 12.75C9.31607 12.75 9.65186 12.4142 9.65186 12V10ZM12.75 10C12.75 9.58579 12.4142 9.25 12 9.25C11.5858 9.25 11.25 9.58579 11.25 10V12C11.25 12.4142 11.5858 12.75 12 12.75C12.4142 12.75 12.75 12.4142 12.75 12V10ZM15.8481 10C15.8481 9.58579 15.5124 9.25 15.0981 9.25C14.6839 9.25 14.3481 9.58579 14.3481 10V12C14.3481 12.4142 14.6839 12.75 15.0981 12.75C15.5124 12.75 15.8481 12.4142 15.8481 12V10ZM18.9463 10C18.9463 9.58579 18.6105 9.25 18.1963 9.25C17.7821 9.25 17.4463 9.58579 17.4463 10V12C17.4463 12.4142 17.7821 12.75 18.1963 12.75C18.6105 12.75 18.9463 12.4142 18.9463 12V10ZM6.55371 14.6112C6.55371 14.1969 6.21792 13.8612 5.80371 13.8612C5.3895 13.8612 5.05371 14.1969 5.05371 14.6112V15.6112C5.05371 16.0254 5.3895 16.3612 5.80371 16.3612C6.21792 16.3612 6.55371 16.0254 6.55371 15.6112V14.6112ZM9.65186 14.6112C9.65186 14.1969 9.31607 13.8612 8.90186 13.8612C8.48764 13.8612 8.15186 14.1969 8.15186 14.6112V16.6112C8.15186 17.0254 8.48764 17.3612 8.90186 17.3612C9.31607 17.3612 9.65186 17.0254 9.65186 16.6112V14.6112ZM12.75 14.6112C12.75 14.1969 12.4142 13.8612 12 13.8612C11.5858 13.8612 11.25 14.1969 11.25 14.6112V16.6112C11.25 17.0254 11.5858 17.3612 12 17.3612C12.4142 17.3612 12.75 17.0254 12.75 16.6112V14.6112ZM15.8481 14.6112C15.8481 14.1969 15.5124 13.8612 15.0981 13.8612C14.6839 13.8612 14.3481 14.1969 14.3481 14.6112V16.6112C14.3481 17.0254 14.6839 17.3612 15.0981 17.3612C15.5124 17.3612 15.8481 17.0254 15.8481 16.6112V14.6112ZM18.9463 14.6112C18.9463 14.1969 18.6105 13.8612 18.1963 13.8612C17.7821 13.8612 17.4463 14.1969 17.4463 14.6112V15.6112C17.4463 16.0254 17.7821 16.3612 18.1963 16.3612C18.6105 16.3612 18.9463 16.0254 18.9463 15.6112V14.6112Z" fill="url(#paint1_linear_2300_26478)"/>
<defs>
<linearGradient id="paint0_linear_2300_26478" x1="53.3004" y1="12" x2="1.48486" y2="12" gradientUnits="userSpaceOnUse">
<stop stop-color="#00E213"/>
<stop offset="1" stop-color="#01B5CF"/>
</linearGradient>
<linearGradient id="paint1_linear_2300_26478" x1="53.3004" y1="12" x2="1.48486" y2="12" gradientUnits="userSpaceOnUse">
<stop stop-color="#00E213"/>
<stop offset="1" stop-color="#01B5CF"/>
</linearGradient>
</defs>
</svg>
