<svg width="30" height="22" viewBox="0 0 30 22" fill="none" xmlns="http://www.w3.org/2000/svg">
<path d="M0.142944 21.4V12.4857C0.142944 11.8171 0.279135 11.2105 0.551515 10.6657C0.823895 10.121 1.18294 9.6381 1.62865 9.21715V5.05717C1.62865 3.81907 2.06199 2.7667 2.92865 1.90003C3.79531 1.03337 4.84769 0.600037 6.08578 0.600037H12.0286C12.5981 0.600037 13.1305 0.705522 13.6258 0.916492C14.121 1.12746 14.5791 1.41817 15 1.7886C15.421 1.41718 15.8791 1.12647 16.3743 0.916492C16.8696 0.706512 17.4019 0.601027 17.9715 0.600037H23.9143C25.1524 0.600037 26.2048 1.03337 27.0714 1.90003C27.9381 2.7667 28.3714 3.81907 28.3714 5.05717V9.21715C28.8171 9.6381 29.1762 10.121 29.4486 10.6657C29.7209 11.2105 29.8571 11.8171 29.8571 12.4857V21.4H26.8857V18.4286H3.11436V21.4H0.142944ZM16.4858 8.02858H25.4V5.05717C25.4 4.63621 25.2574 4.28361 24.9721 3.99934C24.6869 3.71507 24.3343 3.57245 23.9143 3.57146H17.9715C17.5505 3.57146 17.1979 3.71408 16.9136 3.99934C16.6294 4.2846 16.4867 4.6372 16.4858 5.05717V8.02858ZM4.60007 8.02858H13.5143V5.05717C13.5143 4.63621 13.3717 4.28361 13.0864 3.99934C12.8012 3.71507 12.4486 3.57245 12.0286 3.57146H6.08578C5.66483 3.57146 5.31222 3.71408 5.02796 3.99934C4.74369 4.2846 4.60106 4.6372 4.60007 5.05717V8.02858Z" fill="white"/>
</svg>
