<svg width="50" height="50" viewBox="0 0 50 50" fill="none" xmlns="http://www.w3.org/2000/svg">
<rect width="50" height="50" rx="16" fill="#FAFCFF"/>
<path d="M15 14.7485L13.7448 37.3412C13.7024 38.1055 14.3107 38.7485 15.0761 38.7485H18.3584C18.939 38.7485 19.4529 38.3728 19.629 37.8195L25.0612 20.7507M15 14.7485V12.5848C15 11.8484 15.5969 11.2515 16.3333 11.2515H33.6667C34.403 11.2515 35 11.8484 35 12.5848V14.7485M15 14.7485H25.0612M35 14.7485L36.2551 37.3412C36.2976 38.1055 35.6893 38.7485 34.9239 38.7485H31.6479C31.0642 38.7485 30.5484 38.3689 30.3749 37.8117L25.0612 20.7507M35 14.7485H25.0612M25.0612 20.7507V14.7485M34.9655 19.3772C32.4093 19.3772 30.3371 17.305 30.3371 14.7489H34.9655V19.3772ZM15.0025 19.3772C17.5587 19.3772 19.6308 17.305 19.6308 14.7489H15.0025V19.3772Z" stroke="url(#paint0_linear_1215_13464)" stroke-width="1.5"/>
<defs>
<linearGradient id="paint0_linear_1215_13464" x1="69.5141" y1="25" x2="13.6667" y2="25" gradientUnits="userSpaceOnUse">
<stop stop-color="#00E213"/>
<stop offset="1" stop-color="#01B5CF"/>
</linearGradient>
</defs>
</svg>
