<svg width="24" height="25" viewBox="0 0 24 25" fill="none" xmlns="http://www.w3.org/2000/svg">
<path d="M3.83327 15.7485L4.56432 15.5809L3.83327 15.7485ZM3.83327 9.85323L4.56432 10.0208L3.83327 9.85323ZM20.1667 9.85323L19.4357 10.0208L20.1667 9.85323ZM20.1667 15.7485L19.4357 15.5809L20.1667 15.7485ZM14.8801 21.1589L15.0552 21.8882L14.8801 21.1589ZM9.11986 21.1589L9.29493 20.4296L9.11986 21.1589ZM9.11985 4.44279L9.29493 5.17207L9.11985 4.44279ZM14.8801 4.44279L15.0552 3.71351L14.8801 4.44279ZM8.82008 3.5C8.82008 3.08579 8.48429 2.75 8.07008 2.75C7.65587 2.75 7.32008 3.08579 7.32008 3.5H8.82008ZM7.32008 6.01375C7.32008 6.42796 7.65587 6.76375 8.07008 6.76375C8.48429 6.76375 8.82008 6.42796 8.82008 6.01375H7.32008ZM16.6799 3.5C16.6799 3.08579 16.3441 2.75 15.9299 2.75C15.5157 2.75 15.1799 3.08579 15.1799 3.5H16.6799ZM15.1799 6.01375C15.1799 6.42796 15.5157 6.76375 15.9299 6.76375C16.3441 6.76375 16.6799 6.42796 16.6799 6.01375H15.1799ZM4.56432 15.5809C4.14523 13.7524 4.14523 11.8493 4.56432 10.0208L3.10223 9.68568C2.63259 11.7347 2.63259 13.867 3.10223 15.916L4.56432 15.5809ZM19.4357 10.0208C19.8548 11.8493 19.8548 13.7524 19.4357 15.5809L20.8978 15.916C21.3674 13.867 21.3674 11.7347 20.8978 9.68568L19.4357 10.0208ZM14.7051 20.4296C12.9258 20.8568 11.0742 20.8568 9.29493 20.4296L8.94478 21.8882C10.9542 22.3706 13.0458 22.3706 15.0552 21.8882L14.7051 20.4296ZM9.29493 5.17207C11.0742 4.74493 12.9258 4.74493 14.7051 5.17207L15.0552 3.71351C13.0458 3.23111 10.9542 3.23111 8.94478 3.71351L9.29493 5.17207ZM9.29493 20.4296C6.95607 19.8682 5.11769 17.9953 4.56432 15.5809L3.10223 15.916C3.77946 18.8708 6.03739 21.1902 8.94478 21.8882L9.29493 20.4296ZM15.0552 21.8882C17.9626 21.1902 20.2205 18.8708 20.8978 15.916L19.4357 15.5809C18.8823 17.9953 17.0439 19.8682 14.7051 20.4296L15.0552 21.8882ZM14.7051 5.17207C17.0439 5.73355 18.8823 7.60642 19.4357 10.0208L20.8978 9.68568C20.2205 6.73089 17.9626 4.41147 15.0552 3.71351L14.7051 5.17207ZM8.94478 3.71351C6.03739 4.41147 3.77946 6.73089 3.10223 9.68568L4.56432 10.0208C5.11769 7.60641 6.95607 5.73355 9.29493 5.17207L8.94478 3.71351ZM4.14016 9.52886H19.8598V8.02886H4.14016V9.52886ZM7.32008 3.5V6.01375H8.82008V3.5H7.32008ZM15.1799 3.5V6.01375H16.6799V3.5H15.1799Z" fill="url(#paint0_linear_3237_17960)"/>
<circle cx="7" cy="12.5" r="1" fill="url(#paint1_linear_3237_17960)"/>
<circle cx="10" cy="12.5" r="1" fill="url(#paint2_linear_3237_17960)"/>
<defs>
<linearGradient id="paint0_linear_3237_17960" x1="45.3855" y1="12.5" x2="3.5" y2="12.5" gradientUnits="userSpaceOnUse">
<stop stop-color="#00E213"/>
<stop offset="1" stop-color="#01B5CF"/>
</linearGradient>
<linearGradient id="paint1_linear_3237_17960" x1="10.9277" y1="12.5" x2="6" y2="12.5" gradientUnits="userSpaceOnUse">
<stop stop-color="#00E213"/>
<stop offset="1" stop-color="#01B5CF"/>
</linearGradient>
<linearGradient id="paint2_linear_3237_17960" x1="13.9277" y1="12.5" x2="9" y2="12.5" gradientUnits="userSpaceOnUse">
<stop stop-color="#00E213"/>
<stop offset="1" stop-color="#01B5CF"/>
</linearGradient>
</defs>
</svg>
