<svg width="24" height="25" viewBox="0 0 24 25" fill="none" xmlns="http://www.w3.org/2000/svg">
<path d="M2.88539 9.34875C3.55805 6.63983 5.70602 4.54534 8.43056 3.94162L8.88443 3.84105C10.9366 3.38632 13.0634 3.38632 15.1156 3.84105L15.5694 3.94162C18.294 4.54534 20.442 6.63984 21.1146 9.34875C21.6285 11.4182 21.6285 13.5819 21.1146 15.6512C20.442 18.3602 18.294 20.4547 15.5694 21.0584L15.1156 21.159C13.0634 21.6137 10.9366 21.6137 8.88443 21.159L8.43056 21.0584C5.70601 20.4547 3.55805 18.3602 2.88539 15.6513C2.37154 13.5819 2.37154 11.4181 2.88539 9.34875Z" stroke="#5569A4" stroke-width="1.5"/>
<path fill-rule="evenodd" clip-rule="evenodd" d="M12.0002 7.5C12.3826 7.5 12.6926 7.79199 12.6926 8.15217V8.68573H12.7692C14.0567 8.68573 15 9.74015 15 10.9189C15 11.2791 14.69 11.5711 14.3077 11.5711C13.9253 11.5711 13.6154 11.2791 13.6154 10.9189C13.6154 10.3514 13.1811 9.99008 12.7692 9.99008H12.6926V12.0432L13.6273 12.3634C14.4767 12.6544 15 13.4457 15 14.2838C15 15.3506 14.1451 16.3142 12.9666 16.3142H12.6926V16.8478C12.6926 17.208 12.3826 17.5 12.0002 17.5C11.6179 17.5 11.3079 17.208 11.3079 16.8478V16.3142H11.2308C9.94328 16.3142 9 15.2598 9 14.081C9 13.7208 9.30996 13.4288 9.69231 13.4288C10.0747 13.4288 10.3846 13.7208 10.3846 14.081C10.3846 14.6486 10.8189 15.0098 11.2308 15.0098H11.3079V12.9568L10.3727 12.6365C9.5233 12.3455 9 11.5542 9 10.7161C9 9.64934 9.85491 8.68573 11.0334 8.68573H11.3079V8.15217C11.3079 7.79199 11.6179 7.5 12.0002 7.5ZM11.3079 9.99008H11.0334C10.7306 9.99008 10.3846 10.2606 10.3846 10.7161C10.3846 11.0645 10.6001 11.3265 10.8459 11.4107L11.3079 11.5689V9.99008ZM12.6926 13.4312V15.0098H12.9666C13.2694 15.0098 13.6154 14.7394 13.6154 14.2838C13.6154 13.9355 13.3999 13.6735 13.1541 13.5893L12.6926 13.4312Z" fill="#5569A4"/>
</svg>
