<svg width="88" height="32" viewBox="0 0 88 32" fill="none" xmlns="http://www.w3.org/2000/svg">
<rect x="0.5" y="0.5" width="87" height="31" rx="6.5" stroke="#2477E1"/>
<path d="M11.4037 20.5963C10.8288 20.0212 11.21 18.8131 10.9175 18.1056C10.6138 17.375 9.5 16.7812 9.5 16C9.5 15.2188 10.6138 14.625 10.9175 13.8944C11.21 13.1875 10.8288 11.9787 11.4037 11.4037C11.9787 10.8288 13.1875 11.21 13.8944 10.9175C14.6281 10.6138 15.2188 9.5 16 9.5C16.7812 9.5 17.375 10.6138 18.1056 10.9175C18.8131 11.21 20.0212 10.8288 20.5963 11.4037C21.1713 11.9787 20.79 13.1869 21.0825 13.8944C21.3863 14.6281 22.5 15.2188 22.5 16C22.5 16.7812 21.3863 17.375 21.0825 18.1056C20.79 18.8131 21.1713 20.0212 20.5963 20.5963C20.0212 21.1713 18.8131 20.79 18.1056 21.0825C17.375 21.3863 16.7812 22.5 16 22.5C15.2188 22.5 14.625 21.3863 13.8944 21.0825C13.1875 20.79 11.9787 21.1713 11.4037 20.5963Z" fill="#2477E1"/>
<path d="M13.5 16.25L15 17.75L18.5 14.25" stroke="white" stroke-linecap="round" stroke-linejoin="round"/>
<path d="M40.775 16.398C40.775 17.3253 40.5843 18.1357 40.203 18.829C39.8303 19.5137 39.28 20.0467 38.552 20.428C37.8327 20.8093 36.9703 21 35.965 21H32.897V11.822H35.965C36.9703 11.822 37.8327 12.0127 38.552 12.394C39.28 12.7667 39.8303 13.2953 40.203 13.98C40.5843 14.6647 40.775 15.4707 40.775 16.398ZM35.848 19.661C36.9487 19.661 37.7937 19.375 38.383 18.803C38.9723 18.231 39.267 17.4293 39.267 16.398C39.267 15.3667 38.9723 14.565 38.383 13.993C37.7937 13.421 36.9487 13.135 35.848 13.135H34.379V19.661H35.848ZM48.9221 17.074C48.9221 17.3167 48.9048 17.529 48.8701 17.711H43.3581C43.3841 18.4477 43.5878 18.9937 43.9691 19.349C44.3505 19.7043 44.8228 19.882 45.3861 19.882C45.8801 19.882 46.2961 19.7563 46.6341 19.505C46.9808 19.2537 47.1931 18.92 47.2711 18.504H48.8571C48.7618 19.0067 48.5625 19.453 48.2591 19.843C47.9558 20.233 47.5615 20.5407 47.0761 20.766C46.5908 20.9827 46.0491 21.091 45.4511 21.091C44.7578 21.091 44.1425 20.9437 43.6051 20.649C43.0765 20.3543 42.6605 19.9297 42.3571 19.375C42.0538 18.8203 41.9021 18.166 41.9021 17.412C41.9021 16.6667 42.0538 16.0167 42.3571 15.462C42.6605 14.9073 43.0765 14.4827 43.6051 14.188C44.1425 13.8933 44.7578 13.746 45.4511 13.746C46.1531 13.746 46.7641 13.8933 47.2841 14.188C47.8128 14.474 48.2158 14.8727 48.4931 15.384C48.7791 15.8867 48.9221 16.45 48.9221 17.074ZM47.4271 17.035C47.4445 16.567 47.3621 16.177 47.1801 15.865C47.0068 15.5443 46.7641 15.3103 46.4521 15.163C46.1488 15.007 45.8151 14.929 45.4511 14.929C44.8705 14.929 44.3851 15.1067 43.9951 15.462C43.6051 15.8173 43.3928 16.3417 43.3581 17.035H47.4271ZM53.6941 12.355C53.1134 12.329 52.7061 12.4243 52.4721 12.641C52.2381 12.849 52.1211 13.2087 52.1211 13.72V13.837H53.6941V15.111H52.1211V21H50.6261V15.111H49.6511V13.837H50.6261V13.603C50.6261 12.7277 50.8817 12.0733 51.3931 11.64C51.9044 11.198 52.6714 11.003 53.6941 11.055V12.355ZM57.7583 13.746C58.4083 13.746 58.9629 13.9063 59.4223 14.227C59.8816 14.5477 60.2066 14.9723 60.3973 15.501V13.837H61.8793V21H60.3973V19.336C60.2066 19.8647 59.8816 20.2893 59.4223 20.61C58.9629 20.9307 58.4083 21.091 57.7583 21.091C57.1343 21.091 56.5753 20.9437 56.0813 20.649C55.5959 20.3543 55.2146 19.9297 54.9373 19.375C54.6599 18.8203 54.5213 18.166 54.5213 17.412C54.5213 16.6667 54.6599 16.0167 54.9373 15.462C55.2146 14.9073 55.5959 14.4827 56.0813 14.188C56.5753 13.8933 57.1343 13.746 57.7583 13.746ZM58.2133 15.046C57.5546 15.046 57.0259 15.2583 56.6273 15.683C56.2373 16.099 56.0423 16.6753 56.0423 17.412C56.0423 18.1487 56.2373 18.7293 56.6273 19.154C57.0259 19.57 57.5546 19.778 58.2133 19.778C58.6293 19.778 59.0019 19.6827 59.3313 19.492C59.6606 19.2927 59.9206 19.0153 60.1113 18.66C60.3019 18.3047 60.3973 17.8887 60.3973 17.412C60.3973 16.944 60.3019 16.5323 60.1113 16.177C59.9206 15.813 59.6606 15.5357 59.3313 15.345C59.0019 15.1457 58.6293 15.046 58.2133 15.046ZM70.2617 13.837V21H68.7667V19.44C68.5847 19.9687 68.2684 20.3803 67.8177 20.675C67.3671 20.961 66.8427 21.104 66.2447 21.104C65.4127 21.104 64.7454 20.8353 64.2427 20.298C63.7401 19.7607 63.4887 18.9937 63.4887 17.997V13.837H64.9707V17.841C64.9707 18.491 65.1354 18.9937 65.4647 19.349C65.7941 19.6957 66.2447 19.869 66.8167 19.869C67.4061 19.869 67.8784 19.6783 68.2337 19.297C68.5891 18.9157 68.7667 18.361 68.7667 17.633V13.837H70.2617ZM73.5186 11.38V21H72.0366V11.38H73.5186ZM78.913 19.713V21H78.003C77.2404 21 76.6597 20.818 76.261 20.454C75.871 20.0813 75.676 19.466 75.676 18.608V15.098H74.649V13.837H75.676V12.056H77.171V13.837H78.9V15.098H77.171V18.634C77.171 19.0413 77.2447 19.323 77.392 19.479C77.548 19.635 77.8167 19.713 78.198 19.713H78.913Z" fill="#2477E1"/>
</svg>
