<svg width="64" height="48" viewBox="0 0 64 48" fill="none" xmlns="http://www.w3.org/2000/svg">
<path d="M23 18.2826C22.5858 18.2826 22.25 18.6184 22.25 19.0326C22.25 19.4468 22.5858 19.7826 23 19.7826V18.2826ZM41 19.7826C41.4142 19.7826 41.75 19.4468 41.75 19.0326C41.75 18.6184 41.4142 18.2826 41 18.2826V19.7826ZM25 19.0326V18.2826H24.25V19.0326H25ZM39 19.0326H39.75V18.2826H39V19.0326ZM38.3418 28.8303L39.0624 29.0383L38.3418 28.8303ZM33.724 32.8553L33.8489 33.5949L33.724 32.8553ZM30.276 32.8553L30.401 32.1158L30.401 32.1158L30.276 32.8553ZM30.1183 32.8287L29.9933 33.5682H29.9933L30.1183 32.8287ZM25.6581 28.8303L24.9376 29.0383L25.6581 28.8303ZM33.8817 32.8287L33.7568 32.0892L33.8817 32.8287ZM27.8425 17.4894L28.5233 17.8041L27.8425 17.4894ZM28.818 16.1811L28.3175 15.6226V15.6226L28.818 16.1811ZM30.2779 15.307L30.5389 16.0101L30.2779 15.307ZM33.7221 15.307L33.9831 14.6038V14.6038L33.7221 15.307ZM36.1575 17.4894L36.8383 17.1747L36.1575 17.4894ZM23 19.7826H41V18.2826H23V19.7826ZM33.7568 32.0892L33.599 32.1158L33.8489 33.5949L34.0067 33.5682L33.7568 32.0892ZM30.401 32.1158L30.2432 32.0892L29.9933 33.5682L30.151 33.5949L30.401 32.1158ZM38.25 19.0326V24.1758H39.75V19.0326H38.25ZM25.75 24.1759V19.0326H24.25V24.1759H25.75ZM38.25 24.1758C38.25 25.6806 38.0383 27.1776 37.6212 28.6223L39.0624 29.0383C39.5185 27.4583 39.75 25.8212 39.75 24.1758H38.25ZM33.599 32.1158C32.5404 32.2947 31.4596 32.2947 30.401 32.1158L30.151 33.5949C31.3751 33.8017 32.6248 33.8017 33.8489 33.5949L33.599 32.1158ZM30.2432 32.0892C28.4052 31.7786 26.9016 30.4335 26.3787 28.6223L24.9376 29.0383C25.6188 31.3981 27.5817 33.1607 29.9933 33.5682L30.2432 32.0892ZM26.3787 28.6223C25.9617 27.1776 25.75 25.6806 25.75 24.1759H24.25C24.25 25.8212 24.4815 27.4583 24.9376 29.0383L26.3787 28.6223ZM34.0067 33.5682C36.4183 33.1607 38.3812 31.3981 39.0624 29.0383L37.6212 28.6223C37.0984 30.4335 35.5947 31.7786 33.7568 32.0892L34.0067 33.5682ZM28.25 19.0326C28.25 18.6137 28.3419 18.1965 28.5233 17.8041L27.1618 17.1747C26.8908 17.7608 26.75 18.3924 26.75 19.0326H28.25ZM28.5233 17.8041C28.7049 17.4113 28.9736 17.0488 29.3185 16.7397L28.3175 15.6226C27.8267 16.0623 27.4325 16.5889 27.1618 17.1747L28.5233 17.8041ZM29.3185 16.7397C29.6637 16.4304 30.0778 16.1813 30.5389 16.0101L30.0169 14.6038C29.3862 14.838 28.8081 15.1829 28.3175 15.6226L29.3185 16.7397ZM30.5389 16.0101C31.0001 15.8389 31.4968 15.75 32 15.75V14.25C31.3213 14.25 30.6477 14.3697 30.0169 14.6038L30.5389 16.0101ZM32 15.75C32.5032 15.75 32.9999 15.8389 33.4611 16.0101L33.9831 14.6038C33.3523 14.3697 32.6787 14.25 32 14.25V15.75ZM33.4611 16.0101C33.9222 16.1813 34.3363 16.4304 34.6815 16.7397L35.6825 15.6226C35.1919 15.1829 34.6138 14.838 33.9831 14.6038L33.4611 16.0101ZM34.6815 16.7397C35.0264 17.0488 35.2951 17.4113 35.4767 17.8041L36.8383 17.1747C36.5675 16.5889 36.1733 16.0623 35.6825 15.6226L34.6815 16.7397ZM35.4767 17.8041C35.6581 18.1965 35.75 18.6137 35.75 19.0326H37.25C37.25 18.3924 37.1092 17.7608 36.8383 17.1747L35.4767 17.8041ZM25 19.7826H39V18.2826H25V19.7826Z" fill="white"/>
<path d="M30 24V28M34 24V28" stroke="white" stroke-width="1.5" stroke-linecap="round"/>
</svg>
