<svg width="182" height="182" viewBox="0 0 182 182" fill="none" xmlns="http://www.w3.org/2000/svg">
<circle cx="91" cy="91" r="91" fill="white"/>
<path d="M160.662 90.9999C160.662 129.473 129.473 160.662 90.9999 160.662C52.5264 160.662 21.3374 129.473 21.3374 90.9999C21.3374 52.5264 52.5264 21.3374 90.9999 21.3374C129.473 21.3374 160.662 52.5264 160.662 90.9999Z" fill="#E6EBF6" stroke="#02295A" stroke-width="4"/>
<circle opacity="0.5" cx="90.9999" cy="90.9999" r="51.1875" fill="#D9D9D9" stroke="black" stroke-width="6.825"/>
<circle cx="90.9999" cy="90.9999" r="52.6" fill="white" stroke="#02295A" stroke-width="4"/>
<path d="M81.8998 86.4499C62.3348 74.1649 45.9125 85.4688 39.6562 92.2938C39.6562 99.0711 40.5428 104.365 42.5 109.356C46.4556 119.443 49.4811 125.381 56.3061 130.5C92.4322 157.594 126.952 135.131 137 117.5C130.175 110.106 128.727 99.1519 128.537 95.5498C117.162 105.219 106.356 101.806 81.8998 86.4499Z" fill="#01B5CF"/>
<path d="M42.5 109.356C46.4556 119.443 49.4811 125.381 56.3061 130.5C92.4322 157.594 126.952 135.131 137 117.5C130.175 110.106 128.727 99.1519 128.537 95.5498C117.162 105.219 106.356 101.806 81.8998 86.4499C62.3348 74.1649 45.9125 85.4688 39.6562 92.2938C39.6562 99.0711 40.5428 104.365 42.5 109.356ZM42.5 109.356C44.6343 106.512 49.9361 100.214 56.3061 98.3938M67.6811 98.3938C71.2831 98.773 81.2173 101.01 92.1373 106.925" stroke="#02295A" stroke-width="4" stroke-linecap="round"/>
<path d="M152.994 62.5391C138.911 66.299 128.538 79.1445 128.538 94.4128C128.538 108.281 137.095 120.15 149.218 125.028C155.974 115.376 166.189 89.3652 152.994 62.5391Z" fill="#E6EBF6" stroke="#02295A" stroke-width="4" stroke-linecap="round"/>
</svg>
