<svg width="10" height="10" viewBox="0 0 10 10" fill="none" xmlns="http://www.w3.org/2000/svg">
<g clip-path="url(#clip0_4277_26523)">
<path d="M0.926224 3.47707C1.22312 2.21138 2.21138 1.22311 3.47707 0.926224C4.47876 0.691259 5.52124 0.691259 6.52293 0.926223C7.78862 1.22311 8.77689 2.21138 9.07378 3.47707C9.30874 4.47876 9.30874 5.52124 9.07378 6.52293C8.77689 7.78862 7.78862 8.77689 6.52293 9.07378C5.52124 9.30874 4.47876 9.30874 3.47708 9.07378C2.21138 8.77689 1.22312 7.78862 0.926224 6.52293C0.691259 5.52124 0.691259 4.47876 0.926224 3.47707Z" stroke="url(#paint0_linear_4277_26523)" stroke-width="1.5"/>
<path d="M3.07842 4.32232C3.22319 3.70511 3.70511 3.22319 4.32232 3.07842C4.76806 2.97386 5.23194 2.97386 5.67768 3.07842C6.29489 3.22319 6.77681 3.70511 6.92158 4.32232C7.02614 4.76806 7.02614 5.23194 6.92158 5.67768C6.77681 6.29489 6.29489 6.77681 5.67768 6.92158C5.23194 7.02614 4.76806 7.02614 4.32232 6.92158C3.70511 6.77681 3.22319 6.29489 3.07842 5.67768C2.97386 5.23194 2.97386 4.76806 3.07842 4.32232Z" fill="url(#paint1_linear_4277_26523)"/>
</g>
<defs>
<linearGradient id="paint0_linear_4277_26523" x1="24.6386" y1="5" x2="2.43702e-09" y2="5" gradientUnits="userSpaceOnUse">
<stop stop-color="#00E213"/>
<stop offset="1" stop-color="#01B5CF"/>
</linearGradient>
<linearGradient id="paint1_linear_4277_26523" x1="12.8554" y1="5" x2="3" y2="5" gradientUnits="userSpaceOnUse">
<stop stop-color="#00E213"/>
<stop offset="1" stop-color="#01B5CF"/>
</linearGradient>
<clipPath id="clip0_4277_26523">
<rect width="10" height="10" fill="white"/>
</clipPath>
</defs>
</svg>
