<svg width="24" height="25" viewBox="0 0 24 25" fill="none" xmlns="http://www.w3.org/2000/svg">
<path d="M20.7972 12.2821C21.0676 12.01 21.0676 11.5687 20.7972 11.2966L15.0664 5.52821C14.48 4.93789 13.991 4.44564 13.5506 4.10741C13.0857 3.7504 12.5946 3.5 12 3.5C11.4054 3.5 10.9143 3.7504 10.4494 4.10741C10.009 4.44564 9.51998 4.93789 8.93355 5.52821L3.20277 11.2966C2.93241 11.5687 2.93241 12.01 3.20277 12.2821C3.47314 12.5542 3.91148 12.5542 4.18184 12.2821L4.57845 11.8829V14.9332C4.57845 17.9273 6.62594 20.5276 9.52196 21.2114C11.1519 21.5962 12.8481 21.5962 14.478 21.2114C17.374 20.5276 19.4215 17.9273 19.4215 14.9332V11.8829L19.8182 12.2821C20.0885 12.5542 20.5269 12.5542 20.7972 12.2821Z" fill="url(#paint0_linear_1862_20484)"/>
<path d="M10.1044 21.3882C11.6655 21.757 12.1665 21.8161 13.6096 21.4927C13.7773 21.4551 13.9179 21.3412 13.9918 21.1861C14.3219 20.4923 14.4235 19.7105 14.2816 18.9545L14.2622 18.8515C14.1017 17.9964 13.472 17.3079 12.6389 17.0768C12.2208 16.9607 11.7792 16.9607 11.361 17.0768C10.528 17.3079 9.89825 17.9964 9.73775 18.8515L9.71841 18.9545C9.57651 19.7105 9.67805 20.4923 10.0082 21.1861L10.1044 21.3882Z" fill="white"/>
<defs>
<linearGradient id="paint0_linear_1862_20484" x1="47.3494" y1="12.5" x2="3" y2="12.5" gradientUnits="userSpaceOnUse">
<stop stop-color="#00E213"/>
<stop offset="1" stop-color="#01B5CF"/>
</linearGradient>
</defs>
</svg>
