<svg width="24" height="24" viewBox="0 0 24 24" fill="none" xmlns="http://www.w3.org/2000/svg">
<path d="M20.7972 10.7966C21.0676 11.0687 21.0676 11.51 20.7972 11.7821C20.5269 12.0542 20.0885 12.0542 19.8182 11.7821L19.4215 11.3829V14.4332C19.4215 17.4273 17.374 20.0276 14.478 20.7114C14.2832 20.7574 14.0874 20.7979 13.8909 20.8329C13.9316 20.7901 13.9658 20.7406 13.9918 20.6861C14.3219 19.9923 14.4235 19.2105 14.2816 18.4545L14.2622 18.3515C14.1017 17.4964 13.472 16.8079 12.6389 16.5768C12.2208 16.4607 11.7792 16.4607 11.361 16.5768C10.528 16.8079 9.89825 17.4964 9.73775 18.3515L9.71841 18.4545C9.57651 19.2105 9.67805 19.9923 10.0082 20.6861L10.0752 20.8268C9.89005 20.7932 9.70558 20.7547 9.52196 20.7114C6.62594 20.0276 4.57845 17.4273 4.57845 14.4332V11.3829L4.18184 11.7821C3.91148 12.0542 3.47314 12.0542 3.20277 11.7821C2.93241 11.51 2.93241 11.0687 3.20277 10.7966L8.93355 5.02821C9.51998 4.43789 10.009 3.94564 10.4494 3.60741C10.9143 3.2504 11.4054 3 12 3C12.5946 3 13.0857 3.2504 13.5506 3.60741C13.991 3.94564 14.48 4.43789 15.0664 5.02821L20.7972 10.7966Z" fill="url(#paint0_linear_2300_26455)"/>
<defs>
<linearGradient id="paint0_linear_2300_26455" x1="47.3494" y1="11.9164" x2="3" y2="11.9164" gradientUnits="userSpaceOnUse">
<stop stop-color="#00E213"/>
<stop offset="1" stop-color="#01B5CF"/>
</linearGradient>
</defs>
</svg>
