<svg width="183" height="182" viewBox="0 0 183 182" fill="none" xmlns="http://www.w3.org/2000/svg">
<circle cx="91.5" cy="91" r="91" fill="white"/>
<path d="M72.6063 136.589L72.6069 136.589C77.9113 141.693 84.7062 144.239 91.5005 144.239C98.2968 144.239 105.087 141.692 110.332 136.597L110.341 136.589C125.707 121.813 142.024 98.9847 135.968 72.2745C130.571 48.5318 109.881 37.7592 91.5005 37.7592H91.5005H91.5004H91.5004H91.5004H91.5003H91.5003H91.5003H91.5002H91.5002H91.5002H91.5001H91.5001H91.5001H91.5H91.5H91.5H91.4999H91.4999H91.4999H91.4998H91.4998H91.4998H91.4997H91.4997H91.4996H91.4996H91.4996H91.4995H91.4995H91.4994H91.4994H91.4993H91.4993H91.4992H91.4992H91.4991H91.4991H91.499H91.499H91.499H91.4989H91.4989H91.4989H91.4988H91.4988H91.4988H91.4987H91.4987H91.4987H91.4986H91.4986H91.4986H91.4985H91.4985H91.4985H91.4984H91.4984H91.4984H91.4983H91.4983H91.4982H91.4982H91.4982H91.4981H91.4981H91.498H91.498H91.498H91.4979H91.4979H91.4978H91.4978H91.4977H91.4977H91.4977H91.4976H91.4976H91.4975H91.4975H91.4974H91.4974H91.4973H91.4973H91.4972H91.4972H91.4971H91.4971H91.497H91.497H91.4969H91.4969H91.4968H91.4968H91.4967H91.4967H91.4966H91.4966H91.4965H91.4964H91.4964H91.4963H91.4963H91.4962H91.4962H91.4961H91.496H91.496H91.4959H91.4959H91.4958H91.4957H91.4957H91.4956H91.4955H91.4955H91.4954H91.4953H91.4953H91.4952H91.4951H91.4951H91.495H91.4949H91.4949H91.4948H91.4947H91.4947H91.4946H91.4945H91.4944H91.4944H91.4943H91.4942H91.4941H91.4941H91.494H91.4939H91.4938H91.4937H91.4937H91.4936H91.4935H91.4934H91.4933H91.4933H91.4932H91.4931H91.493H91.4929H91.4928H91.4927H91.4927H91.4926H91.4925H91.4924H91.4923H91.4922H91.4921H91.492H91.4919H91.4918H91.4917H91.4917H91.4916H91.4915H91.4914H91.4913H91.4912H91.4911H91.491H91.4909H91.4908H91.4907H91.4906H91.4905H91.4904H91.4903H91.4902H91.49H91.4899H91.4898H91.4897H91.4896H91.4895H91.4894H91.4893H91.4892H91.4891H91.489H91.4888H91.4887H91.4886H91.4885H91.4884H91.4883H91.4881H91.488H91.4879H91.4878H91.4877H91.4875H91.4874H91.4873H91.4872H91.487H91.4869H91.4868H91.4867H91.4865H91.4864H91.4863H91.4861H91.486H91.4859H91.4857H91.4856H91.4855H91.4853H91.4852H91.4851H91.4849H91.4848H91.4847H91.4845H91.4844H91.4842H91.4841H91.4839H91.4838H91.4837H91.4835H91.4834H91.4832H91.4831H91.4829H91.4828H91.4826H91.4825H91.4823H91.4822H91.482H91.4818H91.4817H91.4815H91.4814H91.4812H91.4811H91.4809H91.4807H91.4806H91.4804H91.4802H91.4801H91.4799H91.4797H91.4796H91.4794H91.4792H91.4791H91.4789H91.4787H91.4785H91.4784H91.4782H91.478H91.4778H91.4777H91.4775H91.4773H91.4771H91.4769H91.4768H91.4766H91.4764H91.4762H91.476H91.4758H91.4756H91.4755H91.4753H91.4751H91.4749H91.4747H91.4745H91.4743H91.4741H91.4739H91.4737H91.4735H91.4733H91.4731H91.4729H91.4727H91.4725H91.4723H91.4721H91.4719H91.4717H91.4715H91.4712H91.471H91.4708H91.4706H91.4704H91.4702H91.47H91.4698H91.4695H91.4693H91.4691H91.4689H91.4687H91.4684H91.4682H91.468H91.4678H91.4675H91.4673H91.4671H91.4668H91.4666H91.4664H91.4661H91.4659H91.4657H91.4654H91.4652H91.465H91.4647H91.4645H91.4642H91.464H91.4637H91.4635H91.4632H91.463H91.4627H91.4625H91.4622H91.462H91.4617H91.4615H91.4612H91.461H91.4607H91.4605H91.4602H91.4599H91.4597H91.4594H91.4591H91.4589H91.4586H91.4583H91.4581H91.4578H91.4575H91.4573H91.457H91.4567H91.4564H91.4562H91.4559H91.4556H91.4553H91.455H91.4548H91.4545H91.4542H91.4539H91.4536H91.4533H91.453H91.4527H91.4524H91.4522H91.4519H91.4516H91.4513H91.451H91.4507H91.4504H91.4501H91.4498H91.4495H91.4492H91.4488H91.4485H91.4482H91.4479H91.4476H91.4473H91.447H91.4467H91.4463C73.1135 37.7592 52.3744 48.4826 46.9789 72.2203L72.6063 136.589ZM72.6063 136.589C57.2413 121.815 40.9227 98.9323 46.9787 72.2215L72.6063 136.589Z" fill="#01B5CF" stroke="#02295A" stroke-width="4.5614"/>
<path d="M106.283 81.8457C106.283 90.0095 99.6645 96.6275 91.5007 96.6275C83.337 96.6275 76.7189 90.0095 76.7189 81.8457C76.7189 73.6819 83.337 67.0639 91.5007 67.0639C99.6645 67.0639 106.283 73.6819 106.283 81.8457Z" fill="#E6EBF6" stroke="#02295A" stroke-width="4.5614"/>
<rect x="113.5" y="121" width="15" height="15" fill="white"/>
<path d="M121.5 115C118.445 115 115.617 116.073 113.375 117.86C110.385 120.233 108.5 123.905 108.5 128C108.5 130.438 109.183 132.745 110.385 134.695C112.628 138.465 116.755 141 121.5 141C124.782 141 127.773 139.798 130.048 137.75C131.055 136.905 131.932 135.865 132.615 134.695C133.817 132.745 134.5 130.438 134.5 128C134.5 120.818 128.683 115 121.5 115ZM116.365 126.245C115.422 125.303 115.422 123.743 116.365 122.8C117.34 121.858 118.868 121.858 119.843 122.8L121.532 124.522L123.157 122.865C124.132 121.922 125.66 121.922 126.635 122.865C127.578 123.84 127.578 125.367 126.635 126.342L124.977 127.967L126.7 129.658C127.642 130.633 127.642 132.16 126.7 133.135C126.212 133.59 125.595 133.817 124.977 133.817C124.36 133.817 123.743 133.59 123.255 133.135L121.532 131.412L119.745 133.2C119.257 133.687 118.64 133.915 118.023 133.915C117.405 133.915 116.788 133.687 116.3 133.2C115.358 132.257 115.358 130.697 116.3 129.755L118.088 127.967L116.365 126.245Z" fill="#02295A"/>
</svg>
