<svg width="24" height="24" viewBox="0 0 24 24" fill="none" xmlns="http://www.w3.org/2000/svg">
<path d="M10.1353 2.63574C9.66385 4.1958 9.62441 5.85455 10.0212 7.43526C10.418 9.01596 11.2362 10.4594 12.3886 11.6118C13.541 12.7642 14.9845 13.5824 16.5652 13.9792C18.1459 14.376 19.8047 14.3366 21.3647 13.8651C20.9124 15.3522 20.0828 16.6968 18.9565 17.7679C17.8302 18.8391 16.4457 19.6003 14.9378 19.9774C13.4299 20.3545 11.8501 20.3347 10.3522 19.9199C8.85423 19.505 7.48926 18.7093 6.39019 17.6103C5.29112 16.5112 4.49543 15.1462 4.0806 13.6483C3.66577 12.1504 3.64596 10.5705 4.02308 9.06265C4.4002 7.55478 5.1614 6.17028 6.23255 5.04399C7.3037 3.9177 8.64828 3.08801 10.1353 2.63574Z" stroke="#02295A" stroke-width="1.5" stroke-linecap="round" stroke-linejoin="round"/>
</svg>
