<svg width="24" height="25" viewBox="0 0 24 25" fill="none" xmlns="http://www.w3.org/2000/svg">
<path d="M8.19119 3.65595C7.30475 3.44802 6.38222 3.44802 5.49578 3.65595C4.33479 3.92828 3.42828 4.83479 3.15595 5.99578C2.94802 6.88222 2.94802 7.80475 3.15595 8.69119C3.42828 9.85218 4.33479 10.7587 5.49578 11.031C6.38222 11.239 7.30475 11.239 8.19119 11.031C9.35218 10.7587 10.2587 9.85218 10.531 8.69119C10.739 7.80475 10.739 6.88222 10.531 5.99578C10.2587 4.83479 9.35218 3.92828 8.19119 3.65595Z" fill="url(#paint0_linear_1862_17134)"/>
<path d="M8.19119 13.969C7.30475 13.761 6.38222 13.761 5.49578 13.969C4.33479 14.2413 3.42828 15.1478 3.15595 16.3088C2.94802 17.1952 2.94802 18.1178 3.15595 19.0042C3.42828 20.1652 4.33479 21.0717 5.49578 21.3441C6.38222 21.552 7.30475 21.552 8.19119 21.3441C9.35218 21.0717 10.2587 20.1652 10.531 19.0042C10.739 18.1178 10.739 17.1952 10.531 16.3088C10.2587 15.1478 9.35218 14.2413 8.19119 13.969Z" fill="url(#paint1_linear_1862_17134)"/>
<path d="M18.5042 3.65595C17.6178 3.44802 16.6952 3.44802 15.8088 3.65595C14.6478 3.92828 13.7413 4.83479 13.469 5.99578C13.261 6.88222 13.261 7.80475 13.469 8.69119C13.7413 9.85218 14.6478 10.7587 15.8088 11.031C16.6952 11.239 17.6178 11.239 18.5042 11.031C19.6652 10.7587 20.5717 9.85218 20.8441 8.69119C21.052 7.80475 21.052 6.88222 20.8441 5.99578C20.5717 4.83479 19.6652 3.92828 18.5042 3.65595Z" fill="url(#paint2_linear_1862_17134)"/>
<path d="M18.5042 13.969C17.6178 13.761 16.6952 13.761 15.8088 13.969C14.6478 14.2413 13.7413 15.1478 13.469 16.3088C13.261 17.1952 13.261 18.1178 13.469 19.0042C13.7413 20.1652 14.6478 21.0717 15.8088 21.3441C16.6952 21.552 17.6178 21.552 18.5042 21.3441C19.6652 21.0717 20.5717 20.1652 20.8441 19.0042C21.052 18.1178 21.052 17.1952 20.8441 16.3088C20.5717 15.1478 19.6652 14.2413 18.5042 13.969Z" fill="url(#paint3_linear_1862_17134)"/>
<defs>
<linearGradient id="paint0_linear_1862_17134" x1="47.3494" y1="12.5" x2="3" y2="12.5" gradientUnits="userSpaceOnUse">
<stop stop-color="#00E213"/>
<stop offset="1" stop-color="#01B5CF"/>
</linearGradient>
<linearGradient id="paint1_linear_1862_17134" x1="47.3494" y1="12.5" x2="3" y2="12.5" gradientUnits="userSpaceOnUse">
<stop stop-color="#00E213"/>
<stop offset="1" stop-color="#01B5CF"/>
</linearGradient>
<linearGradient id="paint2_linear_1862_17134" x1="47.3494" y1="12.5" x2="3" y2="12.5" gradientUnits="userSpaceOnUse">
<stop stop-color="#00E213"/>
<stop offset="1" stop-color="#01B5CF"/>
</linearGradient>
<linearGradient id="paint3_linear_1862_17134" x1="47.3494" y1="12.5" x2="3" y2="12.5" gradientUnits="userSpaceOnUse">
<stop stop-color="#00E213"/>
<stop offset="1" stop-color="#01B5CF"/>
</linearGradient>
</defs>
</svg>
