<svg width="182" height="183" viewBox="0 0 182 183" fill="none" xmlns="http://www.w3.org/2000/svg">
<rect x="0.56875" y="1.06875" width="180.863" height="180.863" rx="90.4313" fill="#F9F9FF"/>
<rect x="0.56875" y="1.06875" width="180.863" height="180.863" rx="90.4313" stroke="#E6EBF6" stroke-width="1.1375"/>
<path opacity="0.4" d="M119.95 93.9092C119.297 93.9092 118.644 93.705 118.072 93.2559C101.616 80.5567 80.3421 80.5567 63.8863 93.2559C62.5388 94.2767 60.6196 94.0318 59.5988 92.7251C58.578 91.3776 58.823 89.4584 60.1297 88.4376C78.8722 73.9417 103.086 73.9417 121.788 88.4376C123.135 89.4584 123.38 91.3776 122.319 92.7251C121.788 93.5009 120.89 93.9092 119.95 93.9092Z" fill="#02295A"/>
<path d="M131.834 79.6992C131.18 79.6992 130.527 79.4951 129.955 79.0459C106.272 60.7525 75.6879 60.7525 52.0454 79.0459C50.6979 80.0667 48.7787 79.8218 47.7579 78.5151C46.737 77.1676 46.982 75.2484 48.2886 74.2276C74.2178 54.1784 107.742 54.1784 133.712 74.2276C135.06 75.2484 135.304 77.1676 134.243 78.5151C133.671 79.2909 132.732 79.6992 131.834 79.6992Z" fill="#02295A"/>
<path d="M112.274 108.814C111.621 108.814 110.968 108.609 110.396 108.16C98.6359 99.0544 83.4051 99.0544 71.6042 108.16C70.2567 109.181 68.3376 108.936 67.3167 107.629C66.2959 106.282 66.5409 104.363 67.8476 103.342C81.8942 92.4802 100.065 92.4802 114.112 103.342C115.459 104.363 115.704 106.282 114.643 107.629C114.071 108.405 113.173 108.814 112.274 108.814Z" fill="#02295A"/>
<path opacity="0.4" d="M101.617 123.758C100.964 123.758 100.311 123.554 99.739 123.105C94.4307 118.981 87.5299 118.981 82.2215 123.105C80.874 124.126 78.9549 123.881 77.934 122.574C76.9132 121.227 77.1582 119.307 78.4648 118.287C86.0598 112.407 95.8599 112.407 103.455 118.287C104.802 119.307 105.047 121.227 103.986 122.574C103.455 123.309 102.557 123.758 101.617 123.758Z" fill="#02295A"/>
<rect x="116" y="63.5" width="19" height="19" fill="white"/>
<path d="M126 58.5C122.71 58.5 119.665 59.655 117.25 61.58C114.03 64.135 112 68.09 112 72.5C112 75.125 112.735 77.61 114.03 79.71C116.445 83.77 120.89 86.5 126 86.5C129.535 86.5 132.755 85.205 135.205 83C136.29 82.09 137.235 80.97 137.97 79.71C139.265 77.61 140 75.125 140 72.5C140 64.765 133.735 58.5 126 58.5ZM120.47 70.6101C119.455 69.5951 119.455 67.9151 120.47 66.9001C121.52 65.8851 123.165 65.8851 124.215 66.9001L126.035 68.755L127.785 66.9699C128.835 65.9549 130.48 65.9549 131.53 66.9699C132.545 68.0199 132.545 69.665 131.53 70.715L129.745 72.465L131.6 74.285C132.615 75.335 132.615 76.9801 131.6 78.0301C131.075 78.5201 130.41 78.7649 129.745 78.7649C129.08 78.7649 128.415 78.5201 127.89 78.0301L126.035 76.175L124.11 78.0999C123.585 78.6249 122.92 78.87 122.255 78.87C121.59 78.87 120.925 78.6249 120.4 78.0999C119.385 77.0849 119.385 75.4049 120.4 74.3899L122.325 72.465L120.47 70.6101Z" fill="#02295A"/>
</svg>
