<svg width="192" height="192" viewBox="0 0 192 192" fill="none" xmlns="http://www.w3.org/2000/svg">
<g filter="url(#filter0_d_247_9308)">
<rect x="5" y="3" width="182" height="182" rx="91" fill="white"/>
<ellipse cx="114.5" cy="164.5" rx="65.5" ry="6.5" fill="#F9F9FF"/>
<path fill-rule="evenodd" clip-rule="evenodd" d="M72.8928 67.5281C74.5847 59.5136 81.2105 53.0978 89.7956 52.067C97.532 51.1381 104.758 54.8346 108.702 60.9796C103.986 61.3747 99.0796 61.9783 94.0693 62.797C86.5432 64.0267 79.3931 65.6423 72.8928 67.5281ZM62.4759 70.9893C62.7542 56.4258 73.7294 43.9242 88.6034 42.1383C102.188 40.5073 114.729 48.3302 119.633 60.4281C125.108 60.3465 130.169 60.5864 134.644 61.1346C140.053 61.7973 144.899 62.9446 148.636 64.7125C152.204 66.4003 155.949 69.2526 156.708 73.8963C157.467 78.54 154.824 82.4363 151.979 85.1718C148.999 88.0373 144.77 90.6674 139.854 93.0173C135.508 95.0944 130.415 97.051 124.771 98.8045L160.814 157.529C162.258 159.882 161.521 162.961 159.168 164.405C156.814 165.85 153.735 165.113 152.291 162.759L114.731 101.563C110.308 102.631 105.661 103.572 100.86 104.357C95.5747 105.22 90.4044 105.845 85.4519 106.237L76.9975 160.908C76.5755 163.637 74.0211 165.507 71.2921 165.085C68.5632 164.663 66.693 162.109 67.115 159.38L75.2575 106.726C69.7979 106.806 64.7497 106.566 60.2856 106.019C54.8766 105.356 50.0308 104.209 46.2936 102.441C42.7261 100.753 38.9804 97.901 38.2216 93.2573C37.4628 88.6136 40.1058 84.7173 42.9505 81.9819C45.9305 79.1163 50.1592 76.4862 55.0758 74.1363C57.3477 73.0504 59.8237 71.9975 62.4759 70.9893ZM48.1045 91.6424C48.2055 91.8255 48.6797 92.5073 50.57 93.4016C52.9488 94.5269 56.6141 95.4944 61.5017 96.0932C65.9467 96.6378 71.161 96.8495 76.9161 96.6887C77.8805 93.5558 80.3526 91.0096 83.6546 90.0772C90.5922 88.1181 102.24 85.307 110.674 84.9974C114.34 84.8627 117.451 86.8781 119.144 89.6364L119.361 89.9895C125.591 88.1768 131.076 86.1291 135.542 83.9949C139.984 81.8715 143.151 79.7876 145.048 77.9636C146.555 76.5141 146.788 75.7168 146.825 75.5112C146.724 75.3282 146.25 74.6463 144.36 73.752C141.981 72.6267 138.316 71.6592 133.428 71.0604C123.721 69.8711 110.347 70.2698 95.682 72.6661C81.0169 75.0624 68.2113 78.9416 59.3881 83.1587C54.9454 85.2821 51.7787 87.366 49.8818 89.19C48.3745 90.6395 48.1419 91.4368 48.1045 91.6424Z" fill="#C0C9E2"/>
<circle cx="128.5" cy="48.5" r="6.5" fill="#E6EBF6"/>
<path d="M40.7409 44.4633C41.778 42.0338 45.222 42.0338 46.2591 44.4633L48.0822 48.7339C48.3768 49.4241 48.9195 49.9788 49.603 50.2886L53.9699 52.2675C56.3189 53.3319 56.3189 56.6681 53.9699 57.7325L49.603 59.7114C48.9195 60.0212 48.3768 60.5759 48.0822 61.2661L46.2591 65.5367C45.222 67.9662 41.778 67.9662 40.7409 65.5367L38.9178 61.2661C38.6232 60.5759 38.0805 60.0212 37.397 59.7114L33.0301 57.7325C30.6811 56.6681 30.6811 53.3319 33.0301 52.2675L37.397 50.2886C38.0805 49.9788 38.6232 49.4241 38.9178 48.7339L40.7409 44.4633Z" fill="#E6EBF6"/>
</g>
<defs>
<filter id="filter0_d_247_9308" x="0" y="0" width="192" height="192" filterUnits="userSpaceOnUse" color-interpolation-filters="sRGB">
<feFlood flood-opacity="0" result="BackgroundImageFix"/>
<feColorMatrix in="SourceAlpha" type="matrix" values="0 0 0 0 0 0 0 0 0 0 0 0 0 0 0 0 0 0 127 0" result="hardAlpha"/>
<feOffset dy="2"/>
<feGaussianBlur stdDeviation="2.5"/>
<feComposite in2="hardAlpha" operator="out"/>
<feColorMatrix type="matrix" values="0 0 0 0 0 0 0 0 0 0 0 0 0 0 0 0 0 0 0.03 0"/>
<feBlend mode="normal" in2="BackgroundImageFix" result="effect1_dropShadow_247_9308"/>
<feBlend mode="normal" in="SourceGraphic" in2="effect1_dropShadow_247_9308" result="shape"/>
</filter>
</defs>
</svg>
