<svg width="24" height="24" viewBox="0 0 24 24" fill="none" xmlns="http://www.w3.org/2000/svg">
<path d="M15.25 17.25H5.25C4.42 17.25 3.94 16.31 4.43 15.64L5.6 14.04C6.03 13.45 6.25 12.74 6.25 12.01V9.75C6.25 6.57 8.82 4 12 4C14.28 4 16.25 5.33 17.17 7.26" stroke="url(#notificationGradient)" stroke-width="1.5" stroke-linecap="round" stroke-linejoin="round"/>
<path d="M9.5 19.25C9.89 19.72 10.76 20 12 20C13.24 20 14.11 19.72 14.5 19.25" stroke="url(#notificationGradient)" stroke-width="1.5" stroke-linecap="round"/>
<path d="M16 10H20.5M16 14H20.5M18.75 8.75V11.25M17.25 12.75V15.25" stroke="url(#notificationGradient)" stroke-width="1.5" stroke-linecap="round"/>
<defs>
<linearGradient id="notificationGradient" x1="12" y1="-3.05769" x2="12" y2="21" gradientUnits="userSpaceOnUse">
<stop stop-color="#00E213"/>
<stop offset="1" stop-color="#01B5CF"/>
</linearGradient>
</defs>
</svg>
