<svg width="182" height="182" viewBox="0 0 182 182" fill="none" xmlns="http://www.w3.org/2000/svg">
<rect x="0.25" y="0.25" width="181.5" height="181.5" rx="90.75" fill="#F9F9FF"/>
<rect x="0.25" y="0.25" width="181.5" height="181.5" rx="90.75" stroke="#E6EBF6" stroke-width="0.5"/>
<path d="M126.358 104.835L126.364 104.845C127.983 107.501 128.267 110.631 127.194 113.478C126.108 116.36 123.873 118.539 120.991 119.486L120.979 119.49C111.359 122.714 101.234 124.303 91.1014 124.303C80.9686 124.303 70.8478 122.714 61.2343 119.443L61.2297 119.441C58.0289 118.36 55.7195 116.17 54.7677 113.513L54.7645 113.504L54.7612 113.495C53.7548 110.758 54.0771 107.714 55.7956 104.833C55.7967 104.831 55.7978 104.829 55.7988 104.827L60.9263 96.3491L60.9357 96.3337L60.9448 96.318C61.6184 95.1632 62.1905 93.605 62.5925 92.1263C62.9941 90.6492 63.2888 89.021 63.2888 87.6964V74.8355C63.2888 59.5209 75.741 47.0229 91.1014 47.0229C106.462 47.0229 118.914 59.5209 118.914 74.8355V87.6964C118.914 89.0209 119.209 90.6489 119.61 92.1301C120.012 93.6166 120.581 95.1767 121.245 96.3455L121.259 96.3712L121.274 96.3966L126.358 104.835Z" fill="#01B5CF" stroke="#02295A" stroke-width="4.5614"/>
<path d="M102.437 46.877C98.929 45.5045 95.1165 44.742 91.1007 44.742C87.1357 44.742 83.3232 45.4537 79.8157 46.877C82.0015 42.7595 86.3223 40.167 91.1007 40.167C95.9298 40.167 100.2 42.7595 102.437 46.877Z" fill="#02295A"/>
<path d="M105.387 131.718C103.252 137.614 97.6092 141.834 91.0009 141.834C86.9851 141.834 83.0201 140.207 80.2242 137.309C78.5976 135.784 77.3776 133.751 76.6659 131.667C77.3267 131.769 77.9876 131.819 78.6992 131.921C79.8684 132.074 81.0884 132.226 82.3084 132.328C85.2059 132.582 88.1542 132.734 91.1026 132.734C94.0001 132.734 96.8976 132.582 99.7442 132.328C100.812 132.226 101.879 132.175 102.896 132.023C103.709 131.921 104.523 131.819 105.387 131.718Z" fill="#02295A"/>
<rect x="107" y="51" width="15" height="15" fill="white"/>
<path d="M115 45C111.945 45 109.117 46.0725 106.875 47.86C103.885 50.2325 102 53.905 102 58C102 60.4375 102.683 62.745 103.885 64.695C106.128 68.465 110.255 71 115 71C118.282 71 121.273 69.7975 123.548 67.75C124.555 66.905 125.432 65.865 126.115 64.695C127.317 62.745 128 60.4375 128 58C128 50.8175 122.183 45 115 45ZM109.865 56.2451C108.922 55.3026 108.922 53.7426 109.865 52.8001C110.84 51.8576 112.368 51.8576 113.343 52.8001L115.032 54.5225L116.657 52.8649C117.632 51.9224 119.16 51.9224 120.135 52.8649C121.078 53.8399 121.078 55.3675 120.135 56.3425L118.477 57.9675L120.2 59.6575C121.142 60.6325 121.142 62.1601 120.2 63.1351C119.712 63.5901 119.095 63.8174 118.477 63.8174C117.86 63.8174 117.243 63.5901 116.755 63.1351L115.032 61.4125L113.245 63.1999C112.757 63.6874 112.14 63.915 111.523 63.915C110.905 63.915 110.288 63.6874 109.8 63.1999C108.858 62.2574 108.858 60.6974 109.8 59.7549L111.588 57.9675L109.865 56.2451Z" fill="#02295A"/>
</svg>
