<svg width="78" height="78" viewBox="0 0 78 78" fill="none" xmlns="http://www.w3.org/2000/svg">
<rect x="15" y="15" width="48" height="48" rx="16" fill="#C0C9E2"/>
<path d="M24.0356 61.4088C24.0448 61.4133 24.0541 61.4178 24.0633 61.4222C26.1618 62.4334 28.5147 63 31 63H47C49.49 63 51.8471 62.4312 53.9485 61.4165C53.9824 61.2098 54 60.9919 54 60.7626C54 55.4907 50.1718 51.0001 44.9693 50.1692L44.5735 50.106C40.8812 49.5164 37.1188 49.5164 33.4265 50.106L33.0307 50.1692C27.8282 51.0001 24 55.4907 24 60.7626C24 60.9891 24.012 61.2044 24.0356 61.4088Z" fill="white"/>
<path d="M39 27C33.784 27 29.5556 31.2312 29.5556 36.4507C29.5556 41.6703 33.784 45.9015 39 45.9015C44.216 45.9015 48.4444 41.6703 48.4444 36.4507C48.4444 31.2312 44.216 27 39 27Z" fill="white"/>
</svg>
