<svg width="25" height="25" viewBox="0 0 25 25" fill="none" xmlns="http://www.w3.org/2000/svg">
<path d="M9.33334 9.5H13.3333M9.33334 15.5H12.3333M9.33334 12.5H15.3333" stroke="#ACBED4" stroke-width="1.5" stroke-linecap="round"/>
<path d="M3.68622 9.45043C4.33772 6.67301 6.50635 4.50437 9.28378 3.85288C11.2896 3.38237 13.3771 3.38237 15.3829 3.85288C18.1603 4.50437 20.329 6.67301 20.9805 9.45044C21.451 11.4563 21.451 13.5437 20.9805 15.5496C20.329 18.327 18.1603 20.4956 15.3829 21.1471C13.3771 21.6176 11.2896 21.6176 9.28378 21.1471C6.50636 20.4956 4.33772 18.327 3.68622 15.5496C3.21572 13.5437 3.21572 11.4563 3.68622 9.45043Z" stroke="#ACBED4" stroke-width="1.5"/>
</svg>
