<svg width="25" height="25" viewBox="0 0 25 25" fill="none" xmlns="http://www.w3.org/2000/svg">
<path fill-rule="evenodd" clip-rule="evenodd" d="M15.3035 3.8437C13.3499 3.38543 11.3167 3.38543 9.363 3.8437C6.54167 4.50549 4.33875 6.70841 3.67695 9.52975C3.21869 11.4834 3.21869 13.5166 3.67695 15.4703C4.33875 18.2916 6.54167 20.4945 9.363 21.1563C11.3167 21.6146 13.3499 21.6146 15.3035 21.1563C18.1248 20.4945 20.3278 18.2916 20.9896 15.4703C21.4478 13.5166 21.4478 11.4834 20.9896 9.52975C20.3278 6.70842 18.1248 4.50549 15.3035 3.8437ZM8.88703 9.62812C8.88703 9.3109 9.14418 9.05374 9.4614 9.05374H13.2905C13.6078 9.05374 13.8649 9.3109 13.8649 9.62812C13.8649 9.94533 13.6078 10.2025 13.2905 10.2025H9.4614C9.14418 10.2025 8.88703 9.94533 8.88703 9.62812ZM8.88703 12.5C8.88703 12.1828 9.14418 11.9256 9.4614 11.9256H15.2051C15.5223 11.9256 15.7795 12.1828 15.7795 12.5C15.7795 12.8172 15.5223 13.0743 15.2051 13.0743H9.4614C9.14418 13.0743 8.88703 12.8172 8.88703 12.5ZM8.88703 15.3718C8.88703 15.0546 9.14418 14.7975 9.4614 14.7975H12.3333C12.6505 14.7975 12.9076 15.0546 12.9076 15.3718C12.9076 15.689 12.6505 15.9462 12.3333 15.9462H9.4614C9.14418 15.9462 8.88703 15.689 8.88703 15.3718Z" fill="url(#paint0_linear_1862_2446)"/>
<defs>
<linearGradient id="paint0_linear_1862_2446" x1="47.6827" y1="12.5" x2="3.33325" y2="12.5" gradientUnits="userSpaceOnUse">
<stop stop-color="#00E213"/>
<stop offset="1" stop-color="#01B5CF"/>
</linearGradient>
</defs>
</svg>
