<svg width="182" height="182" viewBox="0 0 182 182" fill="none" xmlns="http://www.w3.org/2000/svg">
<rect width="182" height="182" fill="#F5F5F5"/>
<rect x="-123" y="-276" width="428" height="926" rx="40" fill="white"/>
<rect x="0.5" y="0.5" width="181" height="181" rx="90.5" fill="#F9F9FF"/>
<rect x="0.5" y="0.5" width="181" height="181" rx="90.5" stroke="#E6EBF6"/>
<path d="M132.89 98.2127V76.1425L121.319 98.2127H132.89ZM139.961 114.426H134.39C133.39 114.426 132.89 113.926 132.89 112.926V106.069H115.177C114.367 106.069 113.724 105.831 113.248 105.355C112.772 104.879 112.534 104.236 112.534 103.427V100.641C112.534 99.2127 112.772 98.046 113.248 97.1413L127.462 70.7142C127.938 69.8571 128.367 69.2857 128.747 69C129.176 68.6667 129.795 68.5 130.605 68.5H138.676C139.485 68.5 140.128 68.7381 140.604 69.2142C141.128 69.6904 141.39 70.3332 141.39 71.1427V98.2127H146.532C147.485 98.2127 147.961 98.6889 147.961 99.6412V104.427C147.961 105.522 147.485 106.069 146.532 106.069H141.39V112.926C141.39 113.498 141.271 113.902 141.033 114.14C140.842 114.331 140.485 114.426 139.961 114.426Z" fill="white"/>
<path fill-rule="evenodd" clip-rule="evenodd" d="M127.462 70.7142L113.248 97.1413C112.772 98.0461 112.534 99.2127 112.534 100.641V103.427C112.534 104.236 112.772 104.879 113.248 105.355C113.724 105.831 114.367 106.069 115.177 106.069H132.89V112.926C132.89 113.926 133.39 114.426 134.39 114.426H139.961C140.485 114.426 140.842 114.331 141.033 114.14C141.271 113.902 141.39 113.498 141.39 112.926V106.069H146.532C147.485 106.069 147.961 105.522 147.961 104.427V99.6412C147.961 98.6889 147.485 98.2127 146.532 98.2127H141.39V71.1427C141.39 70.3332 141.128 69.6904 140.604 69.2142C140.128 68.7381 139.485 68.5 138.676 68.5H130.605C129.795 68.5 129.176 68.6667 128.747 69C128.367 69.2857 127.938 69.8571 127.462 70.7142ZM126.622 66.219C127.897 65.2389 129.39 65 130.605 65H138.676C140.188 65 141.767 65.4625 143.019 66.6805C144.337 67.9115 144.89 69.5279 144.89 71.1427V94.7127H146.532C147.548 94.7127 148.953 94.969 150.078 96.095C151.204 97.2209 151.461 98.6255 151.461 99.6412V104.427C151.461 105.403 151.259 106.789 150.245 107.955C149.149 109.215 147.685 109.569 146.532 109.569H144.89V112.926C144.89 113.819 144.733 115.39 143.507 116.615C142.265 117.857 140.642 117.926 139.961 117.926H134.39C133.351 117.926 131.928 117.664 130.79 116.526C129.652 115.388 129.39 113.966 129.39 112.926V109.569H115.177C113.64 109.569 112.035 109.092 110.773 107.83C109.511 106.568 109.034 104.964 109.034 103.427V100.641C109.034 98.8576 109.326 97.0782 110.151 95.5112L110.158 95.4973L124.391 69.0353L124.402 69.0144C124.913 68.0952 125.628 66.9742 126.622 66.219ZM132.89 76.1425L121.319 98.2127H132.89V76.1425ZM129.39 94.7127V90.3561L127.106 94.7127H129.39Z" fill="#02295A"/>
<path d="M88.9544 106.569H93.1685C94.6922 106.569 95.7636 106.26 96.3826 105.641C97.0016 104.974 97.3111 103.879 97.3111 102.355V80.5708C97.3111 79.0471 97.0016 77.9757 96.3826 77.3567C95.7636 76.69 94.6922 76.3567 93.1685 76.3567H88.9544C87.4307 76.3567 86.3593 76.69 85.7403 77.3567C85.1213 77.9757 84.8118 79.0471 84.8118 80.5708V102.355C84.8118 103.879 85.1213 104.974 85.7403 105.641C86.3593 106.26 87.4307 106.569 88.9544 106.569ZM94.597 114.426H87.4545C83.6928 114.426 80.7882 113.426 78.7407 111.426C76.6932 109.426 75.6694 106.546 75.6694 102.784V80.1422C75.6694 76.3805 76.6932 73.4997 78.7407 71.4998C80.7882 69.4999 83.6928 68.5 87.4545 68.5H94.597C98.3111 68.5 101.192 69.5238 103.239 71.5713C105.287 73.5712 106.311 76.4281 106.311 80.1422V102.784C106.311 106.498 105.287 109.379 103.239 111.426C101.192 113.426 98.3111 114.426 94.597 114.426Z" fill="#01B5CF"/>
<path fill-rule="evenodd" clip-rule="evenodd" d="M93.7731 79.8897C93.6258 79.8712 93.4273 79.8567 93.1685 79.8567H88.9544C88.6957 79.8567 88.4971 79.8712 88.3499 79.8897C88.3286 80.0532 88.3118 80.2766 88.3118 80.5708V102.355C88.3118 102.645 88.328 102.87 88.3497 103.04C88.5044 103.057 88.7037 103.069 88.9544 103.069H93.1685C93.4192 103.069 93.6186 103.057 93.7732 103.04C93.7949 102.87 93.8111 102.645 93.8111 102.355V80.5708C93.8111 80.2766 93.7943 80.0532 93.7731 79.8897ZM96.3826 105.641C95.7636 106.26 94.6922 106.569 93.1685 106.569H88.9544C87.4307 106.569 86.3593 106.26 85.7403 105.641C85.1213 104.974 84.8118 103.879 84.8118 102.355V80.5708C84.8118 79.0471 85.1213 77.9757 85.7403 77.3567C86.3593 76.69 87.4307 76.3567 88.9544 76.3567H93.1685C94.6922 76.3567 95.7636 76.69 96.3826 77.3567C97.0016 77.9757 97.3111 79.0471 97.3111 80.5708V102.355C97.3111 103.879 97.0016 104.974 96.3826 105.641ZM78.7232 111.444L76.2951 113.93C73.3805 111.083 72.1694 107.179 72.1694 102.784V80.1422C72.1694 75.7467 73.3805 71.8428 76.2951 68.996L76.2951 68.996C79.1821 66.1762 83.076 65 87.4545 65H94.597C98.9573 65 102.826 66.2168 105.7 69.082C108.595 71.9194 109.811 75.7867 109.811 80.1422V102.784C109.811 107.151 108.59 111.026 105.714 113.901L105.7 113.916L105.685 113.93C102.806 116.742 98.9424 117.926 94.597 117.926H87.4545C83.076 117.926 79.1821 116.75 76.2951 113.93L78.7232 111.444ZM103.239 71.5713C101.192 69.5238 98.3111 68.5 94.597 68.5H87.4545C83.6928 68.5 80.7882 69.4999 78.7407 71.4998C76.6932 73.4997 75.6694 76.3805 75.6694 80.1422V102.784C75.6694 106.546 76.6932 109.426 78.7407 111.426C80.7882 113.426 83.6928 114.426 87.4545 114.426H94.597C98.3111 114.426 101.192 113.426 103.239 111.426C105.287 109.379 106.311 106.498 106.311 102.784V80.1422C106.311 76.4281 105.287 73.5712 103.239 71.5713Z" fill="#02295A"/>
<path d="M55.9551 98.2127V76.1425L44.3842 98.2127H55.9551ZM63.0261 114.426H57.455C56.455 114.426 55.9551 113.926 55.9551 112.926V106.069H38.2417C37.4322 106.069 36.7894 105.831 36.3132 105.355C35.8371 104.879 35.599 104.236 35.599 103.427V100.641C35.599 99.2127 35.8371 98.046 36.3132 97.1413L50.5268 70.7142C51.0029 69.8571 51.4315 69.2857 51.8124 69C52.241 68.6667 52.86 68.5 53.6695 68.5H61.7405C62.5499 68.5 63.1928 68.7381 63.6689 69.2142C64.1927 69.6904 64.4546 70.3332 64.4546 71.1427V98.2127H69.5972C70.5495 98.2127 71.0257 98.6889 71.0257 99.6412V104.427C71.0257 105.522 70.5495 106.069 69.5972 106.069H64.4546V112.926C64.4546 113.498 64.3356 113.902 64.0975 114.14C63.907 114.331 63.5499 114.426 63.0261 114.426Z" fill="white"/>
<path fill-rule="evenodd" clip-rule="evenodd" d="M50.5268 70.7142L36.3132 97.1413C35.8371 98.0461 35.599 99.2127 35.599 100.641V103.427C35.599 104.236 35.8371 104.879 36.3132 105.355C36.7894 105.831 37.4322 106.069 38.2417 106.069H55.9551V112.926C55.9551 113.926 56.455 114.426 57.455 114.426H63.0261C63.5499 114.426 63.907 114.331 64.0975 114.14C64.3356 113.902 64.4546 113.498 64.4546 112.926V106.069H69.5972C70.5495 106.069 71.0257 105.522 71.0257 104.427V99.6412C71.0257 98.6889 70.5495 98.2127 69.5972 98.2127H64.4546V71.1427C64.4546 70.3332 64.1927 69.6904 63.6689 69.2142C63.1928 68.7381 62.5499 68.5 61.7405 68.5H53.6695C52.86 68.5 52.241 68.6667 51.8124 69C51.4315 69.2857 51.0029 69.8571 50.5268 70.7142ZM49.6872 66.219C50.9619 65.2389 52.4548 65 53.6695 65H61.7405C63.2534 65 64.8315 65.4625 66.0841 66.6805C67.4018 67.9115 67.9546 69.5279 67.9546 71.1427V94.7127H69.5972C70.6129 94.7127 72.0175 94.969 73.1434 96.0949C74.2694 97.2209 74.5257 98.6255 74.5257 99.6412V104.427C74.5257 105.403 74.324 106.789 73.3097 107.955C72.2141 109.215 70.7501 109.569 69.5972 109.569H67.9546V112.926C67.9546 113.819 67.798 115.39 66.5724 116.615C65.3302 117.857 63.7066 117.926 63.0261 117.926H57.455C56.4155 117.926 54.993 117.664 53.8552 116.526C52.7173 115.388 52.4551 113.966 52.4551 112.926V109.569H38.2417C36.7047 109.569 35.1004 109.092 33.8384 107.83C32.5764 106.568 32.099 104.964 32.099 103.427V100.641C32.099 98.8576 32.3913 97.0782 33.216 95.5112L33.2234 95.4973L47.4556 69.0353L47.4672 69.0144C47.9779 68.0952 48.6933 66.9742 49.6872 66.219ZM55.9551 76.1425L44.3842 98.2127H55.9551V76.1425ZM52.4551 94.7127V90.3561L50.171 94.7127H52.4551Z" fill="#02295A"/>
<rect x="136" y="101" width="26" height="26" rx="13" fill="#F9F9FF"/>
<path d="M149 101C145.945 101 143.117 102.073 140.875 103.86C137.885 106.233 136 109.905 136 114C136 116.438 136.683 118.745 137.885 120.695C140.128 124.465 144.255 127 149 127C152.282 127 155.273 125.798 157.548 123.75C158.555 122.905 159.432 121.865 160.115 120.695C161.317 118.745 162 116.438 162 114C162 106.818 156.183 101 149 101ZM143.865 112.245C142.922 111.303 142.922 109.743 143.865 108.8C144.84 107.858 146.368 107.858 147.343 108.8L149.032 110.522L150.657 108.865C151.632 107.922 153.16 107.922 154.135 108.865C155.078 109.84 155.078 111.367 154.135 112.342L152.477 113.967L154.2 115.658C155.142 116.633 155.142 118.16 154.2 119.135C153.712 119.59 153.095 119.817 152.477 119.817C151.86 119.817 151.243 119.59 150.755 119.135L149.032 117.412L147.245 119.2C146.757 119.687 146.14 119.915 145.523 119.915C144.905 119.915 144.288 119.687 143.8 119.2C142.858 118.257 142.858 116.697 143.8 115.755L145.588 113.967L143.865 112.245Z" fill="#02295A"/>
</svg>
