<svg width="74" height="51" viewBox="0 0 74 51" fill="none" xmlns="http://www.w3.org/2000/svg">
<path d="M33.7619 9.59C33.5311 9.82353 33.8451 10.0311 33.7954 10.2561C33.789 10.5062 33.813 10.7698 33.5409 10.9177C33.2679 10.5892 33.5569 9.96331 32.954 9.8098C33.1877 9.60551 33.4787 9.60921 33.7619 9.59Z" fill="#92D96F"/>
<path d="M16.9488 14.1169C13.3232 15.05 9.70809 16.022 6.11772 17.074C4.61093 17.5161 3.46335 18.6021 2.6658 20.0176C1.67181 21.7825 1.57782 23.578 2.13719 25.5101C2.93288 28.2557 3.60654 31.0373 4.33576 33.8024C4.9804 36.2517 5.68257 38.6856 6.25835 41.1517C6.62959 42.7425 7.11842 44.2185 8.2643 45.4467C10.0486 47.3589 12.2816 48.0658 14.7368 47.5363C17.8395 46.8666 20.8631 45.8331 23.9465 45.0602C26.6457 44.3837 29.3205 43.6286 32.006 42.9074C34.8459 42.1464 37.7063 41.4683 40.5479 40.7136C43.5435 39.9176 15.4178 47.3905 18.4109 46.5852C21.6014 45.7269 24.8 44.9049 27.9939 44.0591C32.6899 42.8158 37.3892 41.5849 42.077 40.3172C45.2756 39.4518 48.4702 38.5525 51.69 37.7597C54.203 37.1414 56.7204 36.5269 59.2047 35.8012C60.4072 35.449 61.6412 35.2267 62.8297 34.8099C64.0322 34.3893 65.277 34.0457 66.5313 33.8247C69.8546 33.2376 72.3769 30.0847 72.1627 26.7782C72.0592 25.1724 71.4985 23.6957 71.1189 22.1672C70.5269 19.7837 69.9661 17.3919 69.2812 15.0351C68.7161 13.0878 68.2603 11.113 67.7225 9.16176C67.3124 7.67473 66.8662 6.22737 65.755 5.01656C63.9821 3.08456 61.839 2.50195 59.3638 2.93181C58.185 3.13599 57.0353 3.51739 55.8726 3.81894C53.7828 4.36223 51.6911 4.90437 49.6025 5.45232C48.2089 5.81907 46.8161 6.18894 45.4263 6.56969C43.9586 6.97127 42.4986 7.40749 41.0272 7.79508C39.2976 8.25185 37.5538 8.6491 35.8279 9.11323C32.9662 9.88001 30.1179 10.6966 27.2553 11.4602C24.0456 12.3153 20.827 13.131 17.6135 13.9721C16.6304 14.2288 15.6554 14.5218 14.6728 14.78C12.6065 15.3237 10.5251 15.8114 8.47483 16.4024M33.6741 10.2637C33.7305 10.4287 33.7268 10.5452 33.6628 10.6135L33.6741 10.2637ZM32.5635 13.5034C36.6044 12.4157 40.6264 11.2513 44.6867 10.2484C47.2238 9.62025 49.7611 8.98038 52.2726 8.26909C54.7359 7.57072 57.2472 7.05784 59.6793 6.24946C61.4454 5.66124 63.4503 6.81093 63.9933 8.60075C64.826 11.3414 65.4996 14.123 66.2262 16.8905C66.8413 19.236 67.5455 21.5594 68.1767 23.9023C68.4175 24.8013 68.6395 25.717 68.7449 26.6389C68.9741 28.6761 67.8666 30.0114 65.8525 30.501C63.0779 31.1761 60.3291 31.966 57.5705 32.7069C54.551 33.5193 51.534 34.341 48.512 35.1441C45.8244 35.8575 43.1414 36.5881 40.4361 37.223C39.9136 37.3447 39.6929 38.1322 39.2615 37.8661C38.7027 37.5224 38.3613 37.8473 37.9301 37.9611C36.2281 38.4089 34.5242 38.8554 32.823 39.3062C30.6771 39.8763 28.5339 40.4505 26.3884 41.0221C23.8945 41.687 21.4005 42.3519 18.9078 43.0148C18.5004 43.4107 17.9705 43.3926 17.4589 43.443C14.6367 44.1143 42.9434 36.5395 40.1482 37.3118C37.1636 38.1365 34.1245 38.7758 31.1646 39.6739C29.5644 40.1594 27.9261 40.465 26.3254 40.9489C23.3892 41.8357 20.3727 42.4539 17.4287 43.3178C16.3871 43.6235 15.3235 43.8285 14.283 44.1507C12.3729 44.7425 10.3417 43.6565 9.84579 41.5507C9.35655 39.4698 8.68577 37.4392 8.19426 35.3622C7.51271 32.4827 6.58812 29.6666 5.98588 26.7659C5.83379 26.0365 5.55322 25.3315 5.33145 24.6159C4.78764 22.8663 5.479 21.0358 7.11889 20.263C7.9268 19.8815 8.85783 19.7604 9.73417 19.5222C12.0474 18.8924 14.3579 18.2583 16.6733 17.6362C19.1255 16.9775 21.5794 16.3249 24.0343 15.6822C25.2475 15.3638 26.4662 15.0722 27.6836 14.7693C27.9098 14.5621 28.1595 14.4301 28.4802 14.5259" fill="#49C00F"/>
<path d="M23.6485 13.7265C23.4306 13.6598 23.0895 13.5812 23.2262 13.3696C23.3689 13.1496 23.2304 12.645 23.7073 12.7139C23.9712 12.7532 24.3165 12.6857 24.4585 13.0477C24.4886 13.123 24.446 13.3061 24.6177 13.2501C24.7661 13.2003 24.8788 12.9117 25.0582 13.177C25.1575 13.3238 25.0375 13.4293 24.893 13.4563C24.6995 13.4932 24.5441 13.8399 24.2953 13.4965C23.8791 12.9196 23.931 13.8725 23.6485 13.7265Z" fill="#92D96F"/>
<path d="M17.4574 43.4444C17.8912 43.1348 18.4236 43.1622 18.9062 43.0162C18.5821 44.0649 18.2596 44.1613 17.4574 43.4444Z" fill="#92D96F"/>
<path d="M25.5876 12.1851C25.6961 12.1794 25.7665 12.1872 25.8314 12.1682C26.2225 12.06 26.5113 12.236 26.7573 12.5068C26.7788 12.5311 26.7021 12.6433 26.6709 12.7133C26.3984 12.393 25.7835 12.7794 25.5872 12.1836L25.5876 12.1851Z" fill="#92D96F"/>
<path d="M28.4781 14.5259C28.2528 14.7363 27.975 14.7757 27.6816 14.7693C27.6934 14.4778 27.7857 14.2747 28.128 14.2396C28.3744 14.2136 28.4661 14.3007 28.4766 14.5263L28.4781 14.5259Z" fill="#92D96F"/>
<path d="M33.5424 10.9189C33.5393 10.6647 33.616 10.4408 33.7969 10.2573C33.9679 10.3982 34.2099 10.5234 34.0098 10.797C33.8991 10.95 33.774 11.1736 33.5424 10.9189Z" fill="#92D96F"/>
<path d="M44.1151 8.23964C43.791 8.36148 43.5909 8.26174 43.4326 8.06912C43.4151 8.04715 43.4756 7.90592 43.5222 7.89342C43.7963 7.81499 43.9693 7.95698 44.1151 8.23964Z" fill="#92D96F"/>
<path d="M42.2659 32.5876C41.9203 32.6419 41.5157 32.7553 41.3543 32.3335C41.1967 31.9256 41.4673 31.5547 41.7943 31.3938C42.3819 31.1046 42.5753 30.7128 42.3838 30.104C42.3603 30.0286 42.322 29.9105 42.3565 29.8713C42.6938 29.4942 42.3832 29.4174 42.1702 29.1327C41.8805 28.7419 41.9126 28.1216 41.7705 27.6096C40.9627 24.7005 40.3259 21.7457 39.3984 18.8687C39.2006 18.255 38.9373 17.8138 38.1411 17.9838C37.7453 18.0681 37.4152 17.7632 37.35 17.3456C37.2821 16.912 37.6153 16.7244 37.9672 16.6318C39.8468 16.1315 41.7297 15.6437 43.6142 15.1554C43.9665 15.0643 44.2863 15.1503 44.4145 15.5044C44.5414 15.8537 44.4956 16.1927 44.0714 16.3581C43.4467 16.6021 43.2958 17.0343 43.4012 17.7012C43.5932 18.9216 43.9998 20.0845 44.2789 21.2816C44.7931 23.4808 45.4206 25.6547 46.0119 27.8366C46.157 28.3778 46.3342 28.9088 46.5119 29.4412C46.6304 29.7962 46.9193 29.9539 47.2669 29.9074C47.8152 29.8322 48.3193 29.9405 48.3628 30.5322C48.4077 31.1353 47.8178 31.1233 47.3788 31.2393C45.7767 31.6619 44.183 32.1156 42.5836 32.5542C42.481 32.5817 42.3704 32.5796 42.2651 32.5911L42.2659 32.5876Z" fill="#49C00F"/>
<path d="M14.1622 40.1048C13.8734 40.1405 13.5818 40.1037 13.4643 39.7584C13.353 39.4365 13.4714 39.1131 13.7642 39.0113C14.7847 38.6579 14.6879 37.9236 14.4824 37.1253C13.9833 35.182 13.4921 33.2366 12.9837 31.2959C12.5567 29.665 12.0975 28.0445 11.683 26.4103C11.5203 25.7721 11.2668 25.3299 10.5104 25.3876C10.308 25.4035 10.0936 25.3126 9.89182 25.2499C9.62994 25.1684 9.50366 24.9522 9.48656 24.7018C9.46746 24.4252 9.64958 24.2464 9.89914 24.1761C11.3642 23.7586 12.8264 23.3368 14.2993 22.9488C14.671 22.8492 15.0054 23.0146 15.1095 23.4218C15.5804 25.2476 16.0229 27.0793 16.5046 28.9022C16.9543 30.6053 17.4382 32.2993 17.9093 33.995C18.1508 34.8654 18.3866 35.7391 18.6453 36.6049C18.8266 37.2131 19.2296 37.4668 19.8683 37.2874C20.3087 37.1643 20.6255 37.3762 20.7476 37.7635C20.8752 38.1711 20.5969 38.439 20.2258 38.5284C18.2544 39.0033 16.28 39.4607 14.342 40.0667C14.2911 40.082 14.2377 40.0879 14.1587 40.1041L14.1622 40.1048Z" fill="#49C00F"/>
<path d="M50.7094 30.43C50.3043 30.4486 49.8372 30.5904 49.6941 30.0503C49.5783 29.6179 49.7801 29.3072 50.2485 29.1333C50.9685 28.8654 50.9372 28.257 50.7755 27.6535C50.2488 25.6877 49.7069 23.7276 49.177 21.7626C48.7537 20.189 48.3316 18.6136 47.9301 17.0342C47.7314 16.249 47.4202 15.6289 46.461 15.6759C46.0762 15.6957 45.8476 15.4586 45.7814 15.1179C45.7077 14.7309 45.9648 14.527 46.3096 14.433C47.6964 14.053 49.0802 13.6622 50.4741 13.3088C50.9034 13.2004 51.1989 13.4446 51.3091 13.8685C52.0522 16.7348 52.7801 19.6069 53.5356 22.47C54.0324 24.3555 54.5375 26.2405 55.1024 28.1061C55.3278 28.8475 55.1488 29.2122 54.413 29.4026C53.1721 29.7235 51.942 30.0847 50.7074 30.4289L50.7094 30.43Z" fill="#49C00F"/>
<path d="M63.4342 20.0639C63.7362 21.8317 63.3206 23.4533 62.5129 24.9615C62.0251 25.8724 61.0792 26.3859 60.282 27.0062C59.3926 27.6996 58.3462 28.1367 57.3237 28.6007C57.0431 28.7292 56.761 28.7714 56.465 28.7491C56.1181 28.7237 55.9476 28.4793 55.877 28.1782C55.8054 27.874 55.9736 27.6555 56.236 27.5336C56.4774 27.4205 56.7341 27.2901 56.9908 27.2713C58.3261 27.1719 59.3709 25.5717 59.4379 24.3536C59.5508 22.293 59.0446 20.3167 58.4358 18.3745C58.1272 17.3904 57.7586 16.4256 57.1332 15.5597C56.3314 14.446 55.3675 13.7975 53.9601 13.9512C53.6136 13.9891 53.2664 14.0187 52.9241 14.0788C52.4798 14.1562 52.1029 14.1305 52.0194 13.5827C51.9407 13.0587 52.279 12.8781 52.7096 12.7744C54.0283 12.4577 55.3589 12.4962 56.6903 12.6562C57.6479 12.7714 58.6578 12.8325 59.4919 13.2891C60.7013 13.9518 61.6146 15.0023 62.2783 16.2164C62.9371 17.4184 63.3304 18.7182 63.4354 20.062L63.4342 20.0639Z" fill="#49C00F"/>
<path d="M34.7688 34.5679C34.4959 34.576 34.0793 34.8126 33.9099 34.3546C33.7572 33.9404 34.0646 33.6631 34.371 33.4193C35.2513 32.7167 35.2643 32.7032 34.6485 31.7797C33.4637 30.0018 32.1716 28.3027 30.8776 26.6025C29.9745 25.4159 29.1428 24.1719 28.3161 22.9281C27.9867 22.433 27.5929 22.1701 26.9966 22.1965C26.4678 22.2199 26.0697 22.0532 25.8902 21.4828C25.7067 20.9036 25.7589 20.4579 26.2975 20.0852C27.1388 19.5047 28.0562 19.0839 28.9999 18.7176C29.45 18.5437 29.8599 18.7672 30.132 19.1294C31.4636 20.9013 32.7743 22.6887 34.1005 24.4654C35.3464 26.1352 36.5656 27.8238 37.8635 29.4513C38.5063 30.2576 38.9874 31.2255 39.9519 31.7522C40.1806 31.8776 40.3428 32.0725 40.66 31.9808C40.9247 31.9049 41.1364 32.0916 41.1919 32.3484C41.259 32.6488 41.0985 32.9019 40.8146 32.9746C39.6086 33.2827 38.4478 33.7471 37.2056 33.9449C36.4001 34.0741 35.6483 34.4722 34.7684 34.5663L34.7688 34.5679Z" fill="#49C00F"/>
<path d="M18.0461 22.1508C19.1769 22.0595 20.3091 21.9862 21.361 22.5028C22.8559 23.2358 23.3748 24.6686 23.5225 26.1343C23.7555 28.4472 22.6829 29.8998 20.4712 30.6974C19.918 30.8973 19.3584 31.0856 18.797 31.2611C18.4986 31.3544 18.1472 31.5235 17.9483 31.1234C17.7571 30.7396 17.7668 30.3403 18.0956 30.0121C18.2074 29.9005 18.3573 29.8253 18.4801 29.7241C19.1647 29.1622 19.5681 28.509 19.3467 27.5582C19.1052 26.5261 19.1116 25.4242 18.2995 24.5833C17.8476 24.116 17.3803 23.7778 16.694 23.8483C16.227 23.8968 15.9156 23.7052 15.8517 23.2056C15.7843 22.6802 16.0943 22.4871 16.5441 22.4116C17.0465 22.327 17.5477 22.2377 18.0497 22.1515L18.0461 22.1508Z" fill="#49C00F"/>
<path d="M29.0018 25.9731C28.9054 27.2741 28.8094 28.5767 28.7113 29.8782C28.6186 31.0999 28.4868 32.3187 28.4425 33.5408C28.4092 34.4365 28.7143 34.6731 29.617 34.6329C29.7505 34.6272 29.8821 34.6019 30.0142 34.5849C30.4078 34.5361 30.6263 34.7792 30.7413 35.0901C30.8755 35.4542 30.6089 35.6474 30.3144 35.7363C29.1928 36.0735 28.0644 36.3908 26.9359 36.7082C26.6288 36.7938 26.3134 36.855 26.0019 36.9302C25.7276 36.9953 25.4683 36.9981 25.2778 36.7474C25.0813 36.4867 25.1411 36.169 25.3456 36.0175C27.0613 34.7377 26.5606 32.8132 26.8315 31.1053C27.1893 28.8574 27.233 26.582 27.5021 24.3263C27.5278 24.111 27.5409 23.8675 27.8089 23.829C28.0306 23.7979 28.1429 23.9929 28.2044 24.1665C28.4257 24.7872 29.0782 25.2192 28.9987 25.9739L29.0018 25.9731Z" fill="#49C00F"/>
<path d="M30.5467 30.6695C30.133 30.712 29.6069 31.0563 29.4739 30.3052C29.3621 29.67 29.7276 29.3854 30.289 29.235C31.4624 28.9172 32.1691 29.0663 32.1388 29.7245C32.0993 30.6285 31.2063 30.4561 30.6229 30.6491C30.5965 30.6562 30.5716 30.6628 30.5451 30.6699L30.5467 30.6695Z" fill="#49C00F"/>
<path d="M30.0793 21.5084C30.5695 21.3971 30.9208 21.4763 30.9837 22.0779C31.0172 22.4023 31.2724 22.6206 31.5952 22.6058C32.3609 22.5707 32.3981 23.0891 32.3694 23.6102C32.3269 24.3784 32.3115 25.0426 33.3844 25.0652C33.8153 25.0748 33.9321 25.6786 33.6107 25.9847C32.8053 26.7489 31.6877 26.5033 31.3498 25.4787C31.286 25.2841 31.2335 25.1131 30.9941 25.1339C30.2905 25.1958 30.1396 24.7195 30.0739 24.182C29.9773 23.3861 29.9986 22.5636 28.9295 22.3249C28.6034 22.2523 28.7435 21.8981 29.0127 21.8142C29.3647 21.7033 29.6885 21.4748 30.0789 21.5069L30.0793 21.5084Z" fill="#49C00F"/>
<path d="M34.4336 29.7901C34.2149 29.2352 34.6678 28.5988 34.1468 28.0416C33.9718 27.8552 34.3452 27.5317 34.5823 27.3715C34.8098 27.2189 35.0431 27.2747 35.1931 27.5296C35.5124 28.0741 35.7882 28.612 36.5369 28.7498C36.9153 28.8184 36.8289 29.485 36.3569 29.6581C35.9411 29.8112 35.7559 29.9909 35.7381 30.4407C35.7308 30.656 35.7814 31.0625 35.4057 31.0665C35.025 31.0702 34.6601 30.9029 34.5225 30.5014C34.4465 30.28 34.4606 30.0279 34.4351 29.7897L34.4336 29.7901Z" fill="#49C00F"/>
<path d="M28.0946 21.0183C28.1236 21.3256 28.0248 21.5604 27.6901 21.5868C27.2708 21.6208 27.1472 21.2588 27.0694 20.9746C26.9835 20.6543 27.2189 20.5062 27.5381 20.4907C27.9136 20.4734 28.0677 20.6755 28.0946 21.0183Z" fill="#49C00F"/>
<path d="M37.6418 32.7609C38.1345 32.5222 38.4348 32.1934 38.9593 32.4212C38.5978 32.8015 38.1966 32.7539 37.6418 32.7609Z" fill="#92D96F"/>
</svg>
