<svg width="40" height="40" viewBox="0 0 40 40" fill="none" xmlns="http://www.w3.org/2000/svg">
<rect width="40" height="40" rx="20" fill="#F9F9FF"/>
<path d="M20 0C15.3 0 10.95 1.65002 7.5 4.40002C2.9 8.05002 0 13.7 0 20C0 23.75 1.05001 27.3 2.90001 30.3C6.35001 36.1 12.7 40 20 40C25.05 40 29.65 38.15 33.15 35C34.7 33.7 36.05 32.1 37.1 30.3C38.95 27.3 40 23.75 40 20C40 8.95 31.05 0 20 0ZM12.1 17.3001C10.65 15.8501 10.65 13.4501 12.1 12.0001C13.6 10.5501 15.95 10.5501 17.45 12.0001L20.05 14.65L22.55 12.0999C24.05 10.6499 26.4 10.6499 27.9 12.0999C29.35 13.5999 29.35 15.95 27.9 17.45L25.35 19.95L28 22.55C29.45 24.05 29.45 26.4001 28 27.9001C27.25 28.6001 26.3 28.9499 25.35 28.9499C24.4 28.9499 23.45 28.6001 22.7 27.9001L20.05 25.2499L17.3 27.9999C16.55 28.7499 15.6 29.1 14.65 29.1C13.7 29.1 12.75 28.7499 12 27.9999C10.55 26.5499 10.55 24.1499 12 22.6999L14.75 19.95L12.1 17.3001Z" fill="#C0C9E2"/>
</svg>
