<svg width="104" height="104" viewBox="0 0 104 104" fill="none" xmlns="http://www.w3.org/2000/svg">
<g filter="url(#filter0_d_2801_2864)">
<rect x="14" y="10" width="76" height="76" rx="24" fill="url(#paint0_linear_2801_2864)" shape-rendering="crispEdges"/>
<path fill-rule="evenodd" clip-rule="evenodd" d="M47.0496 33.5728C50.3057 32.8091 53.6944 32.8091 56.9505 33.5728C61.6527 34.6758 65.3243 38.3474 66.4273 43.0496C67.191 46.3057 67.191 49.6944 66.4273 52.9505C65.3243 57.6527 61.6527 61.3243 56.9505 62.4273C53.6944 63.191 50.3057 63.191 47.0496 62.4273C42.3474 61.3243 38.6758 57.6527 37.5728 52.9505C36.8091 49.6944 36.8091 46.3057 37.5728 43.0496C38.6758 38.3474 42.3474 34.6758 47.0496 33.5728ZM52.4597 43.2136C52.4597 42.6613 52.012 42.2136 51.4597 42.2136C50.9075 42.2136 50.4597 42.6613 50.4597 43.2136V49.1071C50.4597 49.449 50.6344 49.7673 50.9229 49.9508L55.4518 52.8324C55.9178 53.1289 56.5359 52.9915 56.8324 52.5255C57.1288 52.0596 56.9914 51.4415 56.5255 51.145L52.4597 48.5581V43.2136Z" fill="white" fill-opacity="0.6"/>
</g>
<defs>
<filter id="filter0_d_2801_2864" x="0" y="0" width="104" height="104" filterUnits="userSpaceOnUse" color-interpolation-filters="sRGB">
<feFlood flood-opacity="0" result="BackgroundImageFix"/>
<feColorMatrix in="SourceAlpha" type="matrix" values="0 0 0 0 0 0 0 0 0 0 0 0 0 0 0 0 0 0 127 0" result="hardAlpha"/>
<feOffset dy="4"/>
<feGaussianBlur stdDeviation="7"/>
<feComposite in2="hardAlpha" operator="out"/>
<feColorMatrix type="matrix" values="0 0 0 0 0.00392157 0 0 0 0 0.807843 0 0 0 0 0.411765 0 0 0 0.2 0"/>
<feBlend mode="normal" in2="BackgroundImageFix" result="effect1_dropShadow_2801_2864"/>
<feBlend mode="normal" in="SourceGraphic" in2="effect1_dropShadow_2801_2864" result="shape"/>
</filter>
<linearGradient id="paint0_linear_2801_2864" x1="201.253" y1="48" x2="14" y2="48" gradientUnits="userSpaceOnUse">
<stop stop-color="#00E213"/>
<stop offset="1" stop-color="#01B5CF"/>
</linearGradient>
</defs>
</svg>
