<svg width="108" height="57" viewBox="0 0 108 57" fill="none" xmlns="http://www.w3.org/2000/svg">
<path d="M35.2085 16.924C34.9777 17.1575 35.2917 17.3651 35.242 17.5901C35.2357 17.8401 35.2596 18.1038 34.9876 18.2517C34.7145 17.9231 35.0035 17.2973 34.4007 17.1438C34.6343 16.9395 34.9253 16.9432 35.2085 16.924Z" fill="#F88E86"/>
<path d="M103.669 21.1664C103.077 18.783 102.516 16.3914 101.831 14.0346C101.266 12.0875 100.81 10.1127 100.273 8.16161C99.8624 6.67466 99.4163 5.22737 98.3051 4.01662C96.5323 2.08472 94.3894 1.50214 91.9143 1.93198C90.7355 2.13615 89.5859 2.51753 88.4232 2.81906C86.3336 3.36232 84.2419 3.90444 82.1535 4.45236C80.7599 4.81909 79.3672 5.18894 77.9774 5.56967C76.5099 5.97124 75.0499 6.40744 73.5786 6.79501C71.8491 7.25175 70.1054 7.64898 68.3795 8.11308C65.518 8.87983 62.6698 9.69634 59.8074 10.46C56.5978 11.315 53.3794 12.1307 50.166 12.9717C49.183 13.2284 48.2081 13.5213 47.2255 13.7796C45.1593 14.3233 43.078 14.8109 41.0278 15.4019C39.0997 15.9569 37.1514 16.4306 35.2081 16.923C34.9035 17.1113 35.0432 17.3589 35.1202 17.5966C35.1766 17.7615 35.1729 17.8781 35.1089 17.9463C34.8906 17.6665 35.0936 17.012 34.4002 17.1428C32.2727 17.9429 30.0247 18.3119 27.8521 18.9624C24.7336 19.8963 21.5518 20.6372 18.3958 21.4495C14.7704 22.3826 11.1554 23.3546 7.56521 24.4066C6.05849 24.8486 4.91097 25.9345 4.11346 27.35C3.12036 29.1179 3.02792 30.9129 3.58727 32.8449C4.38292 35.5903 5.05654 38.3718 5.78573 41.1367C6.43033 43.586 7.13247 46.0198 7.70822 48.4858C8.07945 50.0765 8.56825 51.5523 9.71408 52.7805C11.4982 54.6926 13.7312 55.3995 16.1862 54.87C19.2888 54.2003 22.3122 53.1669 25.3955 52.394C28.0945 51.7175 30.7692 50.9625 33.4546 50.2413C36.2944 49.4804 39.1546 48.8023 41.9961 48.0476C44.9915 47.2517 47.9709 46.39 50.9638 45.5847C54.1542 44.7265 57.3526 43.9045 60.5464 43.0587C65.2421 41.8155 69.9412 40.5847 74.6287 39.3171C77.8272 38.4517 81.0216 37.5524 84.2412 36.7597C86.7541 36.1414 89.2714 35.5269 91.7556 34.8013C92.9581 34.4491 94.192 34.2268 95.3804 33.81C96.5829 33.3894 97.8276 33.0459 99.0819 32.8249C102.405 32.2378 104.927 29.0851 104.713 25.7788C104.609 24.173 104.049 22.6964 103.669 21.1679L103.669 21.1664ZM98.4011 29.5002C95.6266 30.1753 92.878 30.9651 90.1195 31.7059C87.1001 32.5183 84.0833 33.34 81.0615 34.143C78.374 34.8565 75.6911 35.587 72.9859 36.2219C72.4635 36.3435 72.2428 37.1311 71.8114 36.8649C71.2526 36.5213 70.9113 36.8461 70.4801 36.96C68.7782 37.4077 67.0743 37.8542 65.3733 38.305C63.2274 38.875 61.0844 39.4492 58.9389 40.0207C56.4452 40.6856 53.9514 41.3505 51.4587 42.0134C51.0514 42.4092 50.5215 42.3912 50.0099 42.4416C47.1878 43.1128 44.3894 43.8726 41.5944 44.6449C38.61 45.4695 35.571 46.1088 32.6113 47.0069C31.0112 47.4923 29.3729 47.7979 27.7723 48.2818C24.8363 49.1685 21.8199 49.7867 18.876 50.6506C17.8345 50.9563 16.771 51.1613 15.7305 51.4834C13.8205 52.0752 11.7894 50.9893 11.2935 48.8836C10.8043 46.8027 10.1335 44.7722 9.64206 42.6954C8.96054 39.816 8.036 37.0001 7.4338 34.0994C7.28171 33.3701 7.00116 32.6652 6.77939 31.9496C6.23561 30.2001 6.92694 28.3696 8.56674 27.5969C9.37462 27.2154 10.3056 27.0943 11.1819 26.8562C13.4951 26.2264 15.8054 25.5923 18.1207 24.9703C20.5728 24.3115 23.0266 23.6591 25.4813 23.0163C26.6944 22.6979 27.9131 22.4064 29.1304 22.1035C29.3566 21.8963 29.6063 21.7644 29.927 21.8601C33.804 20.8396 37.6815 19.8273 41.556 18.7975C46.6501 17.4425 51.7417 16.0715 56.8342 14.7103C59.5935 13.9727 62.3562 13.2474 65.1142 12.5051C69.1549 11.4174 73.1767 10.253 77.2368 9.25016C79.7737 8.62205 82.3109 7.98222 84.8223 7.27096C87.2854 6.57263 89.7966 6.05977 92.2287 5.25143C93.9946 4.66324 95.9995 5.81288 96.5424 7.60261C97.375 10.3431 98.0486 13.1246 98.7751 15.8919C99.3903 18.2374 100.094 20.5606 100.726 22.9034C100.966 23.8023 101.188 24.718 101.294 25.6398C101.523 27.677 100.416 29.0121 98.4015 29.5018L98.4011 29.5002Z" fill="#F44336"/>
<path d="M56.1994 12.7264C55.9815 12.6598 55.6404 12.5812 55.7771 12.3695C55.9198 12.1496 55.7813 11.645 56.2581 11.7139C56.522 11.7532 56.8673 11.6857 57.0093 12.0477C57.0395 12.123 56.9969 12.3061 57.1685 12.2501C57.3169 12.2003 57.4296 11.9117 57.609 12.177C57.7083 12.3238 57.5883 12.4293 57.4438 12.4563C57.2503 12.4932 57.0949 12.8398 56.8462 12.4964C56.4299 11.9196 56.4819 12.8724 56.1994 12.7264Z" fill="#F88E86"/>
<path d="M50.0088 42.4425C50.4426 42.1329 50.9749 42.1603 51.4575 42.0143C51.1335 43.0629 50.8109 43.1593 50.0088 42.4425Z" fill="#F88E86"/>
<path d="M58.1384 11.1851C58.2468 11.1794 58.3173 11.1872 58.3822 11.1682C58.7732 11.06 59.0621 11.236 59.308 11.5068C59.3295 11.5311 59.2529 11.6433 59.2216 11.7133C58.9491 11.393 58.3343 11.7794 58.1379 11.1836L58.1384 11.1851Z" fill="#F88E86"/>
<path d="M29.9253 21.8599C29.7 22.0702 29.4222 22.1097 29.1288 22.1033C29.1407 21.8117 29.233 21.6087 29.5753 21.5736C29.8217 21.5476 29.9134 21.6347 29.9238 21.8603L29.9253 21.8599Z" fill="#F88E86"/>
<path d="M34.9895 18.2529C34.9864 17.9987 35.0631 17.7748 35.244 17.5913C35.4151 17.7321 35.657 17.8573 35.4569 18.131C35.3462 18.284 35.2211 18.5075 34.9895 18.2529Z" fill="#F88E86"/>
<path d="M76.6647 7.23962C76.3407 7.36146 76.1406 7.26172 75.9823 7.06911C75.9648 7.04714 76.0253 6.90592 76.0719 6.89342C76.3459 6.81499 76.519 6.95698 76.6647 7.23962Z" fill="#F88E86"/>
<path d="M74.8161 31.5868C74.4706 31.6411 74.066 31.7545 73.9046 31.3327C73.747 30.9249 74.0177 30.554 74.3446 30.393C74.9322 30.1039 75.1256 29.7121 74.9341 29.1033C74.9106 29.0279 74.8723 28.9099 74.9068 28.8706C75.2441 28.4935 74.9335 28.4167 74.7205 28.1321C74.4308 27.7413 74.4629 27.121 74.3208 26.609C73.513 23.7002 72.8763 20.7454 71.9488 17.8686C71.751 17.2549 71.4878 16.8137 70.6916 16.9837C70.2958 17.0681 69.9657 16.7632 69.9005 16.3456C69.8327 15.912 70.1658 15.7244 70.5177 15.6318C72.3972 15.1315 74.28 14.6437 76.1644 14.1555C76.5167 14.0644 76.8364 14.1504 76.9646 14.5044C77.0916 14.8538 77.0457 15.1928 76.6216 15.3581C75.997 15.6021 75.8461 16.0343 75.9514 16.7011C76.1434 17.9215 76.55 19.0843 76.829 20.2814C77.3433 22.4805 77.9708 24.6543 78.562 26.8361C78.7071 27.3773 78.8843 27.9082 79.062 28.4406C79.1804 28.7956 79.4694 28.9532 79.8169 28.9067C80.3652 28.8315 80.8692 28.9398 80.9128 29.5315C80.9577 30.1346 80.3678 30.1226 79.9288 30.2386C78.3268 30.6612 76.7332 31.1148 75.1339 31.5534C75.0312 31.5809 74.9207 31.5788 74.8154 31.5904L74.8161 31.5868Z" fill="#F44336"/>
<path d="M42.2113 40.2718C41.2385 40.5975 40.6595 39.7742 40.0513 39.2588C37.5628 37.1503 35.1471 34.9589 32.6981 32.8048C31.4981 31.7479 30.2334 30.7666 29.0824 29.6499C28.5258 29.109 27.809 29.0093 27.056 29.1228C26.5161 29.2041 25.9798 29.1811 25.8473 28.5248C25.7183 27.8877 25.9673 27.5293 26.6807 27.3364C27.7647 27.046 28.8562 26.7652 29.9258 26.4336C30.8198 26.1557 31.4097 26.4477 31.9995 27.0314C33.3689 28.3846 34.8981 29.5567 36.3434 30.8263C38.2925 32.5393 40.2317 34.2649 42.1694 35.9909C42.6008 36.3754 42.8826 36.83 42.9284 37.4427C42.9609 37.8624 43.1093 38.2794 43.2415 38.6857C43.6276 39.8656 43.494 40.0948 42.2106 40.2753L42.2113 40.2718Z" fill="#F44336"/>
<path d="M21.2276 45.9632C19.8069 46.0421 18.5211 46.0333 17.2408 45.8896C15.9883 45.7502 15.0981 45.1403 14.7083 43.8846C14.3194 42.632 14.0245 41.3575 13.7029 40.0886C13.1628 37.9547 12.5721 35.8311 11.9713 33.7135C11.8219 33.1868 11.4543 32.8603 10.8323 32.9336C10.3365 32.9931 9.95527 32.7586 9.89702 32.2674C9.83688 31.7568 10.2587 31.6455 10.6788 31.5396C12.4906 31.0791 14.2973 30.5933 16.1044 30.1091C16.5056 30.0016 16.9317 29.8624 17.1405 30.3616C17.3167 30.7827 17.0378 31.0358 16.6862 31.26C15.8188 31.8175 15.733 32.2439 16.1993 33.5924C16.7592 35.2092 16.99 36.9226 17.5583 38.5272C18.1462 40.1865 18.1504 42.0806 19.4884 43.4539C19.9137 43.89 20.3196 44.2729 20.9877 44.2406C21.8349 44.1986 22.1544 44.483 22.182 45.2391C22.2005 45.7558 21.9815 45.9028 21.2276 45.9632Z" fill="#F44336"/>
<path d="M46.7134 39.1021C46.4246 39.1378 46.133 39.1009 46.0155 38.7557C45.9042 38.4338 46.0226 38.1104 46.3154 38.0086C47.3358 37.6552 47.2391 36.921 47.0335 36.1227C46.5345 34.1795 46.0433 32.2342 45.5349 30.2936C45.108 28.6628 44.6487 27.0423 44.2342 25.4082C44.0716 24.77 43.8181 24.3279 43.0618 24.3856C42.8594 24.4015 42.645 24.3105 42.4432 24.2479C42.1813 24.1664 42.055 23.9502 42.0379 23.6998C42.0188 23.4232 42.201 23.2444 42.4505 23.1742C43.9155 22.7567 45.3776 22.3349 46.8505 21.9469C47.2222 21.8473 47.5565 22.0127 47.6606 22.4199C48.1315 24.2456 48.5739 26.0772 49.0557 27.9C49.5053 29.6031 49.9892 31.2969 50.4602 32.9926C50.7018 33.863 50.9375 34.7366 51.1962 35.6023C51.3775 36.2105 51.7805 36.4642 52.4191 36.2848C52.8596 36.1617 53.1763 36.3736 53.2985 36.7609C53.426 37.1684 53.1477 37.4363 52.7767 37.5258C50.8054 38.0006 48.831 38.458 46.8932 39.0639C46.8423 39.0792 46.7888 39.0852 46.7098 39.1014L46.7134 39.1021Z" fill="#F44336"/>
<path d="M83.2587 29.4273C82.8536 29.4458 82.3865 29.5876 82.2435 29.0476C82.1276 28.6152 82.3294 28.3045 82.7979 28.1306C83.5178 27.8627 83.4865 27.2544 83.3248 26.6509C82.7981 24.6852 82.2562 22.7252 81.7264 20.7602C81.3031 19.1868 80.881 17.6114 80.4795 16.0322C80.2808 15.247 79.9697 14.6269 79.0105 14.6739C78.6257 14.6937 78.3972 14.4566 78.3309 14.1159C78.2572 13.729 78.5143 13.5251 78.8591 13.431C80.2458 13.0511 81.6296 12.6603 83.0234 12.3069C83.4527 12.1985 83.7482 12.4427 83.8584 12.8665C84.6014 15.7328 85.3293 18.6047 86.0847 21.4676C86.5816 23.353 87.0866 25.2379 87.6515 27.1034C87.8768 27.8448 87.6978 28.2095 86.9621 28.3999C85.7213 28.7208 84.4913 29.082 83.2567 29.4262L83.2587 29.4273Z" fill="#F44336"/>
<path d="M95.983 19.0636C96.2849 20.8312 95.8693 22.4527 95.0617 23.9609C94.574 24.8717 93.6281 25.3852 92.8309 26.0055C91.9415 26.6988 90.8952 27.1359 89.8727 27.5999C89.5921 27.7284 89.3101 27.7706 89.0141 27.7483C88.6672 27.7229 88.4967 27.4785 88.4261 27.1774C88.3546 26.8732 88.5227 26.6548 88.7851 26.5328C89.0265 26.4198 89.2832 26.2894 89.5399 26.2706C90.8751 26.1712 91.9198 24.5711 91.9868 23.353C92.0998 21.2926 91.5936 19.3163 90.9848 17.3742C90.6761 16.3901 90.3076 15.4254 89.6823 14.5596C88.8805 13.4459 87.9166 12.7974 86.5093 12.9511C86.1628 12.989 85.8157 13.0187 85.4734 13.0787C85.0291 13.1561 84.6522 13.1304 84.5687 12.5827C84.49 12.0587 84.8283 11.8781 85.2589 11.7744C86.5776 11.4577 87.908 11.4963 89.2394 11.6562C90.197 11.7714 91.2068 11.8325 92.0409 12.2891C93.2502 12.9518 94.1634 14.0022 94.8271 15.2162C95.4858 16.4182 95.8791 17.718 95.9841 19.0616L95.983 19.0636Z" fill="#F44336"/>
<path d="M67.3189 33.5652C67.046 33.5733 66.6294 33.8099 66.46 33.3519C66.3074 32.9378 66.6147 32.6604 66.9211 32.4166C67.8013 31.7141 67.8144 31.7006 67.1986 30.7771C66.0138 28.9994 64.7218 27.3003 63.4278 25.6002C62.5248 24.4136 61.6931 23.1697 60.8665 21.926C60.5371 21.4309 60.1433 21.168 59.547 21.1945C59.0182 21.2178 58.6202 21.0511 58.4407 20.4808C58.2572 19.9016 58.3094 19.4559 58.848 19.0832C59.6892 18.5028 60.6066 18.0819 61.5502 17.7157C62.0003 17.5418 62.4103 17.7653 62.6823 18.1275C64.0138 19.8992 65.3245 21.6866 66.6506 23.4632C67.8964 25.1329 69.1156 26.8214 70.4134 28.4489C71.0562 29.2551 71.5372 30.223 72.5017 30.7496C72.7304 30.875 72.8926 31.0699 73.2098 30.9783C73.4744 30.9024 73.6861 31.089 73.7416 31.3458C73.8088 31.6462 73.6482 31.8992 73.3643 31.972C72.1584 32.2801 70.9977 32.7444 69.7556 32.9423C68.9501 33.0714 68.1984 33.4695 67.3185 33.5636L67.3189 33.5652Z" fill="#F44336"/>
<path d="M50.5973 21.1489C51.728 21.0576 52.8601 20.9843 53.9119 21.5009C55.4068 22.2338 55.9257 23.6666 56.0734 25.1321C56.3064 27.445 55.2338 28.8975 53.0223 29.6951C52.4691 29.895 51.9095 30.0833 51.3481 30.2587C51.0497 30.352 50.6983 30.5211 50.4994 30.121C50.3083 29.7372 50.3179 29.3379 50.6467 29.0098C50.7585 28.8982 50.9084 28.823 51.0313 28.7217C51.7158 28.1599 52.1192 27.5068 51.8978 26.556C51.6562 25.524 51.6627 24.4221 50.8507 23.5813C50.3988 23.114 49.9314 22.7758 49.2453 22.8463C48.7782 22.8948 48.4668 22.7032 48.403 22.2036C48.3356 21.6782 48.6455 21.4852 49.0953 21.4097C49.5977 21.325 50.0989 21.2358 50.6008 21.1496L50.5973 21.1489Z" fill="#F44336"/>
<path d="M24.3743 27.9297C24.7121 27.8842 25.0564 27.8503 25.1977 28.2408C25.3361 28.6204 25.1532 28.9578 24.8264 29.1254C24.0461 29.5228 24.0094 30.0327 24.2371 30.8451C25.0185 33.6494 25.7396 36.4715 26.3725 39.3122C26.5938 40.3063 26.7419 41.3568 26.5163 42.4057C26.3003 43.4036 24.5627 45.1427 23.5469 45.3266C23.2767 45.3756 23.0319 45.3145 22.9602 45.047C22.8436 44.6116 22.7091 44.1409 23.0921 43.7599C23.2396 43.6137 23.4434 43.5158 23.6347 43.4212C24.7754 42.8571 25.1109 42.0688 24.8227 40.6576C24.2929 38.0643 23.6474 35.4936 22.8558 32.9621C22.6572 32.3269 22.5336 31.6666 22.3763 31.017C22.2255 30.3923 21.9135 29.9992 21.1881 30.1536C20.95 30.2041 20.7043 30.1832 20.4865 30.0482C20.2785 29.9189 20.0628 29.7734 20.0913 29.4941C20.1201 29.2096 20.2763 28.9778 20.5645 28.9022C21.8325 28.5708 23.1042 28.2534 24.3728 27.9301L24.3743 27.9297Z" fill="#F44336"/>
<path d="M30.3684 43.4555C30.1207 43.4519 29.8311 43.4595 29.703 43.1621C29.5656 42.8422 29.5686 42.4614 29.8766 42.2921C31.2159 41.5549 30.8565 40.4561 30.5592 39.359C29.798 36.5493 29.0368 33.7396 28.2787 30.9291C28.2187 30.7051 28.0464 30.4229 28.3043 30.2655C28.6035 30.082 28.7669 30.3932 28.9426 30.5762C29.4714 31.1312 30.2722 31.445 30.5223 32.2415C30.7694 33.027 30.9354 33.8393 31.1519 34.6347C31.6555 36.4833 32.1665 38.3282 32.6749 40.1756C32.86 40.8477 33.3342 41.1307 33.9975 41.093C34.4571 41.0665 34.8298 41.1883 34.9204 41.6574C35.0319 42.2226 34.5238 42.2921 34.1608 42.3993C32.909 42.7664 31.6489 43.1024 30.3704 43.4567L30.3684 43.4555Z" fill="#F44336"/>
<path d="M61.5528 24.973C61.4563 26.274 61.3603 27.5766 61.2623 28.878C61.1696 30.0996 61.0378 31.3184 60.9935 32.5403C60.9601 33.436 61.2652 33.6727 62.1679 33.6325C62.3014 33.6267 62.4329 33.6015 62.565 33.5844C62.9587 33.5356 63.1772 33.7788 63.2921 34.0897C63.4264 34.4537 63.1598 34.6468 62.8652 34.7358C61.7438 35.0729 60.6153 35.3903 59.4869 35.7077C59.1798 35.7933 58.8645 35.8544 58.5529 35.9296C58.2787 35.9947 58.0194 35.9975 57.8289 35.7469C57.6324 35.4862 57.6923 35.1684 57.8967 35.017C59.6123 33.7372 59.1117 31.8128 59.3825 30.105C59.7403 27.8573 59.7841 25.582 60.0531 23.3263C60.0788 23.1111 60.0919 22.8676 60.3599 22.8291C60.5816 22.798 60.6938 22.993 60.7553 23.1665C60.9767 23.7873 61.6291 24.2192 61.5497 24.9739L61.5528 24.973Z" fill="#F44336"/>
<path d="M40.7727 33.6887C39.9986 33.0827 39.6387 32.2808 39.4136 31.3226C39.0379 29.7214 38.6306 28.1204 38.0799 26.5628C37.8999 26.0526 37.5908 25.8138 37.0516 25.9349C36.5563 26.046 36.1381 25.8913 36.0421 25.4086C35.9253 24.8232 36.4637 24.7673 36.8711 24.6581C37.9784 24.3614 39.054 23.9465 40.1984 23.7882C40.5312 23.7424 40.9288 23.5592 41.1032 24.0109C41.2673 24.4369 40.9528 24.7312 40.6637 24.9587C39.9726 25.5023 39.8504 26.0167 40.0938 26.8999C40.7447 29.2608 41.3505 31.6337 41.9688 34.0033C42.0063 34.1433 42.0925 34.3219 41.9163 34.4358C41.771 34.528 41.6683 34.3872 41.564 34.3218C41.362 34.1959 41.1744 34.0495 40.9796 33.9133C40.8442 33.8996 41.0857 33.5382 40.7727 33.6887Z" fill="#F44336"/>
<path d="M63.0975 29.6675C62.6839 29.71 62.1577 30.0543 62.0248 29.3032C61.913 28.6681 62.2784 28.3835 62.8399 28.233C64.0132 27.9153 64.7199 28.0643 64.6895 28.7225C64.6501 29.6265 63.7571 29.4541 63.1737 29.6471C63.1473 29.6541 63.1224 29.6608 63.096 29.6679L63.0975 29.6675Z" fill="#F44336"/>
<path d="M40.7727 33.6897C40.7933 33.5176 40.6738 33.3079 40.8854 33.1895C40.9218 33.1698 41.0282 33.2246 41.0727 33.2727C41.3053 33.5187 41.0291 33.7011 40.9792 33.9128C40.8535 33.8915 40.7819 33.8173 40.7723 33.6882L40.7727 33.6897Z" fill="#F44336"/>
<path d="M62.6299 20.5065C63.1201 20.3952 63.4714 20.4744 63.5342 21.0759C63.5678 21.4003 63.823 21.6186 64.1457 21.6038C64.9114 21.5687 64.9486 22.0871 64.9199 22.6082C64.8773 23.3763 64.862 24.0405 65.9348 24.0631C66.3657 24.0726 66.4825 24.6764 66.1611 24.9825C65.3558 25.7467 64.2382 25.5011 63.9003 24.4765C63.8365 24.282 63.7841 24.111 63.5446 24.1318C62.8411 24.1936 62.6901 23.7174 62.6245 23.1799C62.5279 22.384 62.5492 21.5616 61.4802 21.323C61.154 21.2503 61.2941 20.8961 61.5634 20.8123C61.9153 20.7013 62.2392 20.4729 62.6295 20.505L62.6299 20.5065Z" fill="#F44336"/>
<path d="M66.984 28.788C66.7653 28.2332 67.2182 27.5968 66.6972 27.0397C66.5222 26.8532 66.8956 26.5298 67.1327 26.3696C67.3602 26.217 67.5935 26.2728 67.7434 26.5276C68.0627 27.0722 68.3385 27.61 69.0871 27.7478C69.4656 27.8164 69.3791 28.4829 68.9071 28.6561C68.4914 28.8091 68.3062 28.9888 68.2884 29.4386C68.2811 29.6539 68.3317 30.0604 67.956 30.0644C67.5753 30.068 67.2105 29.9008 67.0729 29.4993C66.9969 29.2779 67.011 29.0258 66.9855 28.7876L66.984 28.788Z" fill="#F44336"/>
<path d="M60.6451 20.0164C60.674 20.3236 60.5753 20.5584 60.2406 20.5848C59.8214 20.6188 59.6977 20.2569 59.6199 19.9727C59.5341 19.6523 59.7694 19.5042 60.0886 19.4887C60.464 19.4715 60.6182 19.6735 60.6451 20.0164Z" fill="#F44336"/>
<path d="M70.1919 31.759C70.6847 31.5202 70.985 31.1914 71.5094 31.4193C71.1479 31.7995 70.7468 31.752 70.1919 31.759Z" fill="#F88E86"/>
</svg>
